<?xml version="1.0" encoding="UTF-8" standalone="no"?>
<!DOCTYPE svg PUBLIC "-//W3C//DTD SVG 1.1//EN" "http://www.w3.org/Graphics/SVG/1.1/DTD/svg11.dtd">
<svg
  width="100%"
  height="100%"
  viewBox="0 0 513 512"
  version="1.1"
  xmlns="http://www.w3.org/2000/svg"
  xmlns:xlink="http://www.w3.org/1999/xlink"
  xml:space="preserve"
  xmlns:serif="http://www.serif.com/"
  style="
    fill-rule: evenodd;
    clip-rule: evenodd;
    stroke-linejoin: round;
    stroke-miterlimit: 2;
  "
>
  <g transform="matrix(1,0,0,1,-560,0)">
    <g id="Communications" transform="matrix(13.4737,0,0,16,48.8698,-960)">
      <g transform="matrix(0.144463,0,0,0.121653,-60.4482,44.8569)">
        <path
          style="fill: currentColor"
          d="M813,163C864.328,163 906,204.672 906,256C906,307.328 864.328,349 813,349C761.672,349 720,307.328 720,256C720,204.672 761.672,163 813,163ZM889.119,218.155L886.487,219.64C891.942,230.595 895,242.943 895,256C895,271.157 890.879,285.359 883.697,297.545C883.579,297.746 883.434,297.985 883.277,298.242C882.467,299.588 880.754,300.08 879.352,299.37C877.268,298.315 874.607,296.968 874.607,296.968C874.607,296.968 870.609,294.608 867.804,292.952C867.113,292.544 866.614,291.875 866.419,291.096C866.225,290.317 866.35,289.493 866.768,288.807C867.606,287.434 868.385,286.022 869.091,284.567L869.146,284.454C873.548,275.926 876,266.247 876,256C876,246.337 873.82,237.18 869.86,229.027L866.373,230.995C870.004,238.566 872,247.052 872,256C872,265.505 869.747,274.488 865.693,282.416L865.637,282.528C864.899,283.997 864.102,285.431 863.253,286.83C862.4,288.23 860.581,288.685 859.169,287.852C856.145,286.069 851.067,283.072 847.944,281.228C847.235,280.81 846.729,280.118 846.545,279.316C846.361,278.514 846.514,277.671 846.97,276.985C847.218,276.611 847.391,276.351 847.391,276.351C848.059,275.251 847.501,276.159 848.169,275.06L849.855,271.564L850.676,269.321L850.88,268.818L850.948,268.579L851.2,267.889L851.784,265.62L852.043,264.705L852.086,264.449L852.187,264.057L852.576,261.509L852.757,260.424L852.766,260.269L852.793,260.087L853,256C853,256 852.793,251.913 852.793,251.913L852.791,251.899L852.791,251.887L852.622,250.793L852.187,247.943L851.2,244.111L850.747,242.873L849.811,240.345L847.175,241.833C848.998,246.193 850,250.981 850,256C850,261.424 848.83,266.577 846.701,271.204L845.532,273.63C845.356,274.042 844.873,274.814 844.35,275.601C843.95,276.289 843.291,276.789 842.521,276.99C841.75,277.191 840.931,277.077 840.246,276.672C837.275,274.93 832.215,271.943 829.017,270.055C828.308,269.636 827.802,268.944 827.618,268.141C827.435,267.338 827.589,266.495 828.045,265.809C828.955,264.48 829.662,263.006 830.158,261.439C830.706,259.723 831,257.895 831,256C831,254.381 830.786,252.811 830.364,251.323L827.656,252.852C827.858,253.743 827.971,254.665 827.995,255.609L827.997,255.697L827.997,255.725L827.998,255.74L827.998,255.76L827.999,255.798L827.999,255.847L827.999,255.87L827.999,255.882C828,255.921 828,255.961 828,256C828,256.042 828,256.084 827.999,256.126L827.998,256.249L827.995,256.373L827.992,256.497L827.991,256.508L827.989,256.561L827.987,256.621L827.987,256.634L827.984,256.689L827.981,256.744L827.981,256.76L827.978,256.816L827.975,256.867L827.974,256.886L827.97,256.943L827.967,256.99L827.965,257.011L827.961,257.069L827.958,257.113L827.956,257.136L827.951,257.196L827.948,257.235L827.946,257.261L827.94,257.322L827.937,257.357L827.934,257.385L827.928,257.448L827.925,257.479L827.924,257.488C827.839,258.299 827.68,259.089 827.439,259.847L827.426,259.898C826.736,262.547 825.332,264.906 823.424,266.753L823.393,266.784C821.209,268.912 818.372,270.369 815.214,270.837L815.138,270.848L815.047,270.861L814.956,270.873L814.864,270.885L814.773,270.896L814.681,270.907L814.589,270.917L814.496,270.926L814.404,270.935L814.311,270.943L814.219,270.951L814.126,270.958L814.033,270.965L813.94,270.971L813.84,270.977L813.747,270.982L813.655,270.986L813.561,270.99L813.468,270.993L813.375,270.995L813.281,270.997L813.188,270.999L813.094,271C813.063,271 813.031,271 813,271L812.907,271L812.814,270.999L812.721,270.997L812.697,270.997L812.668,270.996L812.629,270.995L812.597,270.995L812.57,270.994L812.536,270.993L812.496,270.992L812.444,270.99L812.396,270.988L812.352,270.986L812.322,270.985L812.296,270.984L812.26,270.982L812.225,270.98L812.196,270.979L812.168,270.977L812.128,270.975L812.096,270.973L812.076,270.972L811.997,270.967L811.985,270.966L811.895,270.96C811.863,270.958 811.832,270.955 811.801,270.953L811.711,270.945L811.699,270.944L811.62,270.937L811.6,270.935L811.529,270.929L811.501,270.926L811.467,270.922L811.439,270.919L811.403,270.916L811.348,270.91L811.305,270.905L811.258,270.9L811.207,270.894L811.168,270.889L811.109,270.882L811.078,270.878L811.011,270.869L810.913,270.856L810.893,270.853C807.614,270.39 804.678,268.863 802.456,266.617C802.326,266.49 802.199,266.361 802.073,266.229L794.717,270.382C793.308,271.178 791.521,270.713 790.679,269.33C789.817,267.868 789.086,266.32 788.523,264.692L788.5,264.629C787.519,261.937 787,259.028 787,256C787,253.622 787.32,251.319 787.926,249.132C788.145,248.343 788.789,246.558 788.844,246.43L786.22,244.881C784.787,248.304 784,252.061 784,256C784,259.588 784.653,263.026 785.878,266.185C786.459,267.743 787.17,269.237 788.002,270.651C788.413,271.342 788.528,272.17 788.321,272.947C788.114,273.723 787.603,274.384 786.903,274.779C783.786,276.553 778.769,279.385 775.709,281.112C775.011,281.507 774.184,281.605 773.413,281.385C772.642,281.166 771.991,280.646 771.605,279.944C770.516,277.96 769.216,275.592 769.216,275.592L767.652,271.612L767.36,270.814L766.394,267.293L766.055,265.977L765.489,262.482L765.27,261.046L765,256C765,256 765.228,251.499 765.228,251.499L765.281,250.88L765.902,246.815L766.093,245.878L767.028,242.243L767.48,240.858L768.269,238.703L768.708,237.581C768.708,237.581 769.616,235.527 769.803,235.19L767.213,233.661C763.855,240.391 762,247.981 762,256C762,263.518 763.63,270.659 766.601,277.068C766.601,277.068 767.929,279.484 769.026,281.479C769.818,282.92 769.303,284.729 767.872,285.537C764.56,287.407 758.853,290.628 755.557,292.489C754.131,293.295 752.323,292.808 751.494,291.396C751.121,290.765 750.771,290.173 750.575,289.831L749.097,286.949C744.55,277.596 742,267.094 742,256C742,244.268 744.852,233.196 749.917,223.451L747.33,221.924C742.002,232.117 739,243.711 739,256C739,267.628 741.688,278.632 746.483,288.424L747.937,291.261C748.134,291.603 748.47,292.175 748.832,292.785C749.238,293.479 749.349,294.307 749.14,295.083C748.93,295.859 748.418,296.519 747.718,296.914L740.785,300.828C755.792,324.938 782.535,341 813,341C859.913,341 898,302.913 898,256C898,242.405 894.801,229.551 889.119,218.155ZM844.828,285.195C845.867,285.808 846.557,286.876 846.689,288.076C846.82,289.276 846.378,290.468 845.496,291.292C836.956,299.184 825.536,304 813,304C800.349,304 788.835,299.096 780.278,291.069C779.392,290.231 778.956,289.022 779.104,287.812C779.252,286.601 779.966,285.533 781.028,284.933C781.021,284.92 781.022,284.92 781.022,284.919C782.658,283.997 784.702,284.238 786.077,285.516C793.161,292.039 802.621,296 813,296C823.268,296 832.637,292.123 839.703,285.737C841.106,284.454 843.182,284.238 844.82,285.205C844.827,285.194 844.827,285.194 844.828,285.195ZM885.215,211.172C870.208,187.062 843.465,171 813,171C766.087,171 728,209.087 728,256C728,269.595 731.199,282.449 736.881,293.845L739.513,292.36C734.058,281.405 731,269.057 731,256C731,240.843 735.121,226.641 742.303,214.455C742.421,214.254 742.566,214.015 742.723,213.758C743.533,212.412 745.246,211.92 746.648,212.63C748.732,213.685 751.393,215.032 751.393,215.032C751.393,215.032 755.391,217.392 758.196,219.048C758.887,219.456 759.386,220.125 759.581,220.904C759.775,221.683 759.65,222.507 759.232,223.193C758.394,224.566 757.615,225.978 756.909,227.433L756.854,227.546C752.452,236.074 750,245.753 750,256C750,265.663 752.18,274.82 756.14,282.973L759.627,281.005C755.996,273.434 754,264.948 754,256C754,246.495 756.253,237.512 760.307,229.584L760.363,229.472C761.101,228.003 761.898,226.569 762.747,225.17C763.6,223.77 765.419,223.315 766.831,224.148C769.855,225.931 774.933,228.928 778.056,230.772C778.765,231.19 779.271,231.882 779.455,232.684C779.639,233.486 779.486,234.329 779.03,235.015C778.782,235.389 778.609,235.649 778.609,235.649C777.941,236.749 778.499,235.841 777.831,236.94L776.145,240.436L775.324,242.679L775.12,243.182L775.052,243.421L774.8,244.111L774.216,246.38L773.957,247.295L773.914,247.551L773.813,247.943L773.424,250.491L773.243,251.576L773.234,251.731L773.207,251.913L773,256C773,256 773.207,260.087 773.207,260.087L773.209,260.101L773.209,260.113L773.378,261.207L773.813,264.057L774.8,267.889L775.253,269.127L776.189,271.655L778.825,270.167C777.002,265.807 776,261.019 776,256C776,250.576 777.17,245.423 779.299,240.796L780.468,238.37C780.644,237.958 781.127,237.186 781.65,236.399C782.05,235.711 782.709,235.211 783.479,235.01C784.25,234.809 785.069,234.923 785.754,235.328C788.725,237.07 793.785,240.057 796.983,241.945C797.692,242.364 798.198,243.056 798.382,243.859C798.565,244.662 798.411,245.505 797.955,246.191C797.045,247.52 796.338,248.994 795.842,250.561C795.294,252.277 795,254.105 795,256C795,257.619 795.214,259.189 795.636,260.677L798.344,259.148C798.142,258.257 798.029,257.335 798.005,256.391L798.003,256.303L798.003,256.275L798.002,256.26L798.002,256.24L798.001,256.202L798.001,256.153L798.001,256.13L798.001,256.118C798,256.079 798,256.039 798,256C798,255.958 798,255.916 798.001,255.874L798.002,255.751L798.005,255.627L798.008,255.503L798.009,255.492L798.011,255.439L798.013,255.379L798.013,255.366L798.016,255.311L798.019,255.256L798.019,255.24L798.022,255.184L798.025,255.133L798.026,255.114L798.03,255.057L798.033,255.01L798.035,254.989L798.039,254.931L798.042,254.887L798.044,254.864L798.049,254.804L798.052,254.765L798.054,254.739L798.06,254.678L798.063,254.643L798.066,254.615L798.072,254.552L798.075,254.521L798.076,254.512C798.161,253.701 798.32,252.911 798.561,252.153L798.574,252.102C799.264,249.453 800.668,247.094 802.576,245.247L802.607,245.216C804.791,243.088 807.628,241.631 810.786,241.163L810.862,241.152L810.953,241.139L811.044,241.127L811.136,241.115L811.227,241.104L811.319,241.093L811.411,241.083L811.504,241.074L811.596,241.065L811.689,241.057L811.781,241.049L811.874,241.042L811.967,241.035L812.06,241.029L812.16,241.023L812.253,241.018L812.345,241.014L812.439,241.01L812.532,241.007L812.625,241.005L812.719,241.003L812.812,241.001L812.906,241C812.937,241 812.969,241 813,241L813.093,241L813.186,241.001L813.279,241.003L813.303,241.003L813.332,241.004L813.371,241.005L813.403,241.005L813.43,241.006L813.464,241.007L813.504,241.008L813.556,241.01L813.604,241.012L813.648,241.014L813.678,241.015L813.704,241.016L813.74,241.018L813.775,241.02L813.804,241.021L813.832,241.023L813.872,241.025L813.904,241.027L813.924,241.028L814.003,241.033L814.015,241.034L814.105,241.04C814.137,241.042 814.168,241.045 814.199,241.047L814.289,241.055L814.301,241.056L814.38,241.063L814.4,241.065L814.471,241.071L814.499,241.074L814.533,241.078L814.561,241.081L814.597,241.084L814.652,241.09L814.695,241.095L814.742,241.1L814.793,241.106L814.832,241.111L814.891,241.118L814.922,241.122L814.989,241.131L815.087,241.144L815.107,241.147C818.386,241.61 821.322,243.137 823.544,245.383C823.674,245.51 823.801,245.639 823.927,245.771L831.283,241.618C832.692,240.822 834.479,241.287 835.321,242.67C836.183,244.132 836.914,245.68 837.477,247.308L837.5,247.371C838.481,250.063 839,252.972 839,256C839,258.378 838.68,260.681 838.074,262.868C837.855,263.657 837.211,265.442 837.156,265.57L839.78,267.119C841.213,263.696 842,259.939 842,256C842,252.412 841.347,248.974 840.122,245.815C839.541,244.257 838.83,242.763 837.998,241.349C837.587,240.658 837.472,239.83 837.679,239.053C837.886,238.277 838.397,237.616 839.097,237.221C842.214,235.447 847.231,232.615 850.291,230.888C850.989,230.493 851.816,230.395 852.587,230.615C853.358,230.834 854.009,231.354 854.395,232.056C855.484,234.04 856.784,236.408 856.784,236.408L858.348,240.388L858.64,241.186L859.606,244.707L859.945,246.023L860.511,249.518L860.73,250.954L861,256C861,256 860.772,260.501 860.772,260.501L860.719,261.12L860.098,265.185L859.907,266.122L858.972,269.757L858.52,271.142L857.731,273.297L857.292,274.419C857.292,274.419 856.384,276.473 856.197,276.81L858.787,278.339C862.145,271.609 864,264.019 864,256C864,248.482 862.37,241.341 859.399,234.932C859.399,234.932 858.071,232.516 856.974,230.521C856.182,229.08 856.697,227.271 858.128,226.463C861.44,224.593 867.147,221.372 870.443,219.511C871.869,218.705 873.677,219.192 874.506,220.604C874.879,221.235 875.229,221.827 875.425,222.169L876.903,225.051C881.45,234.404 884,244.906 884,256C884,267.732 881.148,278.804 876.083,288.549L878.67,290.076C883.998,279.883 887,268.289 887,256C887,244.372 884.312,233.368 879.517,223.576L878.063,220.739C877.866,220.397 877.53,219.825 877.168,219.215C876.762,218.521 876.651,217.693 876.86,216.917C877.07,216.141 877.582,215.481 878.282,215.086L885.215,211.172ZM812.952,249L812.904,249.001L812.856,249.001L812.808,249.003L812.76,249.004L812.712,249.006L812.664,249.008L812.616,249.01L812.568,249.013L812.514,249.017L812.469,249.02C811.629,249.084 810.83,249.298 810.105,249.646L810.063,249.666C808.168,250.531 806.734,252.224 806.213,254.281L806.197,254.345L806.183,254.403L806.169,254.464L806.156,254.525L806.143,254.587L806.131,254.649L806.119,254.711L806.107,254.774L806.096,254.837L806.086,254.9L806.076,254.963L806.067,255.026L806.059,255.09L806.051,255.154L806.043,255.218L806.036,255.282L806.03,255.346L806.024,255.411L806.019,255.476L806.015,255.541L806.011,255.606L806.008,255.671L806.005,255.737L806.003,255.802L806.001,255.868L806,255.934L806,256L806,256.066L806.001,256.131L806.002,256.156L806.003,256.197L806.004,256.223L806.005,256.263L806.006,256.289L806.008,256.33L806.009,256.354L806.012,256.419L806.016,256.483L806.021,256.548L806.023,256.574L806.026,256.612L806.029,256.64L806.032,256.676L806.035,256.705L806.039,256.74L806.042,256.769L806.049,256.833L806.057,256.894L806.065,256.955L806.074,257.017L806.079,257.056L806.083,257.079L806.089,257.119L806.092,257.138L806.1,257.182L806.102,257.194C806.46,259.271 807.736,261.033 809.508,262.032L809.532,262.047C809.698,262.148 809.868,262.241 810.043,262.327C810.199,262.399 810.358,262.465 810.52,262.525L810.556,262.54C811.215,262.805 811.928,262.958 812.671,262.992L812.685,262.993L812.76,262.996L812.833,262.998L812.851,262.998L812.907,262.999L812.928,263L813,263L813.048,263L813.096,262.999L813.144,262.999L813.192,262.997L813.24,262.996L813.288,262.994L813.336,262.992L813.384,262.99L813.432,262.987L813.486,262.983L813.531,262.98C814.371,262.916 815.17,262.702 815.895,262.354L815.937,262.334C817.832,261.469 819.266,259.776 819.787,257.719L819.803,257.655L819.817,257.597L819.831,257.536L819.844,257.475L819.857,257.413L819.869,257.351L819.881,257.289L819.893,257.226L819.904,257.163L819.914,257.1L819.924,257.037L819.933,256.974L819.941,256.91L819.949,256.846L819.957,256.782L819.964,256.718L819.97,256.654L819.976,256.589L819.981,256.524L819.985,256.459L819.989,256.394L819.992,256.329L819.995,256.263L819.997,256.198L819.999,256.132L820,256.066L820,256L820,255.934L819.999,255.869L819.998,255.844L819.997,255.803L819.996,255.777L819.995,255.737L819.994,255.711L819.992,255.67L819.991,255.646L819.988,255.581L819.984,255.517L819.979,255.452L819.977,255.426L819.974,255.388L819.971,255.36L819.968,255.324L819.965,255.295L819.961,255.26L819.958,255.231L819.951,255.167L819.943,255.106L819.935,255.045L819.926,254.983L819.921,254.944L819.917,254.921L819.911,254.881L819.908,254.862L819.9,254.818L819.898,254.806C819.54,252.729 818.264,250.967 816.492,249.968L816.468,249.953C816.302,249.852 816.132,249.759 815.957,249.673C815.801,249.601 815.642,249.535 815.48,249.475L815.444,249.46C814.785,249.195 814.072,249.042 813.329,249.008L813.315,249.007L813.24,249.004L813.167,249.002L813.149,249.002L813.093,249.001L813.072,249L813,249L812.952,249ZM781.172,226.805C780.133,226.192 779.443,225.124 779.311,223.924C779.18,222.724 779.622,221.532 780.504,220.708C789.044,212.816 800.464,208 813,208C825.651,208 837.165,212.904 845.722,220.931C846.608,221.769 847.044,222.978 846.896,224.188C846.748,225.399 846.034,226.467 844.972,227.067C844.979,227.08 844.978,227.08 844.978,227.081C843.342,228.003 841.298,227.762 839.923,226.484C832.839,219.961 823.379,216 813,216C802.732,216 793.363,219.877 786.297,226.263C784.894,227.546 782.818,227.762 781.18,226.795C781.173,226.806 781.173,226.806 781.172,226.805Z"
        />
      </g>
    </g>
  </g>
</svg>
