<?xml version="1.0" encoding="UTF-8" standalone="no"?>
<!DOCTYPE svg PUBLIC "-//W3C//DTD SVG 1.1//EN" "http://www.w3.org/Graphics/SVG/1.1/DTD/svg11.dtd">
<svg
  width="100%"
  height="100%"
  viewBox="0 0 513 512"
  version="1.1"
  xmlns="http://www.w3.org/2000/svg"
  xmlns:xlink="http://www.w3.org/1999/xlink"
  xml:space="preserve"
  xmlns:serif="http://www.serif.com/"
  style="
    fill-rule: evenodd;
    clip-rule: evenodd;
    stroke-linejoin: round;
    stroke-miterlimit: 2;
  "
>
  <g transform="matrix(1,0,0,1,-560,-1294)">
    <g id="Maintenance" transform="matrix(13.4737,0,0,16,48.8698,334)">
      <g transform="matrix(0.120445,0,0,0.101428,-399.332,55.0076)">
        <path
          style="fill: currentColor"
          d="M3796.49,208.919L3793.23,208.919L3765.37,208.927L3731.51,208.927L3714.58,238.25L3731.51,267.573L3765.37,267.573L3772.92,254.502L3787.35,279.502L3779.81,292.573L3717.08,292.573L3685.71,238.25L3717.08,183.927L3728.46,183.927L3728.46,183.919L3810.92,183.919L3805.06,194.065L3796.49,208.919ZM3779.56,211.306L3781.18,214.124L3795.12,238.25L3812.05,267.573L3845.91,267.573L3862.84,238.25L3845.91,208.927L3830.82,208.927L3845.25,183.927L3860.35,183.927L3891.71,238.25L3860.35,292.573L3797.62,292.573L3791.93,282.718L3791.92,282.722L3750.69,211.311L3762.41,211.311L3779.56,211.306ZM3790.09,224.775L3791.72,221.957L3805.64,197.823L3822.57,168.5L3805.64,139.177L3771.78,139.177L3754.85,168.5L3762.4,181.571L3733.53,181.571L3725.99,168.5L3757.35,114.177L3820.08,114.177L3851.44,168.5L3845.75,178.354L3845.76,178.359L3804.53,249.77L3798.67,239.624L3790.09,224.775Z"
        />
      </g>
    </g>
  </g>
</svg>
