<?xml version="1.0" encoding="UTF-8" standalone="no"?>
<!DOCTYPE svg PUBLIC "-//W3C//DTD SVG 1.1//EN" "http://www.w3.org/Graphics/SVG/1.1/DTD/svg11.dtd">
<svg
  width="100%"
  height="100%"
  viewBox="0 0 513 512"
  version="1.1"
  xmlns="http://www.w3.org/2000/svg"
  xmlns:xlink="http://www.w3.org/1999/xlink"
  xml:space="preserve"
  xmlns:serif="http://www.serif.com/"
  style="
    fill-rule: evenodd;
    clip-rule: evenodd;
    stroke-linejoin: round;
    stroke-miterlimit: 2;
  "
>
  <g transform="matrix(1,0,0,1,-560,-647)">
    <g id="Navigation" transform="matrix(13.4737,0,0,16,48.8698,-313)">
      <g transform="matrix(0.0742188,0,0,0.0625,-1.96518,19.3677)">
        <path
          style="fill: currentColor"
          d="M643.778,883.297C642.202,883.297 640.689,882.672 639.573,881.556L639.571,881.554C639.193,881.176 639.035,880.629 639.155,880.107C639.273,879.583 639.654,879.16 640.159,878.985C663.762,870.738 859.355,802.429 927.62,778.586C931.952,777.074 936.769,778.172 940.015,781.418C943.26,784.663 944.359,789.481 942.846,793.812C919.004,862.077 850.694,1057.67 842.448,1081.27C842.272,1081.78 841.85,1082.16 841.326,1082.28C840.804,1082.4 840.256,1082.24 839.878,1081.86C839.878,1081.86 839.876,1081.86 839.874,1081.86C838.75,1080.73 838.118,1079.2 838.116,1077.61C838.118,1056.32 838.118,905.34 838.118,905.34C838.114,893.249 828.166,883.302 816.076,883.297C816.076,883.297 664.992,883.297 643.778,883.297ZM801.942,1018.68L801.942,929.936C801.94,924.2 797.222,919.482 791.488,919.482L702.744,919.482C693.472,919.49 688.78,930.763 695.353,937.336L784.097,1026.08C790.71,1032.69 801.951,1027.91 801.942,1018.68Z"
        />
      </g>
    </g>
  </g>
</svg>
