<?xml version="1.0" encoding="UTF-8" standalone="no"?>
<!DOCTYPE svg PUBLIC "-//W3C//DTD SVG 1.1//EN" "http://www.w3.org/Graphics/SVG/1.1/DTD/svg11.dtd">
<svg
  width="100%"
  height="100%"
  viewBox="0 0 513 512"
  version="1.1"
  xmlns="http://www.w3.org/2000/svg"
  xmlns:xlink="http://www.w3.org/1999/xlink"
  xml:space="preserve"
  xmlns:serif="http://www.serif.com/"
  style="
    fill-rule: evenodd;
    clip-rule: evenodd;
    stroke-linejoin: round;
    stroke-miterlimit: 2;
  "
>
  <g transform="matrix(1,0,0,1,-1684,-647)">
    <g id="Operations" transform="matrix(13.4737,0,0,16,1172.37,-313)">
      <g transform="matrix(0.0742188,0,0,0.0625,-87.0118,19.5625)">
        <path
          style="fill: currentColor"
          d="M1978.09,809.604C2030.73,825.744 2069.04,874.758 2069.04,932.652C2069.04,942.331 2067.97,951.763 2065.94,960.834L2105.87,1029.57L2024.98,1029.57C2002.36,1049.34 1972.75,1061.33 1940.37,1061.33C1907.99,1061.33 1878.38,1049.34 1855.76,1029.57L1774.87,1029.57L1814.8,960.834C1812.77,951.763 1811.7,942.331 1811.7,932.652C1811.7,874.758 1850.01,825.744 1902.65,809.604L1940.37,744.674L1978.09,809.604ZM2002.9,1029.57L1877.84,1029.57C1895.86,1041.22 1917.33,1047.99 1940.37,1047.99C1963.41,1047.99 1984.88,1041.22 2002.9,1029.57ZM1831.36,1001.01L1814.72,1012.31L1839.34,1012.31C1836.49,1008.7 1833.82,1004.93 1831.36,1001.01ZM1866.44,977.215L1842.4,993.524C1846.62,1000.28 1851.51,1006.58 1856.99,1012.31L1907.09,1012.31C1890.11,1005.2 1875.88,992.818 1866.44,977.215ZM2014.29,977.215C2004.86,992.817 1990.63,1005.2 1973.65,1012.31L2023.75,1012.31C2029.23,1006.58 2034.12,1000.28 2038.34,993.524L2014.29,977.215ZM2049.38,1001.01C2046.92,1004.93 2044.25,1008.7 2041.4,1012.31L2066.02,1012.31L2049.38,1001.01ZM1973.79,949.737C1968.6,959.861 1958.94,967.324 1947.43,969.519L1947.43,1005.3C1971.21,1003.01 1991.67,989.297 2003.24,969.717L1973.79,949.737ZM1906.95,949.737L1877.5,969.717C1889.07,989.296 1909.53,1003.01 1933.31,1005.3L1933.31,969.519C1921.8,967.324 1912.14,959.86 1906.95,949.737ZM1821.91,982.943L1814.79,995.197L1824.49,988.617C1823.59,986.751 1822.73,984.86 1821.91,982.943ZM2058.83,982.943C2058.01,984.859 2057.15,986.751 2056.25,988.617L2065.95,995.197L2058.83,982.943ZM1854.21,927.338L1830.57,968.038C1832.01,972.499 1833.71,976.841 1835.66,981.042L1860.11,964.454C1856.2,954.611 1854.05,943.88 1854.05,932.652C1854.05,930.865 1854.11,929.091 1854.21,927.338ZM2026.53,927.338C2026.63,929.091 2026.69,930.865 2026.69,932.652C2026.69,943.88 2024.54,954.611 2020.63,964.454L2045.08,981.042C2047.03,976.838 2048.73,972.498 2050.17,968.038L2026.53,927.338ZM1933.31,860.005C1896.34,863.559 1867.38,894.751 1867.38,932.652C1867.38,941.094 1868.82,949.205 1871.46,956.749L1902.94,935.398C1902.87,934.492 1902.84,933.575 1902.84,932.652C1902.84,914.35 1915.97,899.091 1933.31,895.784L1933.31,860.005ZM1947.43,860.005L1947.43,895.784C1964.77,899.091 1977.9,914.35 1977.9,932.652C1977.9,933.575 1977.87,934.492 1977.8,935.398L2009.28,956.749C2011.92,949.205 2013.35,941.094 2013.35,932.652C2013.35,894.751 1984.4,863.559 1947.43,860.005ZM1892.01,827.925C1852.48,846.225 1825.03,886.258 1825.03,932.652C1825.03,935.968 1825.17,939.252 1825.45,942.504L1892.01,827.925ZM1988.73,827.925L2055.29,942.504C2055.57,939.252 2055.71,935.968 2055.71,932.652C2055.71,886.258 2028.26,846.225 1988.73,827.925ZM1947.43,817.525L1947.43,846.618C1962.2,847.817 1975.93,852.743 1987.67,860.454L1964.02,819.744C1958.62,818.615 1953.08,817.866 1947.43,817.525ZM1933.31,817.525C1927.66,817.866 1922.12,818.615 1916.72,819.744L1893.07,860.454C1904.8,852.743 1918.53,847.816 1933.31,846.618L1933.31,817.525ZM1933.31,804.168L1933.31,791.179L1925.37,804.844C1928,804.539 1930.64,804.313 1933.31,804.168ZM1955.37,804.844L1947.43,791.179L1947.43,804.168C1950.1,804.313 1952.75,804.539 1955.37,804.844Z"
        />
      </g>
    </g>
  </g>
</svg>
