<?xml version="1.0" encoding="UTF-8" standalone="no"?>
<!DOCTYPE svg PUBLIC "-//W3C//DTD SVG 1.1//EN" "http://www.w3.org/Graphics/SVG/1.1/DTD/svg11.dtd">
<svg
  width="100%"
  height="100%"
  viewBox="0 0 512 512"
  version="1.1"
  xmlns="http://www.w3.org/2000/svg"
  xmlns:xlink="http://www.w3.org/1999/xlink"
  xml:space="preserve"
  xmlns:serif="http://www.serif.com/"
  style="
    fill-rule: evenodd;
    clip-rule: evenodd;
    stroke-linejoin: round;
    stroke-miterlimit: 2;
  "
>
  <g transform="matrix(1,0,0,1,0,-1294)">
    <g id="Science" transform="matrix(13.4737,0,0,16,-512,334)">
      <g transform="matrix(0.122465,0,0,0.103128,-329.542,49.6395)">
        <path
          style="fill: currentColor"
          d="M3171.69,225.371C3174.82,225.88 3177.95,226.635 3181.07,227.646C3213.09,238.049 3230.89,271.715 3220.8,302.778C3210.7,333.841 3176.51,350.614 3144.49,340.21C3141.52,339.244 3138.67,338.076 3135.95,336.727C3167.54,333.729 3192.36,306.343 3192.36,273C3192.36,254.086 3184.37,237.088 3171.69,225.371ZM3188.62,263.38C3189.11,266.515 3189.36,269.728 3189.36,273C3189.36,306.667 3162.84,334 3130.18,334C3097.52,334 3071,306.667 3071,273C3071,269.872 3071.23,266.799 3071.67,263.794C3084.29,292.919 3118,308.056 3149.71,297.752C3167.7,291.907 3181.4,279.061 3188.62,263.38ZM3130.31,229.728C3131.76,226.908 3133.45,224.162 3135.37,221.514C3155.16,194.277 3192.68,187.751 3219.1,206.949C3245.53,226.147 3250.91,263.846 3231.12,291.083C3229.29,293.613 3227.3,295.965 3225.17,298.136C3232.08,267.159 3213.71,235.096 3181.99,224.793C3164.01,218.948 3145.37,221.289 3130.31,229.728ZM3157.71,291.229C3154.88,292.657 3151.9,293.888 3148.78,294.899C3116.76,305.303 3082.58,288.53 3072.48,257.467C3062.39,226.404 3080.19,192.738 3112.21,182.335C3115.18,181.368 3118.18,180.636 3121.17,180.128C3097.37,201.126 3093.39,237.868 3112.99,264.843C3124.11,280.145 3140.56,289.203 3157.71,291.229ZM3162.72,249.628C3165.29,250.784 3167.6,252.604 3169.37,255.044C3174.8,262.517 3173.14,272.992 3165.67,278.422C3163.23,280.194 3160.47,281.211 3157.67,281.518C3164.02,272.206 3165.89,260.446 3162.72,249.628ZM3162.76,262.327C3162.45,265.128 3161.43,267.887 3159.66,270.326C3154.23,277.799 3143.76,279.458 3136.28,274.029C3133.84,272.257 3132.02,269.947 3130.87,267.378C3141.68,270.541 3153.45,268.678 3162.76,262.327ZM3121.67,270.431C3119.43,268.179 3117.34,265.727 3115.42,263.079C3095.63,235.842 3101.02,198.143 3127.44,178.945C3153.87,159.747 3191.38,166.274 3211.17,193.511C3213.01,196.041 3214.63,198.662 3216.04,201.353C3188.72,185.205 3152.54,192.776 3132.94,219.751C3121.83,235.053 3118.3,253.498 3121.67,270.431ZM3150.69,266.283C3147.93,266.857 3144.99,266.742 3142.12,265.81C3133.34,262.956 3128.52,253.506 3131.38,244.72C3132.31,241.853 3133.95,239.408 3136.03,237.515C3136.37,248.781 3141.77,259.39 3150.69,266.283ZM3150.64,245.735C3152.53,243.649 3154.97,242.015 3157.84,241.083C3166.63,238.228 3176.08,243.043 3178.93,251.829C3179.86,254.696 3179.98,257.635 3179.4,260.393C3172.51,251.475 3161.9,246.069 3150.64,245.735ZM3143.2,256.028C3141.8,253.582 3141,250.752 3141,247.737C3141,238.5 3148.5,231 3157.74,231C3160.75,231 3163.58,231.799 3166.03,233.197C3155.42,236.998 3147,245.417 3143.2,256.028Z"
        />
      </g>
    </g>
  </g>
</svg>
