<?xml version="1.0" encoding="UTF-8" standalone="no"?>
<!DOCTYPE svg PUBLIC "-//W3C//DTD SVG 1.1//EN" "http://www.w3.org/Graphics/SVG/1.1/DTD/svg11.dtd">
<svg
  width="100%"
  height="100%"
  viewBox="0 0 513 512"
  version="1.1"
  xmlns="http://www.w3.org/2000/svg"
  xmlns:xlink="http://www.w3.org/1999/xlink"
  xml:space="preserve"
  xmlns:serif="http://www.serif.com/"
  style="
    fill-rule: evenodd;
    clip-rule: evenodd;
    stroke-linejoin: round;
    stroke-miterlimit: 2;
  "
>
  <g transform="matrix(1,0,0,1,-1122,-647)">
    <g id="Security" transform="matrix(13.4737,0,0,16,610.37,-313)">
      <g transform="matrix(0.126592,0,0,0.106604,-580.263,50.7882)">
        <path
          style="fill: currentColor"
          d="M5114.44,184.687C5104.85,184.687 5095.66,180.881 5088.89,174.105C5082.11,167.329 5072.31,158.14 5072.31,148.557C5045.86,148.557 5021.12,148.557 4994.68,148.557C4994.68,158.14 4985.87,167.329 4979.1,174.105C4972.32,180.881 4963.13,184.687 4953.55,184.687C4953.55,306.161 5033.99,324.443 5033.99,324.443C5033.99,324.443 5114.44,306.161 5114.44,184.687ZM5033.99,167.557L5008.05,167.557C5003.91,175.06 4998.06,182.012 4992.53,187.54C4986.96,193.117 4980.31,197.375 4973.07,200.113C4973.79,210.743 4975.24,220.337 4977.25,229L5033.99,229L5033.99,304.417C5045.69,299.635 5078.49,281.806 5090.73,229L5033.99,229L5033.99,167.557Z"
        />
      </g>
    </g>
  </g>
</svg>
