<?xml version="1.0" encoding="UTF-8" standalone="no"?>
<!DOCTYPE svg PUBLIC "-//W3C//DTD SVG 1.1//EN" "http://www.w3.org/Graphics/SVG/1.1/DTD/svg11.dtd">
<svg
  width="100%"
  height="100%"
  viewBox="0 0 512 512"
  version="1.1"
  xmlns="http://www.w3.org/2000/svg"
  xmlns:xlink="http://www.w3.org/1999/xlink"
  xml:space="preserve"
  xmlns:serif="http://www.serif.com/"
  style="
    fill-rule: evenodd;
    clip-rule: evenodd;
    stroke-linejoin: round;
    stroke-miterlimit: 2;
  "
>
  <g transform="matrix(1,0,0,1,0,-647)">
    <g id="Sensors" transform="matrix(13.4737,0,0,16,-512,-313)">
      <g transform="matrix(0.273087,0,0,0.229968,-1426.68,61.2821)">
        <path
          style="fill: currentColor"
          d="M5406,35.872C5413.01,29.14 5422.52,25 5433,25C5454.53,25 5472,42.475 5472,64C5472,74.477 5467.86,83.994 5461.13,91.004L5465.15,98.77L5457.27,94.52C5450.61,99.827 5442.17,103 5433,103C5411.48,103 5394,85.525 5394,64C5394,54.828 5397.17,46.392 5402.48,39.73L5398.44,35.694L5402.13,32.006L5406,35.872ZM5403.61,40.857C5399.54,46.234 5397.12,52.931 5397.12,60.189C5397.12,77.888 5411.49,92.258 5429.19,92.258C5436.45,92.258 5443.14,89.842 5448.52,85.771L5435.91,73.158C5432.68,75.239 5428.83,76.447 5424.7,76.447C5413.25,76.447 5403.96,67.151 5403.96,55.702C5403.96,51.575 5405.16,47.728 5407.25,44.496L5403.61,40.857ZM5452.42,82.291C5457.89,76.537 5461.26,68.753 5461.26,60.189C5461.26,42.49 5446.89,28.12 5429.19,28.12C5420.62,28.12 5412.84,31.484 5407.09,36.962L5410.61,40.485C5414.31,37.055 5419.26,34.957 5424.7,34.957C5436.15,34.957 5445.45,44.253 5445.45,55.702C5445.45,61.141 5443.35,66.094 5439.92,69.795L5452.42,82.291ZM5407.9,45.15C5406.45,47.659 5405.62,50.571 5405.62,53.675C5405.62,63.09 5413.26,70.733 5422.68,70.733C5425.78,70.733 5428.69,69.902 5431.2,68.45L5407.9,45.15ZM5435.28,65.159C5438.05,62.127 5439.73,58.096 5439.73,53.675C5439.73,44.26 5432.09,36.617 5422.68,36.617C5418.25,36.617 5414.22,38.303 5411.19,41.066L5435.28,65.159Z"
        />
      </g>
    </g>
  </g>
</svg>
