<?xml version="1.0" encoding="UTF-8" standalone="no"?>
<!DOCTYPE svg PUBLIC "-//W3C//DTD SVG 1.1//EN" "http://www.w3.org/Graphics/SVG/1.1/DTD/svg11.dtd">
<svg
  width="100%"
  height="100%"
  viewBox="0 0 513 512"
  version="1.1"
  xmlns="http://www.w3.org/2000/svg"
  xmlns:xlink="http://www.w3.org/1999/xlink"
  xml:space="preserve"
  xmlns:serif="http://www.serif.com/"
  style="
    fill-rule: evenodd;
    clip-rule: evenodd;
    stroke-linejoin: round;
    stroke-miterlimit: 2;
  "
>
  <g transform="matrix(1,0,0,1,-1122,-1294)">
    <g id="Tactical" transform="matrix(13.4737,0,0,16,610.37,334)">
      <g transform="matrix(0.0959725,0,0,0.080819,-364.703,55.2977)">
        <path
          style="fill: currentColor"
          d="M4402,157.007C4450.82,160.88 4489.81,199.873 4493.68,248.691L4510,248.691L4510,264.691L4493.68,264.691C4489.81,313.509 4450.82,352.503 4402,356.375L4402,372.691L4386,372.691L4386,356.375C4337.18,352.502 4298.19,313.509 4294.32,264.691L4278,264.691L4278,248.691L4294.32,248.691C4298.19,199.873 4337.18,160.879 4386,157.007L4386,140.691L4402,140.691L4402,157.007ZM4386,340.314L4386,264.691L4310.38,264.691C4314.16,304.672 4346.02,336.529 4386,340.314ZM4477.62,264.691L4402,264.691L4402,340.314C4441.98,336.529 4473.84,304.672 4477.62,264.691ZM4382,268.691L4382,335.795C4347.44,330.586 4320.11,303.246 4314.9,268.691L4382,268.691ZM4473.1,268.691C4467.9,303.246 4440.56,330.586 4406,335.795L4406,268.691L4473.1,268.691ZM4378,331.001L4378,272.691L4319.69,272.691C4325.94,301.808 4348.89,324.752 4378,331.001ZM4386,173.068C4346.02,176.852 4314.16,208.71 4310.38,248.691L4386,248.691L4386,173.068ZM4402,173.068L4402,248.691L4477.62,248.691C4473.84,208.71 4441.98,176.853 4402,173.068ZM4382,244.691L4314.9,244.691C4320.11,210.136 4347.44,182.796 4382,177.587L4382,244.691ZM4406,177.587C4440.56,182.796 4467.9,210.136 4473.1,244.691L4406,244.691L4406,177.587ZM4410,182.381L4410,240.691L4468.31,240.691C4462.06,211.573 4439.11,188.63 4410,182.381Z"
        />
      </g>
    </g>
  </g>
</svg>
