<svg viewBox="0 0 512 512" xmlns="http://www.w3.org/2000/svg" xml:space="preserve" fill-rule="evenodd" clip-rule="evenodd" stroke-linejoin="round" stroke-miterlimit="2"><path d="M192 297c1 17 4 34 9 50-40 30-67 76-74 128a24 24 0 0 1-46-6c9-73 51-136 111-172Zm77-30a236 236 0 0 1 278 202 24 24 0 0 1-46 6 188 188 0 0 0-229-161 174 174 0 0 1-3-47Z" fill="url(#a)" transform="translate(-88 -71) scale(1.09624)"/><path d="M366 333c16 5 30 12 43 20A235 235 0 0 1 95 494a24 24 0 0 1 18-44 188 188 0 0 0 253-117Zm7-78c-6-51-32-97-73-128a24 24 0 0 1 28-38c57 43 92 110 94 183-16-7-32-13-49-17Z" fill="url(#b)" transform="translate(-88 -71) scale(1.09624)"/><path d="M367 450c23 10 48 15 74 15 47 0 72-14 74-15a24 24 0 0 1 18 44c-2 1-34 18-92 18-41 0-79-10-113-29 14-9 27-21 39-33Zm-103-18a234 234 0 0 1 36-343 24 24 0 0 1 28 38 188 188 0 0 0-25 278c-11 11-24 20-39 27Z" fill="url(#c)" transform="translate(-88 -71) scale(1.09624)"/><defs><linearGradient id="a" x1="0" y1="0" x2="1" y2="0" gradientUnits="userSpaceOnUse" gradientTransform="rotate(38 -139 179) scale(591.526)"><stop offset="0" stop-color="#f94cc3"/><stop offset="1" stop-color="#4800af"/></linearGradient><linearGradient id="b" x1="0" y1="0" x2="1" y2="0" gradientUnits="userSpaceOnUse" gradientTransform="rotate(38 -139 179) scale(591.526)"><stop offset="0" stop-color="#f94cc3"/><stop offset="1" stop-color="#4800af"/></linearGradient><linearGradient id="c" x1="0" y1="0" x2="1" y2="0" gradientUnits="userSpaceOnUse" gradientTransform="rotate(38 -139 179) scale(591.526)"><stop offset="0" stop-color="#f94cc3"/><stop offset="1" stop-color="#4800af"/></linearGradient></defs></svg>