<?xml version="1.0" encoding="UTF-8" standalone="no"?>
<!DOCTYPE svg PUBLIC "-//W3C//DTD SVG 1.1//EN" "http://www.w3.org/Graphics/SVG/1.1/DTD/svg11.dtd">
<svg
  width="100%"
  height="100%"
  viewBox="0 0 512 512"
  version="1.1"
  xmlns="http://www.w3.org/2000/svg"
  xmlns:xlink="http://www.w3.org/1999/xlink"
  xml:space="preserve"
  xmlns:serif="http://www.serif.com/"
  style="
    fill-rule: evenodd;
    clip-rule: evenodd;
    stroke-linejoin: round;
    stroke-miterlimit: 2;
  "
>
  <g
    id="Big-Gap"
    serif:id="Big Gap"
    transform="matrix(0.115105,0,0,-0.115105,-101.374,770.683)"
  >
    <g transform="matrix(9.52381,0,0,-9.52381,114.286,7314.29)">
      <path
        d="M191.995,296.773C193.34,314.158 196.463,331.042 201.181,347.244C161.25,377.221 133.637,422.725 127.306,474.795C125.741,487.671 114.017,496.853 101.142,495.287C88.266,493.722 79.084,481.998 80.65,469.123C89.534,396.053 131.931,333.314 191.995,296.773ZM268.536,267.063C283.238,264.181 298.436,262.671 313.987,262.671C434.116,262.671 533.206,352.799 547.35,469.111C548.916,481.986 539.734,493.71 526.859,495.276C513.984,496.841 502.26,487.66 500.694,474.785C489.379,381.74 410.085,309.671 313.987,309.671C299.635,309.671 285.659,311.278 272.23,314.323C269.617,302.364 268.24,289.945 268.24,277.205C268.24,273.807 268.34,270.424 268.536,267.063Z"
        style="fill: url(#_Linear1)"
      />
    </g>
    <g transform="matrix(9.52381,0,0,-9.52381,114.286,7314.29)">
      <path
        d="M366.397,332.746C381.689,337.597 396.06,344.514 409.187,353.172C377.592,445.73 289.897,512.282 186.657,512.282C154.932,512.282 123.705,505.863 94.795,493.591C82.856,488.522 77.278,474.715 82.346,462.776C87.415,450.837 101.222,445.259 113.161,450.328C136.291,460.147 161.275,465.282 186.657,465.282C252.992,465.282 311.305,430.94 344.789,379.066C353.979,364.829 361.298,349.271 366.397,332.746ZM373.395,254.772C367.283,203.775 340.538,157.647 299.84,126.988C289.481,119.184 287.406,104.438 295.21,94.079C303.014,83.719 317.76,81.644 328.12,89.448C384.996,132.293 420.072,199.309 421.676,271.987C406.377,264.675 390.219,258.872 373.395,254.772Z"
        style="fill: url(#_Linear2)"
      />
    </g>
    <g transform="matrix(9.52381,0,0,-9.52381,114.286,7314.29)">
      <path
        d="M367.283,450.15C390.002,459.889 415.03,465.282 441.317,465.282C487.638,465.282 512.847,451.162 514.836,450.317C526.774,445.248 540.583,450.824 545.652,462.762C550.722,474.7 545.146,488.508 533.208,493.578C530.722,494.634 499.213,512.282 441.317,512.282C400.333,512.282 361.798,501.794 328.254,483.356C342.382,473.633 355.46,462.495 367.283,450.15ZM264.324,431.918C228.156,390.575 206.24,336.45 206.24,277.205C206.24,202.521 241.608,133.316 299.84,89.448C310.2,81.644 324.946,83.719 332.75,94.078C340.554,104.438 338.479,119.184 328.12,126.988C281.532,162.084 253.24,217.454 253.24,277.205C253.24,326.56 272.251,371.475 303.35,405.027C291.691,415.677 278.569,424.753 264.324,431.918Z"
        style="fill: url(#_Linear3)"
      />
    </g>
  </g>
  <defs>
    <linearGradient
      id="_Linear1"
      x1="0"
      y1="0"
      x2="1"
      y2="0"
      gradientUnits="userSpaceOnUse"
      gradientTransform="matrix(467.048,363,-363,467.048,80.4759,123)"
    >
      <stop offset="0" style="stop-color: rgb(249, 76, 195); stop-opacity: 1" />
      <stop offset="1" style="stop-color: rgb(72, 0, 175); stop-opacity: 1" />
    </linearGradient>
    <linearGradient
      id="_Linear2"
      x1="0"
      y1="0"
      x2="1"
      y2="0"
      gradientUnits="userSpaceOnUse"
      gradientTransform="matrix(467.048,363,-363,467.048,80.4759,123)"
    >
      <stop offset="0" style="stop-color: rgb(249, 76, 195); stop-opacity: 1" />
      <stop offset="1" style="stop-color: rgb(72, 0, 175); stop-opacity: 1" />
    </linearGradient>
    <linearGradient
      id="_Linear3"
      x1="0"
      y1="0"
      x2="1"
      y2="0"
      gradientUnits="userSpaceOnUse"
      gradientTransform="matrix(467.048,363,-363,467.048,80.4759,123)"
    >
      <stop offset="0" style="stop-color: rgb(249, 76, 195); stop-opacity: 1" />
      <stop offset="1" style="stop-color: rgb(72, 0, 175); stop-opacity: 1" />
    </linearGradient>
  </defs>
</svg>
