<svg xmlns="http://www.w3.org/2000/svg" xml:space="preserve" style="fill-rule:evenodd;clip-rule:evenodd;stroke-linejoin:round;stroke-miterlimit:2" viewBox="0 0 24 24"><path d="M80.494 472.898c-.058-1.42.012-2.855.219-4.288 9.019-72.85 51.359-135.381 111.282-171.837a249 249 0 0 0 9.186 50.471c-35.226 26.445-60.866 64.973-70.765 109.433a188 188 0 0 0 56.241 8.605c66.335 0 124.648-34.342 158.132-86.216a187.2 187.2 0 0 0 21.608-46.32 172.4 172.4 0 0 1 42.79 20.426c-31.595 92.558-119.29 159.11-222.53 159.11a235.1 235.1 0 0 1-91.44-18.512 23.4 23.4 0 0 1-3.534-1.78 23.4 23.4 0 0 1-8.024-8.229 23.4 23.4 0 0 1-3.165-10.863m417.207-15.7c-18.537-84.385-93.764-147.527-183.714-147.527a188.7 188.7 0 0 0-41.757 4.652 173.7 173.7 0 0 1-3.99-37.118q.001-5.099.296-10.142a236 236 0 0 1 45.451-4.392c119.965 0 218.948 89.881 233.304 205.963.192 1.343.265 2.689.223 4.022a23.4 23.4 0 0 1-3.167 11.081 23.4 23.4 0 0 1-7.939 8.185 23.4 23.4 0 0 1-3.368 1.732c-3.495 1.628-34.9 18.628-91.723 18.628-40.984 0-79.519-10.488-113.063-28.926a251.4 251.4 0 0 0 39.029-33.206c22.719 9.739 47.747 15.132 74.034 15.132 25.111 0 44.018-4.15 56.384-8.084M313.98 138.77c-38.11 35.061-60.74 84.996-60.74 138.435 0 49.355 19.011 94.27 50.11 127.822a173.5 173.5 0 0 1-39.026 26.891c-36.168-41.343-58.084-95.468-58.084-154.713 0-74.529 35.221-143.602 93.238-187.483a23 23 0 0 1 3.227-2.126 23.4 23.4 0 0 1 11.311-2.875c3.788.002 7.6.916 11.083 2.791a23.3 23.3 0 0 1 3.404 2.225c56.65 42.857 91.573 109.735 93.173 182.25a248.2 248.2 0 0 0-48.281-17.215c-5.373-44.83-26.69-85.898-59.415-116.002" fill="currentColor" transform="translate(-3.294 -2.539)scale(.0487)"/></svg>