<?xml version="1.0" encoding="UTF-8" standalone="no"?>
<!DOCTYPE svg PUBLIC "-//W3C//DTD SVG 1.1//EN" "http://www.w3.org/Graphics/SVG/1.1/DTD/svg11.dtd">
<svg width="100%" height="100%" viewBox="0 0 200 200" version="1.1" xmlns="http://www.w3.org/2000/svg" xmlns:xlink="http://www.w3.org/1999/xlink" xml:space="preserve" xmlns:serif="http://www.serif.com/" style="fill-rule:evenodd;clip-rule:evenodd;stroke-linejoin:round;stroke-miterlimit:1.41421;">
    <g transform="matrix(1,0,0,1,-8,-8.04935)">
        <path d="M119.605,204.697L96.522,204.697L108.063,142.002L119.605,204.697ZM36.079,117.033C40.145,149.891 66.222,175.968 99.08,180.034L96.59,190.865C59.601,185.807 30.285,156.513 25.195,119.535L36.079,117.033ZM180.048,117.033L190.809,119.507C185.735,156.457 156.473,185.741 119.533,190.848L117.047,180.034C149.905,175.968 175.982,149.891 180.048,117.033ZM74.047,108.113L11.352,119.654L11.352,96.571L74.047,108.113ZM141.953,107.986L204.648,96.444L204.648,119.528L141.953,107.986ZM108.063,100.548C112.203,100.548 115.565,103.909 115.565,108.049C115.565,112.19 112.203,115.551 108.063,115.551C103.923,115.551 100.562,112.19 100.562,108.049C100.562,103.909 103.923,100.548 108.063,100.548ZM96.59,25.234L99.08,36.065C66.222,40.131 40.145,66.208 36.079,99.066L25.195,96.564C30.285,59.586 59.601,30.291 96.59,25.234ZM119.533,25.251C156.473,30.358 185.735,59.642 190.809,96.592L180.048,99.066C175.982,66.208 149.905,40.131 117.047,36.065L119.533,25.251ZM107.937,74.096L96.395,11.401L119.478,11.401L107.937,74.096Z" style="fill:rgb(255,0,0);"/>
    </g>
</svg>
