<?xml version="1.0" encoding="UTF-8" standalone="no"?>
<!DOCTYPE svg PUBLIC "-//W3C//DTD SVG 1.1//EN" "http://www.w3.org/Graphics/SVG/1.1/DTD/svg11.dtd">
<svg width="100%" height="100%" viewBox="0 0 64 64" version="1.1" xmlns="http://www.w3.org/2000/svg" xmlns:xlink="http://www.w3.org/1999/xlink" xml:space="preserve" xmlns:serif="http://www.serif.com/" style="fill-rule:evenodd;clip-rule:evenodd;stroke-linejoin:round;stroke-miterlimit:2;">
    <g transform="matrix(1,0,0,1,-528,0)">
        <g transform="matrix(0.984615,0,0,0.984615,110.251,-524.59)">
            <path d="M438.117,558.771C437.246,561.013 436.768,563.451 436.768,566C436.768,576.48 444.846,585.088 455.11,585.932L455.11,597.787L427.443,582.488L427.443,552.819L438.117,558.771ZM475.449,558.846L486.11,552.952L486.11,582.488L458.443,597.787L458.443,585.931C468.699,585.079 476.768,576.474 476.768,566C476.768,563.48 476.301,561.068 475.449,558.846ZM455.11,568.248L455.11,582.821C446.558,581.987 439.867,574.769 439.867,566C439.867,563.999 440.215,562.079 440.854,560.298L455.11,568.248ZM472.706,560.363C473.33,562.125 473.67,564.023 473.67,566C473.67,574.763 466.987,581.978 458.443,582.82L458.443,568.248L472.706,560.363ZM442.529,556.896C445.534,552.208 450.791,549.098 456.768,549.098C462.775,549.098 468.054,552.238 471.052,556.965L456.79,564.573L442.529,556.896ZM439.794,555.424L427.454,548.781L456.776,532.787L486.083,548.947L473.792,555.503C470.266,549.801 463.958,546 456.768,546C449.612,546 443.329,549.767 439.794,555.424Z" style="fill:white;fill-rule:nonzero;"/>
        </g>
        <g id="Layer1">
        </g>
        <g id="Layer11" serif:id="Layer1">
        </g>
    </g>
</svg>
