<?xml version="1.0" encoding="UTF-8" standalone="no"?>
<!DOCTYPE svg PUBLIC "-//W3C//DTD SVG 1.1//EN" "http://www.w3.org/Graphics/SVG/1.1/DTD/svg11.dtd">
<svg width="100%" height="100%" viewBox="0 0 64 64" version="1.1" xmlns="http://www.w3.org/2000/svg" xmlns:xlink="http://www.w3.org/1999/xlink" xml:space="preserve" xmlns:serif="http://www.serif.com/" style="fill-rule:evenodd;clip-rule:evenodd;stroke-linejoin:round;stroke-miterlimit:2;">
    <g transform="matrix(1,0,0,1,-594,0)">
        <g transform="matrix(1.77778,0,0,1.77778,-51.3333,-90.6667)">
            <path d="M384.512,51.346C382.193,50.885 379.807,50.885 377.488,51.346C377.776,52.791 377.467,54.094 376.562,55.256C375.825,55.494 375.109,55.791 374.42,56.144C372.958,55.962 371.818,55.258 371,54.034C369.034,55.347 367.347,57.034 366.034,59C367.258,59.818 367.962,60.958 368.144,62.42C367.791,63.109 367.494,63.825 367.256,64.562C366.094,65.467 364.791,65.776 363.346,65.488C362.885,67.807 362.885,70.193 363.346,72.512C364.791,72.224 366.094,72.533 367.256,73.438C367.494,74.175 367.791,74.891 368.144,75.58C367.962,77.042 367.258,78.182 366.034,79C367.347,80.966 369.034,82.653 371,83.966C371.818,82.742 372.958,82.038 374.42,81.856C375.109,82.209 375.825,82.506 376.562,82.744C377.467,83.906 377.776,85.209 377.488,86.654C379.807,87.115 382.193,87.115 384.512,86.654C384.224,85.209 384.533,83.906 385.438,82.744C386.175,82.506 386.891,82.209 387.58,81.856C389.042,82.038 390.182,82.742 391,83.966C392.966,82.653 394.653,80.966 395.966,79C394.742,78.182 394.038,77.042 393.856,75.58C394.209,74.891 394.506,74.175 394.744,73.438C395.906,72.533 397.209,72.224 398.654,72.512C399.115,70.193 399.115,67.807 398.654,65.488C397.209,65.776 395.906,65.467 394.744,64.562C394.506,63.825 394.209,63.109 393.856,62.42C394.038,60.958 394.742,59.818 395.966,59C394.653,57.034 392.966,55.347 391,54.034C390.182,55.258 389.042,55.962 387.58,56.144C386.891,55.791 386.175,55.494 385.438,55.256C384.533,54.094 384.224,52.791 384.512,51.346ZM381,62.999C384.312,62.999 387.001,65.688 387.001,69C387.001,72.312 384.312,75.001 381,75.001C377.688,75.001 374.999,72.312 374.999,69C374.999,65.688 377.688,62.999 381,62.999Z" style="fill:white;"/>
        </g>
        <g id="Layer1">
        </g>
        <g id="Layer11" serif:id="Layer1">
        </g>
    </g>
</svg>
