<?xml version="1.0" encoding="UTF-8" standalone="no"?>
<!DOCTYPE svg PUBLIC "-//W3C//DTD SVG 1.1//EN" "http://www.w3.org/Graphics/SVG/1.1/DTD/svg11.dtd">
<svg
  width="100%"
  height="100%"
  viewBox="0 0 32 32"
  version="1.1"
  xmlns="http://www.w3.org/2000/svg"
  xmlns:xlink="http://www.w3.org/1999/xlink"
  xml:space="preserve"
  style="
    fill-rule: evenodd;
    clip-rule: evenodd;
    stroke-linejoin: round;
    stroke-miterlimit: 1.41421;
  "
>
  <g transform="matrix(1.03226,0,0,1.06667,-1.03226,-5.92119e-17)">
    <path
      d="M16,4.012L16,0L17,0L17,4.012C17.338,4.028 17.671,4.059 18,4.107L18,2L19,2L19,4.3C22.788,5.227 25.773,8.212 26.7,12L29,12L29,13L27,13L26.893,13C26.941,13.329 26.972,13.662 26.988,14L32,14L32,15L26.988,15C26.972,15.338 26.941,15.671 26.893,16L29,16L29,17L26.7,17C25.773,20.788 22.788,23.773 19,24.7L19,27L18,27L18,24.893C17.671,24.941 17.338,24.972 17,24.988L17,30L16,30L16,24.988C15.662,24.972 15.329,24.941 15,24.893L15,27L14,27L14,24.7C10.212,23.773 7.227,20.788 6.3,17L4,17L4,16L6.107,16C6.059,15.671 6.028,15.338 6.012,15L1,15L1,14L6.012,14C6.028,13.662 6.059,13.329 6.107,13L4,13L4,12L6.3,12C7.227,8.212 10.212,5.227 14,4.3L14,2L15,2L15,4.107C15.329,4.059 15.662,4.028 16,4.012ZM25.987,15L17,15L17,23.987C17.338,23.969 17.672,23.934 18,23.882L18,16L25.882,16C25.934,15.672 25.969,15.338 25.987,15ZM16,23.987L16,15L7.013,15C7.031,15.338 7.066,15.672 7.118,16L15,16L15,23.882C15.328,23.934 15.662,23.969 16,23.987ZM25.667,17L19,17L19,23.667C22.235,22.786 24.786,20.235 25.667,17ZM16,5.013C15.662,5.031 15.328,5.066 15,5.118L15,13L7.118,13C7.066,13.328 7.031,13.662 7.013,14L16,14L16,5.013ZM17,5.013L17,14L25.987,14C25.969,13.662 25.934,13.328 25.882,13L18,13L18,5.118C17.672,5.066 17.338,5.031 17,5.013ZM14,5.333C10.765,6.214 8.214,8.765 7.333,12L14,12L14,5.333Z"
      style="fill: #ffffff"
    />
  </g>
</svg>
