<?xml version="1.0" encoding="UTF-8" standalone="no"?>
<!DOCTYPE svg PUBLIC "-//W3C//DTD SVG 1.1//EN" "http://www.w3.org/Graphics/SVG/1.1/DTD/svg11.dtd">
<svg width="100%" height="100%" viewBox="0 0 64 64" version="1.1" xmlns="http://www.w3.org/2000/svg" xmlns:xlink="http://www.w3.org/1999/xlink" xml:space="preserve" xmlns:serif="http://www.serif.com/" style="fill-rule:evenodd;clip-rule:evenodd;stroke-linejoin:round;stroke-miterlimit:2;">
    <g transform="matrix(1,0,0,1,-1452,0)">
        <g transform="matrix(1.33333,0,0,1.33333,435.019,-841.333)">
            <path d="M783.773,634.067C783.773,634.045 783.772,634.022 783.772,634C783.772,632.344 785.117,631 786.772,631C788.428,631 789.772,632.344 789.772,634C789.772,634.022 789.772,634.045 789.772,634.067L803.256,641.852C803.693,641.604 804.198,641.462 804.736,641.462C806.391,641.462 807.736,642.806 807.736,644.462C807.736,645.502 807.205,646.419 806.4,646.957L806.4,662.967C807.205,663.505 807.736,664.422 807.736,665.462C807.736,667.118 806.391,668.462 804.736,668.462C804.225,668.462 803.744,668.334 803.323,668.109L789.772,675.933C789.772,675.955 789.772,675.978 789.772,676C789.772,677.656 788.428,679 786.772,679C785.117,679 783.772,677.656 783.772,676C783.772,675.978 783.773,675.955 783.773,675.933L770.186,668.088C769.756,668.327 769.261,668.462 768.736,668.462C767.08,668.462 765.736,667.118 765.736,665.462C765.736,664.391 766.298,663.45 767.144,662.919L767.144,647.005C766.298,646.475 765.736,645.534 765.736,644.462C765.736,642.806 767.08,641.462 768.736,641.462C769.289,641.462 769.807,641.612 770.252,641.873L783.773,634.067ZM788.564,636.406C788.064,636.779 787.444,637 786.772,637C786.101,637 785.481,636.779 784.981,636.406L771.71,644.068C771.727,644.197 771.736,644.329 771.736,644.462C771.736,645.753 770.919,646.854 769.774,647.277L769.774,662.647C770.919,663.07 771.736,664.171 771.736,665.462C771.736,665.62 771.723,665.775 771.7,665.926L784.981,673.594C785.481,673.221 786.101,673 786.772,673C787.444,673 788.064,673.221 788.564,673.594L801.778,665.965C801.75,665.802 801.736,665.633 801.736,665.462C801.736,664.144 802.588,663.023 803.771,662.621L803.771,647.303C802.588,646.901 801.736,645.78 801.736,644.462C801.736,644.315 801.746,644.17 801.767,644.029L788.564,636.406ZM785.922,655.854L771.736,647.942L771.736,663.155L785.922,671L785.922,655.854ZM787.631,655.854L787.631,671L801.817,663.155L801.817,648.011L787.631,655.854ZM771.741,645.872L786.776,637.671L801.804,645.957L786.783,653.97L771.741,645.872Z" style="fill:white;fill-rule:nonzero;"/>
        </g>
        <g id="Layer1">
        </g>
        <g id="Layer11" serif:id="Layer1">
        </g>
    </g>
</svg>
