<?xml version="1.0" encoding="UTF-8" standalone="no"?>
<!DOCTYPE svg PUBLIC "-//W3C//DTD SVG 1.1//EN" "http://www.w3.org/Graphics/SVG/1.1/DTD/svg11.dtd">
<svg width="100%" height="100%" viewBox="0 0 64 64" version="1.1" xmlns="http://www.w3.org/2000/svg" xmlns:xlink="http://www.w3.org/1999/xlink" xml:space="preserve" xmlns:serif="http://www.serif.com/" style="fill-rule:evenodd;clip-rule:evenodd;stroke-linejoin:round;stroke-miterlimit:2;">
    <g transform="matrix(1,0,0,1,-198,0)">
        <g transform="matrix(0.981943,0,0,0.981943,-175.542,-620.501)">
            <path d="M396,661L411.588,670L411.588,688L396,697L380.412,688L380.412,670L396,661ZM430,661L445.588,670L445.588,688L430,697L414.412,688L414.412,670L430,661ZM396,668L405.526,673.5L405.526,684.5L396,690L386.474,684.5L386.474,673.5L396,668ZM430,668L439.526,673.5L439.526,684.5L430,690L420.474,684.5L420.474,673.5L430,668ZM396,673L401.196,676L401.196,682L396,685L390.804,682L390.804,676L396,673ZM430,673L435.196,676L435.196,682L430,685L424.804,682L424.804,676L430,673ZM413,632L428.588,641L428.588,659L413,668L397.412,659L397.412,641L413,632ZM413,639L422.526,644.5L422.526,655.5L413,661L403.474,655.5L403.474,644.5L413,639ZM413,644L418.196,647L418.196,653L413,656L407.804,653L407.804,647L413,644Z" style="fill:white;"/>
        </g>
        <g id="Layer1">
        </g>
        <g id="Layer11" serif:id="Layer1">
        </g>
    </g>
</svg>
