<?xml version="1.0" encoding="utf-8"?>
<!-- Generator: Adobe Illustrator 14.0.0, SVG Export Plug-In . SVG Version: 6.00 Build 43363)  -->
<!DOCTYPE svg PUBLIC "-//W3C//DTD SVG 1.1//EN" "http://www.w3.org/Graphics/SVG/1.1/DTD/svg11.dtd">
<svg
  version="1.1"
  xmlns="http://www.w3.org/2000/svg"
  xmlns:xlink="http://www.w3.org/1999/xlink"
  x="0px"
  y="0px"
  width="512px"
  height="512px"
  viewBox="0 0 512 512"
  enable-background="new 0 0 512 512"
  xml:space="preserve"
>
  <g id="Layer_1">
    <g></g>
    <g></g>
  </g>
  <g id="Layer_2">
    <path
      fill="#ffffff"
      d="M224,256C224,96,160,0,160,0h192c0,0-64,96-64,256s64,256,64,256H160C160,512,224,416,224,256z"
    />
    <g>
      <path
        fill="#ffffff"
        d="M374.291,29.428c-8.503,14.914-17.066,31.882-24.968,50.773c63.124,33.484,106.126,99.865,106.126,176.299
			c0,76.296-42.846,142.575-105.783,176.117c7.941,18.885,16.537,35.844,25.061,50.726C456.325,440.547,512,355.031,512,256.5
			C512,157.793,456.127,72.147,374.291,29.428z"
      />
      <path
        fill="#ffffff"
        d="M162.334,432.617C99.396,399.075,56.55,332.796,56.55,256.5c0-76.434,43.002-142.814,106.127-176.299
			c-7.902-18.891-16.465-35.86-24.968-50.773C55.873,72.147,0,157.793,0,256.5c0,98.531,55.675,184.047,137.274,226.843
			C145.796,468.461,154.393,451.502,162.334,432.617z"
      />
    </g>
  </g>
</svg>
