<?xml version="1.0" encoding="UTF-8" standalone="no"?>
<!DOCTYPE svg PUBLIC "-//W3C//DTD SVG 1.1//EN" "http://www.w3.org/Graphics/SVG/1.1/DTD/svg11.dtd">
<svg
  width="100%"
  height="100%"
  viewBox="0 0 32 32"
  version="1.1"
  xmlns="http://www.w3.org/2000/svg"
  xmlns:xlink="http://www.w3.org/1999/xlink"
  xml:space="preserve"
  style="fill-rule: evenodd; clip-rule: evenodd; stroke-linejoin: bevel"
>
  <g
    id="Layer_1"
    transform="matrix(0.0655315,0,0,0.0655315,-0.226744,0.243607)"
  >
    <path
      id="svg_1"
      d="M246.286,474.529L248.95,474.529L262.633,45.307L232.603,45.307L246.286,474.529L246.286,474.529Z"
      style="
        fill: #ffffff;
        fill-rule: nonzero;
        stroke: white;
        stroke-width: 1px;
      "
    />
    <path
      id="svg_11"
      d="M247.611,6.351C260.249,6.351 270.511,14.233 270.511,23.94C270.511,33.647 260.249,41.519 247.611,41.519C234.973,41.519 224.724,33.647 224.724,23.94C224.724,14.233 234.973,6.351 247.611,6.351L247.611,6.351Z"
      style="
        fill: #ffffff;
        fill-rule: nonzero;
        stroke: white;
        stroke-width: 1px;
        stroke-linejoin: miter;
      "
    />
    <path
      d="M147.279,74.653C150.949,72.752 147.889,75.083 163.823,75.99C165.888,76.105 163.588,79.468 162.854,80.978C155.565,89.127 143.126,96.599 132.64,100.487C127.565,102.379 120.723,103.363 115.672,101.376C115.176,101.185 115.064,100.497 114.776,100.286C113.744,99.484 121.58,95.099 128.82,90.054C135.687,85.257 145.24,77.212 147.279,74.653L147.279,74.653ZM347.955,74.653C344.287,72.752 347.346,75.083 331.411,75.99C329.346,76.105 331.647,79.468 332.381,80.978C339.671,89.127 352.109,96.599 362.595,100.487C367.67,102.379 374.512,103.363 379.562,101.376C380.059,101.185 380.171,100.497 380.459,100.286C381.49,99.484 373.653,95.099 366.415,90.054C359.549,85.257 349.996,77.212 347.955,74.653L347.955,74.653ZM214.747,101.108C187.743,103.726 163.263,79.449 175.727,73.745C176.933,71.596 176.585,70.478 173.699,70.889C144.344,73.994 125.785,55.258 129.019,35.72C129.23,34.411 128.06,34.143 127.116,34.096C126.021,34.038 125.15,35.042 124.603,35.72C115.485,47.013 100.036,53.882 85.943,61.124C69.773,69.446 44.746,80.118 33.935,81.551C24.382,82.812 9.368,84.159 3.92,78.178C2.802,76.745 3.908,76.592 5.251,76.029C23.163,69.121 25.041,70.65 57.867,54.694C86.676,40.688 114.477,22.287 141.208,11.892C152.962,7.325 189.408,3.15 202.121,16.574C223.777,39.446 193.377,49.411 192.507,53.452C190.827,61.258 200.827,75.761 226.838,70.468L230.258,69.637L231.067,97.468L229.898,97.965C224.823,99.884 219.712,100.869 214.747,101.108L214.747,101.108ZM280.488,101.108C307.492,103.726 331.972,79.449 319.508,73.745C318.301,71.596 318.65,70.478 321.536,70.889C350.892,73.994 369.45,55.258 366.216,35.72C366.005,34.411 367.174,34.143 368.118,34.096C369.214,34.038 370.083,35.042 370.632,35.72C379.75,47.013 395.199,53.882 409.292,61.124C425.462,69.446 450.489,80.118 461.299,81.551C470.853,82.812 485.865,84.159 491.313,78.178C492.433,76.745 491.327,76.592 489.984,76.029C472.072,69.121 470.194,70.65 437.368,54.694C408.559,40.688 380.757,22.287 354.027,11.892C342.273,7.325 305.827,3.15 293.113,16.574C271.457,39.446 301.858,49.411 302.728,53.452C304.408,61.258 294.407,75.761 268.396,70.468L264.975,69.637L264.168,97.468L265.336,97.965C270.411,99.884 275.525,100.869 280.488,101.108L280.488,101.108ZM128.148,65.366C128.919,64.736 130.263,63.99 131.793,64.478C135.376,67.678 137.354,69.197 141.558,70.621C142.902,71.07 144.606,72.494 142.366,73.965C118.831,89.29 101.007,102.331 77.648,97.42C76.9,97.267 77.076,95.462 77.734,95.165C91.592,89.032 107.537,82.286 128.148,65.366ZM367.087,65.366C387.697,82.286 403.645,89.032 417.5,95.165C418.159,95.462 418.334,97.267 417.587,97.42C394.227,102.331 376.402,89.29 352.868,73.965C350.629,72.494 352.333,71.07 353.677,70.621C357.881,69.197 359.859,67.678 363.441,64.478C364.972,63.991 366.315,64.736 367.087,65.366L367.087,65.366ZM117.525,48.397C118.396,47.642 122.277,46.209 122.501,47.442C123.098,50.69 125.349,55.114 127.837,58.706C128.683,59.919 126.83,61.467 125.66,62.528C108.994,73.343 89.327,83.633 72.335,89.423C66.874,90.884 60.817,91.706 54.983,91.343C51.054,91.104 45.592,91.276 43.702,88.62C43.266,87.999 43.887,87.158 44.424,86.595C70.806,78.236 91.031,66.475 117.525,48.397L117.525,48.397ZM377.71,48.397C376.839,47.642 372.958,46.209 372.734,47.442C372.137,50.69 369.886,55.114 367.398,58.706C366.551,59.919 368.405,61.467 369.575,62.528C386.241,73.343 405.909,83.633 422.899,89.423C428.361,90.884 434.418,91.706 440.251,91.343C444.182,91.104 449.642,91.276 451.533,88.62C451.968,87.999 451.346,87.158 450.811,86.595C424.43,78.236 404.204,66.475 377.71,48.397L377.71,48.397Z"
      style="fill: #ffffff; stroke: white; stroke-width: 1.47px"
    />
    <path
      id="svg_13"
      d="M327.314,146.633C328.793,133.974 315.534,119.481 294.401,118.076C287.049,117.589 276.004,117.551 269.61,121.974C263.552,126.169 279.386,134.93 287.696,135.56C298.828,136.401 304.686,132.293 306.678,129.904C307.362,129.102 308.593,129.426 309.029,130.248C314.079,159.209 275.659,165.81 247.624,171.905C253.431,173.167 258.792,174.408 263.229,175.821C271.084,178.325 277.795,181.021 283.52,183.851C305.513,175.12 325.376,163.352 327.314,146.633L327.314,146.633Z"
      style="
        fill: #ffffff;
        fill-rule: nonzero;
        stroke: white;
        stroke-width: 1px;
      "
    />
    <path
      id="svg_14"
      d="M224.009,400.247C210.712,410.67 211.757,426.158 226.248,437.24C224.009,425.842 218.524,417.263 235.179,406.811C239.351,404.19 243.428,402.293 247.622,400.485C242.92,398.456 238.063,396.536 232.749,393.826C229.392,396.232 226.35,398.414 224.009,400.247Z"
      style="
        fill: #ffffff;
        fill-rule: nonzero;
        stroke: white;
        stroke-width: 1px;
      "
    />
    <path
      id="svg_15"
      d="M274.573,262.409C265.883,258.165 256.4,254.414 247.623,250.64C242.495,248.434 237.607,246.221 233.264,243.893C208.448,230.603 208.249,207.97 244.421,196.887C245.465,196.568 246.536,196.24 247.623,195.909C236.799,192.609 223.938,188.697 211.727,183.849C167.837,205.535 182.556,235.096 195.848,246.835C202.371,252.585 211.236,257.636 220.672,262.409C229.65,266.95 239.139,271.24 247.623,275.64C254.063,278.98 259.925,282.382 264.535,286.008C280.817,298.82 267.396,313.189 260.666,317.068C256.487,319.475 252.079,321.634 247.623,323.75C257.007,328.203 266.596,332.461 274.753,338.356C285.633,331.865 295.468,323.592 300.906,312.54C313.447,287.046 296.553,273.144 274.573,262.409Z"
      style="
        fill: #ffffff;
        fill-rule: nonzero;
        stroke: white;
        stroke-width: 1px;
      "
    />
    <path
      id="svg_16"
      d="M283.519,183.85C277.792,181.021 271.083,178.324 263.228,175.82C258.791,174.407 253.43,173.167 247.623,171.904C219.59,165.809 181.17,159.208 186.22,130.247C186.655,129.426 187.887,129.101 188.559,129.903C190.549,132.292 196.407,136.4 207.553,135.559C215.863,134.929 231.696,126.168 225.639,121.973C219.245,117.55 208.199,117.588 200.848,118.075C179.715,119.48 166.455,133.973 167.923,146.632C169.868,163.351 189.732,175.119 211.727,183.85C223.938,188.698 236.799,192.61 247.623,195.91C248.712,196.241 249.783,196.568 250.826,196.888C286.998,207.971 286.799,230.604 261.984,243.894C257.64,246.221 252.753,248.435 247.623,250.641C256.4,254.415 265.883,258.166 274.573,262.41C284.007,257.638 292.869,252.586 299.387,246.837C312.691,235.097 327.412,205.536 283.519,183.85L283.519,183.85Z"
      style="
        fill: #ffffff;
        fill-rule: nonzero;
        stroke: white;
        stroke-width: 1px;
      "
    />
    <path
      id="svg_17"
      d="M271.238,400.247C268.896,398.414 265.855,396.231 262.498,393.825C257.83,390.48 252.553,386.697 247.623,382.777C244.158,380.02 240.864,377.2 238.102,374.421C226.534,362.794 237.792,355.323 246.648,351.711C246.97,351.579 247.297,351.445 247.624,351.313C239.117,347.835 229.455,343.701 220.495,338.355C218.634,339.7 216.842,341.123 215.152,342.662C199.715,356.707 203.745,373.408 215.152,382.455C221.678,387.63 227.441,391.12 232.748,393.825C238.061,396.534 242.919,398.454 247.621,400.483C251.814,402.292 255.887,404.188 260.056,406.809C276.724,417.26 271.238,425.84 268.999,437.238C283.491,426.158 284.537,410.67 271.238,400.247L271.238,400.247Z"
      style="
        fill: #ffffff;
        fill-rule: nonzero;
        stroke: white;
        stroke-width: 1px;
      "
    />
    <path
      id="svg_18"
      d="M280.096,342.663C278.406,341.125 276.613,339.701 274.752,338.356C266.595,332.461 257.006,328.203 247.622,323.75C243.164,321.634 238.753,319.474 234.57,317.068C227.853,313.189 214.419,298.82 230.713,286.008C235.321,282.382 241.185,278.981 247.623,275.64C239.139,271.241 229.65,266.95 220.672,262.409C198.694,273.143 181.801,287.046 194.343,312.539C199.781,323.591 209.616,331.865 220.495,338.355C229.454,343.701 239.117,347.835 247.624,351.313C247.95,351.445 248.277,351.579 248.6,351.711C257.456,355.322 268.713,362.794 257.145,374.421C254.382,377.2 251.09,380.02 247.623,382.777C252.553,386.697 257.83,390.48 262.498,393.825C267.803,391.121 273.566,387.631 280.095,382.457C291.501,373.409 295.533,356.708 280.096,342.663L280.096,342.663Z"
      style="
        fill: #ffffff;
        fill-rule: nonzero;
        stroke: white;
        stroke-width: 1px;
      "
    />
  </g>
</svg>
