<?xml version="1.0" encoding="UTF-8" standalone="no"?>
<!DOCTYPE svg PUBLIC "-//W3C//DTD SVG 1.1//EN" "http://www.w3.org/Graphics/SVG/1.1/DTD/svg11.dtd">
<svg
  width="100%"
  height="100%"
  viewBox="0 0 32 32"
  version="1.1"
  xmlns="http://www.w3.org/2000/svg"
  xmlns:xlink="http://www.w3.org/1999/xlink"
  xml:space="preserve"
  style="
    fill-rule: evenodd;
    clip-rule: evenodd;
    stroke-linejoin: round;
    stroke-miterlimit: 1.41421;
  "
>
  <g transform="matrix(1.33482,0,0,1.3337,-5.30769,-5.33829)">
    <path
      d="M16.181,15.473L16.417,15.709L16.417,16.167L16.11,16.474L15.766,16.474L15.938,16.646L15.416,17.168L15.416,24.952C15.586,24.962 15.759,24.967 15.932,24.967C16.095,24.967 16.256,24.962 16.417,24.954L16.417,17.125L15.938,16.646L16.11,16.474L16.417,16.474L16.417,16.167L16.646,15.938L16.417,15.709L16.417,15.473L16.181,15.473L15.938,15.23L16.417,14.75L16.417,6.981C16.256,6.972 16.095,6.968 15.932,6.968C15.759,6.968 15.586,6.973 15.416,6.983L15.416,14.708L15.938,15.23L15.695,15.473L15.416,15.473L15.416,15.752L15.23,15.938L15.416,16.124L15.416,16.474L14.693,16.474L9.227,21.94C9.449,22.19 9.684,22.428 9.931,22.652L7.983,24.6L7.275,23.892L9.227,21.94C7.925,20.469 7.095,18.566 6.979,16.474L14.693,16.474L15.23,15.938L14.765,15.473L15.416,15.473L15.416,14.708L9.962,9.254C11.428,7.94 13.327,7.102 15.416,6.983L15.416,4.01L16.417,4.01L16.417,6.981C18.521,7.094 20.433,7.936 21.908,9.26L16.417,14.75L16.417,15.473L17.111,15.473L16.646,15.938L17.182,16.474L16.417,16.474L16.417,17.125L21.939,22.647C20.46,23.987 18.536,24.84 16.417,24.954L16.417,27.984L15.416,27.984L15.416,24.952C13.312,24.832 11.402,23.983 9.931,22.652L15.416,17.168L15.416,16.474L15.766,16.474L15.416,16.124L15.416,15.752L15.695,15.473L16.181,15.473ZM17.182,16.474L24.884,16.474C24.894,16.306 24.899,16.137 24.899,15.967C24.899,15.801 24.894,15.636 24.885,15.473L17.111,15.473L22.614,9.969C22.392,9.72 22.156,9.483 21.908,9.26L24.227,6.94L24.935,7.648L22.614,9.969C23.932,11.447 24.771,13.364 24.885,15.473L27.879,15.473L27.879,16.474L24.884,16.474C24.769,18.563 23.941,20.463 22.642,21.934L24.66,23.952L23.952,24.66L21.939,22.647C22.186,22.422 22.421,22.184 22.642,21.934L17.182,16.474ZM9.962,9.254C9.714,9.477 9.478,9.714 9.255,9.963L14.765,15.473L6.978,15.473L6.978,15.488C6.969,15.647 6.965,15.807 6.965,15.967C6.965,16.137 6.97,16.306 6.979,16.474L3.906,16.474L3.906,15.473L6.978,15.473L6.979,15.459C7.096,13.352 7.937,11.438 9.255,9.963L7,7.708L7.708,7L9.962,9.254Z"
      style="fill: #ffffff"
    />
  </g>
</svg>
