<?xml version="1.0" encoding="UTF-8" standalone="no"?>
<!DOCTYPE svg PUBLIC "-//W3C//DTD SVG 1.1//EN" "http://www.w3.org/Graphics/SVG/1.1/DTD/svg11.dtd">
<svg width="100%" height="100%" viewBox="0 0 64 64" version="1.1" xmlns="http://www.w3.org/2000/svg" xmlns:xlink="http://www.w3.org/1999/xlink" xml:space="preserve" xmlns:serif="http://www.serif.com/" style="fill-rule:evenodd;clip-rule:evenodd;stroke-linejoin:round;stroke-miterlimit:2;">
    <g transform="matrix(1,0,0,1,-792,0)">
        <g id="path0" transform="matrix(0.154527,0,0,0.154527,793.091,-4.90614)">
            <path d="M188.868,36.714C155.488,53.615 126.279,65.076 99.938,71.609C85.608,75.163 77.636,76.672 45.055,81.999C30.86,84.32 30.222,84.44 28.979,85.03L28.126,85.435L28.296,94.851C28.643,114.075 30.744,159.417 32.165,178.355C33.88,201.206 34.17,203.574 36.859,216.735C39.649,230.382 40.237,232.899 43.819,246.506C50.879,273.326 60.916,299.102 71.85,318.491C94.425,358.525 113.212,381.965 143.774,408.23C163.297,425.008 166.361,427.426 173.849,431.963C176.609,433.635 180.643,436.148 182.814,437.548C189.965,442.161 198.841,446.36 200.421,445.879C203.336,444.992 213.515,440.068 216.327,438.185C217.551,437.364 221.336,434.989 224.737,432.905C228.139,430.822 231.422,428.782 232.035,428.372C236.378,425.463 249.922,414.09 267.296,398.759C269.985,396.386 278.584,387.619 284.882,380.829C299.071,365.532 313.215,345.237 328.67,317.996C336.191,304.742 342.866,289.346 349.908,269.017C356.795,249.137 364.358,216.557 366.59,197.155C368.703,178.798 371.738,119.101 371.879,93.142L371.923,84.984L364.131,83.447C359.845,82.601 352.387,81.285 347.557,80.523C310.37,74.652 293.227,70.505 266.79,60.985C252.14,55.709 227.364,44.702 209.106,35.359C199.435,30.409 201.608,30.264 188.868,36.714" style="fill:white;"/>
        </g>
        <g id="Layer1">
        </g>
        <g id="Layer11" serif:id="Layer1">
        </g>
    </g>
</svg>
