<?xml version="1.0" encoding="UTF-8" standalone="no"?>
<!DOCTYPE svg PUBLIC "-//W3C//DTD SVG 1.1//EN" "http://www.w3.org/Graphics/SVG/1.1/DTD/svg11.dtd">
<svg width="100%" height="100%" viewBox="0 0 64 64" version="1.1" xmlns="http://www.w3.org/2000/svg" xmlns:xlink="http://www.w3.org/1999/xlink" xml:space="preserve" xmlns:serif="http://www.serif.com/" style="fill-rule:evenodd;clip-rule:evenodd;stroke-linejoin:round;stroke-miterlimit:2;">
    <g transform="matrix(1,0,0,1,-858,0)">
        <g id="path0" transform="matrix(0.982088,0,0,0.982088,442.144,-477.049)">
            <path d="M454.269,486.531C449.017,489.19 444.421,490.993 440.276,492.021C438.022,492.58 436.767,492.818 431.641,493.656C429.407,494.021 429.307,494.04 429.111,494.133L428.977,494.197L429.004,495.678C429.058,498.703 429.389,505.837 429.613,508.817C429.882,512.413 429.928,512.785 430.351,514.856C430.79,517.003 430.883,517.399 431.446,519.54C432.557,523.76 434.136,527.816 435.857,530.867C439.409,537.166 442.365,540.854 447.174,544.987C450.246,547.627 450.728,548.007 451.906,548.721C452.34,548.984 452.975,549.38 453.317,549.6C454.442,550.326 455.838,550.986 456.087,550.911C456.546,550.771 458.147,549.996 458.59,549.7C458.782,549.571 459.378,549.197 459.913,548.869C460.448,548.542 460.965,548.221 461.061,548.156C461.745,547.698 463.876,545.909 466.609,543.497C467.032,543.123 468.385,541.744 469.376,540.675C471.609,538.269 473.834,535.075 476.266,530.789C477.45,528.704 478.5,526.281 479.608,523.082C480.692,519.954 481.882,514.828 482.233,511.775C482.565,508.887 483.043,499.494 483.065,495.409L483.072,494.126L481.846,493.884C481.171,493.751 479.998,493.544 479.238,493.424C473.387,492.5 470.689,491.847 466.53,490.35C464.225,489.519 460.326,487.787 457.453,486.317C455.932,485.539 456.274,485.516 454.269,486.531ZM456.025,508.333C459.612,508.333 462.525,512.814 462.525,518.333C462.525,523.852 459.612,528.333 456.025,528.333C452.437,528.333 449.525,523.852 449.525,518.333C449.525,512.814 452.437,508.333 456.025,508.333Z" style="fill:white;"/>
        </g>
        <g id="Layer1">
        </g>
        <g id="Layer11" serif:id="Layer1">
        </g>
    </g>
</svg>
