<?xml version="1.0" encoding="UTF-8" standalone="no"?>
<!DOCTYPE svg PUBLIC "-//W3C//DTD SVG 1.1//EN" "http://www.w3.org/Graphics/SVG/1.1/DTD/svg11.dtd">
<svg width="100%" height="100%" viewBox="0 0 64 64" version="1.1" xmlns="http://www.w3.org/2000/svg" xmlns:xlink="http://www.w3.org/1999/xlink" xml:space="preserve" xmlns:serif="http://www.serif.com/" style="fill-rule:evenodd;clip-rule:evenodd;stroke-linejoin:round;stroke-miterlimit:2;">
    <g transform="matrix(1,0,0,1,-726,0)">
        <g id="path0" transform="matrix(1.03226,0,0,1.03226,191.667,-332.903)">
            <path d="M535.837,344.5C535.81,343.799 535.789,343.168 535.781,342.723L535.768,342.018L535.832,341.988C535.925,341.944 535.973,341.935 537.036,341.761C539.474,341.362 540.071,341.249 541.143,340.983C543.115,340.494 545.301,339.637 547.8,338.372C548.753,337.889 548.591,337.9 549.315,338.27C550.681,338.969 552.536,339.793 553.632,340.188C555.611,340.901 556.894,341.211 559.678,341.651C560.039,341.708 560.597,341.806 560.918,341.87L561.501,341.985L561.498,342.595C561.495,343.095 561.478,343.762 561.452,344.5L579.635,344.5L579.635,348.5L561.253,348.5C561.201,349.3 561.149,349.975 561.102,350.38C561.064,350.71 561.006,351.091 560.932,351.5L574.635,351.5L574.635,355.5L559.941,355.5C559.911,355.589 559.882,355.676 559.853,355.759C559.482,356.832 559.124,357.721 558.748,358.5L568.635,358.5L568.635,362.5L556.313,362.5C555.867,363.114 555.427,363.653 554.986,364.128C554.515,364.636 553.871,365.293 553.67,365.47C552.37,366.618 551.356,367.469 551.031,367.687C550.985,367.717 550.739,367.87 550.485,368.026C550.23,368.182 549.947,368.36 549.855,368.421C549.645,368.562 548.883,368.931 548.665,368.997C548.546,369.033 547.882,368.719 547.347,368.374C547.184,368.269 546.882,368.081 546.676,367.956C546.115,367.616 545.886,367.435 544.425,366.179C543.033,364.984 541.968,363.866 540.967,362.5L528.635,362.5L528.635,358.5L538.541,358.5C538.108,357.598 537.706,356.576 537.36,355.5L522.635,355.5L522.635,351.5L536.353,351.5C536.213,350.79 536.183,350.463 536.071,348.973C536.06,348.834 536.049,348.675 536.038,348.5L517.635,348.5L517.635,344.5L535.837,344.5Z" style="fill:white;"/>
        </g>
        <g id="Layer1">
        </g>
        <g id="Layer11" serif:id="Layer1">
        </g>
    </g>
</svg>
