<?xml version="1.0" encoding="UTF-8" standalone="no"?>
<!DOCTYPE svg PUBLIC "-//W3C//DTD SVG 1.1//EN" "http://www.w3.org/Graphics/SVG/1.1/DTD/svg11.dtd">
<svg width="100%" height="100%" viewBox="0 0 64 64" version="1.1" xmlns="http://www.w3.org/2000/svg" xmlns:xlink="http://www.w3.org/1999/xlink" xml:space="preserve" xmlns:serif="http://www.serif.com/" style="fill-rule:evenodd;clip-rule:evenodd;stroke-linejoin:round;stroke-miterlimit:2;">
    <g transform="matrix(1,0,0,1,-1386,0)">
        <g transform="matrix(0.991385,0,0,0.991385,570.365,-680.806)">
            <path d="M878.342,741.285C872.464,747.441 864.176,751.278 855,751.278C853.904,751.278 852.821,751.223 851.753,751.116L852.258,749.749L867.758,722.902L878.342,741.285ZM847.365,750.368C837.624,748.002 829.604,741.211 825.561,732.247L827,732L858,732L847.365,750.368ZM885.984,709.928C886.826,712.805 887.278,715.85 887.278,719C887.278,726.04 885.019,732.557 881.187,737.866L880.258,736.749L864.758,709.902L885.984,709.928ZM828.813,700.134L829.742,701.251L845.242,728.098L824.016,728.072C823.174,725.195 822.722,722.15 822.722,719C822.722,711.96 824.981,705.443 828.813,700.134ZM831.658,696.715C837.536,690.559 845.824,686.722 855,686.722C856.096,686.722 857.179,686.777 858.247,686.884L857.742,688.251L842.242,715.098L831.658,696.715ZM862.635,687.632C872.376,689.998 880.396,696.789 884.439,705.753L883,706L852,706L862.635,687.632Z" style="fill:white;"/>
        </g>
        <g id="Layer1">
        </g>
        <g id="Layer11" serif:id="Layer1">
        </g>
    </g>
</svg>
