<?xml version="1.0" encoding="UTF-8" standalone="no"?>
<!DOCTYPE svg PUBLIC "-//W3C//DTD SVG 1.1//EN" "http://www.w3.org/Graphics/SVG/1.1/DTD/svg11.dtd">
<svg width="100%" height="100%" viewBox="0 0 64 64" version="1.1" xmlns="http://www.w3.org/2000/svg" xmlns:xlink="http://www.w3.org/1999/xlink" xml:space="preserve" xmlns:serif="http://www.serif.com/" style="fill-rule:evenodd;clip-rule:evenodd;stroke-linejoin:round;stroke-miterlimit:2;">
    <g transform="matrix(1,0,0,1,-1518,0)">
        <g transform="matrix(1.14917,0,0,1.14917,841.218,-609.238)">
            <path d="M630.315,571.367L617.546,564.246L617.546,577.939L630.315,585L630.315,571.367ZM601.7,571.367L588.93,564.246L588.93,577.939L601.7,585L601.7,571.367ZM631.853,571.367L631.853,585L644.623,577.939L644.623,564.307L631.853,571.367ZM603.238,571.367L603.238,585L616.007,577.939L616.007,564.307L603.238,571.367ZM617.551,562.382L631.084,555L644.61,562.458L631.09,569.671L617.551,562.382ZM588.935,562.382L602.469,555L615.995,562.458L602.475,569.671L588.935,562.382ZM616.007,547.367L603.238,540.246L603.238,553.939L616.007,561L616.007,547.367ZM617.546,547.367L617.546,561L630.315,553.939L630.315,540.307L617.546,547.367ZM603.243,538.382L616.776,531L630.303,538.458L616.783,545.671L603.243,538.382Z" style="fill:white;fill-rule:nonzero;"/>
        </g>
        <g id="Layer1">
        </g>
        <g id="Layer11" serif:id="Layer1">
        </g>
    </g>
</svg>
