<?xml version="1.0" encoding="utf-8"?>
<!-- Generator: Adobe Illustrator 14.0.0, SVG Export Plug-In . SVG Version: 6.00 Build 43363)  -->
<!DOCTYPE svg PUBLIC "-//W3C//DTD SVG 1.1//EN" "http://www.w3.org/Graphics/SVG/1.1/DTD/svg11.dtd">
<svg
  version="1.1"
  xmlns="http://www.w3.org/2000/svg"
  xmlns:xlink="http://www.w3.org/1999/xlink"
  x="0px"
  y="0px"
  width="512px"
  height="512px"
  viewBox="0 0 512 512"
  enable-background="new 0 0 512 512"
  xml:space="preserve"
>
  <g id="Layer_1">
    <g></g>
    <g></g>
  </g>
  <g id="Layer_2">
    <path
      fill="#ffffff"
      d="M256,325.705c-22.627,0-74.818-44.126-64-64c15.298-28.106,116.242-29.761,128,0
		C328.314,282.75,278.627,325.705,256,325.705z"
    />
    <path
      fill="#ffffff"
      d="M224,480c0,0-134.933-199.819-96-256c36.454-52.603,219.546-52.603,256,0c38.933,56.181-96,256-96,256
		s229.657-171.147,224-256C506.343,139.147,341.041,0,256,0S5.657,139.147,0,224C-5.657,308.853,224,480,224,480z"
    />
  </g>
</svg>
