<?xml version="1.0" encoding="UTF-8" standalone="no"?>
<!DOCTYPE svg PUBLIC "-//W3C//DTD SVG 1.1//EN" "http://www.w3.org/Graphics/SVG/1.1/DTD/svg11.dtd">
<svg width="100%" height="100%" viewBox="0 0 64 64" version="1.1" xmlns="http://www.w3.org/2000/svg" xmlns:xlink="http://www.w3.org/1999/xlink" xml:space="preserve" xmlns:serif="http://www.serif.com/" style="fill-rule:evenodd;clip-rule:evenodd;stroke-linejoin:round;stroke-miterlimit:2;">
    <g transform="matrix(1,0,0,1,-990,0)">
        <g id="Layer1" transform="matrix(1.33333,0,0,1.33333,-52.0176,-1120.67)">
            <g transform="matrix(1,0,0,1,108.778,301.5)">
                <path d="M693.773,542.067C693.773,542.045 693.772,542.022 693.772,542C693.772,540.344 695.117,539 696.772,539C698.428,539 699.772,540.344 699.772,542C699.772,542.022 699.772,542.045 699.772,542.067L713.256,549.852C713.693,549.604 714.198,549.462 714.736,549.462C716.391,549.462 717.736,550.806 717.736,552.462C717.736,553.502 717.205,554.419 716.4,554.957L716.4,570.967C717.205,571.505 717.736,572.422 717.736,573.462C717.736,575.118 716.391,576.462 714.736,576.462C714.225,576.462 713.744,576.334 713.323,576.109L699.772,583.933C699.772,583.955 699.772,583.978 699.772,584C699.772,585.656 698.428,587 696.772,587C695.117,587 693.772,585.656 693.772,584C693.772,583.978 693.773,583.955 693.773,583.933L680.186,576.088C679.756,576.327 679.261,576.462 678.736,576.462C677.08,576.462 675.736,575.118 675.736,573.462C675.736,572.391 676.298,571.45 677.144,570.919L677.144,555.005C676.298,554.475 675.736,553.534 675.736,552.462C675.736,550.806 677.08,549.462 678.736,549.462C679.289,549.462 679.807,549.612 680.252,549.873L693.773,542.067ZM698.564,544.406C698.064,544.779 697.444,545 696.772,545C696.101,545 695.481,544.779 694.981,544.406L681.71,552.068C681.727,552.197 681.736,552.329 681.736,552.462C681.736,553.753 680.919,554.854 679.774,555.277L679.774,570.647C680.919,571.07 681.736,572.171 681.736,573.462C681.736,573.62 681.723,573.775 681.7,573.926L694.981,581.594C695.481,581.221 696.101,581 696.772,581C697.444,581 698.064,581.221 698.564,581.594L711.778,573.965C711.75,573.802 711.736,573.633 711.736,573.462C711.736,572.144 712.588,571.023 713.771,570.621L713.771,555.303C712.588,554.901 711.736,553.78 711.736,552.462C711.736,552.315 711.746,552.17 711.767,552.029L698.564,544.406Z" style="fill:white;"/>
            </g>
            <g transform="matrix(1,0,0,1,30.7776,301.5)">
                <path d="M776.086,562.022L793.79,572.244L792.477,574.519L774.714,564.263L757.273,574.333L755.959,572.058L773.459,561.955L773.459,542L776.086,542L776.086,562.022Z" style="fill:white;fill-opacity:0.54;"/>
            </g>
            <g transform="matrix(1,0,0,1,30.7776,301.5)">
                <path d="M774.714,561.23L792.651,550.874L793.965,553.149L776.086,563.471L776.086,584.368L773.459,584.368L773.459,563.539L755.785,553.335L757.098,551.06L774.714,561.23Z" style="fill:white;"/>
            </g>
        </g>
        <g id="Layer11" serif:id="Layer1">
        </g>
    </g>
</svg>
