<?xml version="1.0" encoding="UTF-8" standalone="no"?>
<!DOCTYPE svg PUBLIC "-//W3C//DTD SVG 1.1//EN" "http://www.w3.org/Graphics/SVG/1.1/DTD/svg11.dtd">
<svg width="100%" height="100%" viewBox="0 0 64 64" version="1.1" xmlns="http://www.w3.org/2000/svg" xmlns:xlink="http://www.w3.org/1999/xlink" xml:space="preserve" xmlns:serif="http://www.serif.com/" style="fill-rule:evenodd;clip-rule:evenodd;stroke-linejoin:round;stroke-miterlimit:2;">
    <g transform="matrix(1,0,0,1,-1254,0)">
        <g transform="matrix(1.00193,0,0,1.00193,519.521,-189.427)">
            <path d="M733.062,223L733.158,223C734.163,229.308 739.863,234.756 748.041,237.959C751.244,246.137 756.692,251.837 763,252.842L763,252.938C746.931,251.946 734.054,239.069 733.062,223ZM796.938,223C795.946,239.069 783.069,251.946 767,252.938L767,252.842C773.308,251.837 778.756,246.137 781.959,237.959C790.137,234.756 795.837,229.308 796.842,223L796.938,223ZM763,240.961C759.291,240.818 755.752,240.279 752.491,239.412C755.174,244.075 758.861,247.236 763,248.013L763,240.961ZM767,248.013C771.139,247.236 774.826,244.075 777.509,239.412C774.248,240.279 770.709,240.818 767,240.961L767,248.013ZM756.253,223C755.797,224.459 755.523,225.789 755.523,226.872C755.523,231.417 758.728,235.218 763,236.138L763,237.955C758.463,237.748 754.233,236.845 750.585,235.415C749.155,231.767 748.252,227.537 748.045,223L756.253,223ZM773.747,223L781.955,223C781.748,227.537 780.845,231.767 779.415,235.415C775.767,236.845 771.537,237.748 767,237.955L767,236.138C771.272,235.218 774.477,231.417 774.477,226.872C774.477,225.789 774.203,224.459 773.747,223ZM792.013,223L784.961,223C784.818,226.709 784.279,230.248 783.412,233.509C788.075,230.826 791.236,227.139 792.013,223ZM737.987,223C738.764,227.139 741.925,230.826 746.588,233.509C745.721,230.248 745.182,226.709 745.039,223L737.987,223ZM765,212.515C765,212.515 758.519,222.674 758.519,227.028C758.519,230.605 761.423,233.509 765,233.509C768.577,233.509 771.481,230.605 771.481,227.028C771.481,222.674 765,212.515 765,212.515ZM763,189.062L763,189.158C756.692,190.163 751.244,195.863 748.041,204.041C739.863,207.244 734.163,212.692 733.158,219L733.062,219C734.054,202.931 746.931,190.054 763,189.062ZM745.039,219C745.182,215.291 745.721,211.752 746.588,208.491C741.925,211.174 738.764,214.861 737.987,219L745.039,219ZM763,208.951C761.472,211.561 759.365,215.362 757.777,219L748.045,219C748.252,214.463 749.155,210.233 750.585,206.585C754.233,205.155 758.463,204.252 763,204.045L763,208.951ZM767,189.062C783.069,190.054 795.946,202.931 796.938,219L796.842,219C795.837,212.692 790.137,207.244 781.959,204.041C778.756,195.863 773.308,190.163 767,189.158L767,189.062ZM792.013,219C791.236,214.861 788.075,211.174 783.412,208.491C784.279,211.752 784.818,215.291 784.961,219L792.013,219ZM767,208.951L767,204.045C771.537,204.252 775.767,205.155 779.415,206.585C780.845,210.233 781.748,214.463 781.955,219L772.223,219C770.635,215.362 768.528,211.562 767,208.951ZM767,193.987L767,201.039C770.709,201.182 774.248,201.721 777.509,202.588C774.826,197.925 771.139,194.764 767,193.987ZM763,193.987C758.861,194.764 755.174,197.925 752.491,202.588C755.752,201.721 759.291,201.182 763,201.039L763,193.987Z" style="fill:white;"/>
        </g>
        <g id="Layer1">
        </g>
        <g id="Layer11" serif:id="Layer1">
        </g>
    </g>
</svg>
