<?xml version="1.0" encoding="UTF-8" standalone="no"?>
<!DOCTYPE svg PUBLIC "-//W3C//DTD SVG 1.1//EN" "http://www.w3.org/Graphics/SVG/1.1/DTD/svg11.dtd">
<svg
  width="100%"
  height="100%"
  viewBox="0 0 128 128"
  version="1.1"
  xmlns="http://www.w3.org/2000/svg"
  xmlns:xlink="http://www.w3.org/1999/xlink"
  xml:space="preserve"
  xmlns:serif="http://www.serif.com/"
  style="
    fill-rule: evenodd;
    clip-rule: evenodd;
    stroke-linejoin: round;
    stroke-miterlimit: 2;
  "
>
  <g transform="matrix(1.35624,0,0,1.35624,-20.3428,-19.8281)">
    <path
      d="M98.134,22C98.724,22.064 99.279,22.195 99.808,22.477C101.171,23.202 102.034,24.669 102.004,26.213C101.993,26.812 101.838,27.361 101.606,27.908L64.317,106.63C64.172,106.905 64.144,106.98 63.964,107.235C63.696,107.618 63.362,107.955 62.982,108.227C62.601,108.499 62.175,108.706 61.726,108.836C60.243,109.266 58.604,108.815 57.548,107.689C57.229,107.348 56.968,106.952 56.779,106.524C56.654,106.238 56.641,106.16 56.553,105.861L48.869,75.127L18.135,67.443L17.798,67.344C17.509,67.231 17.431,67.211 17.157,67.062C16.747,66.838 16.375,66.545 16.062,66.197C15.111,65.142 14.765,63.634 15.16,62.27C15.29,61.821 15.497,61.395 15.769,61.014C16.041,60.634 16.378,60.3 16.76,60.032C17.016,59.852 17.09,59.824 17.366,59.679L96.088,22.39C96.375,22.269 96.444,22.229 96.744,22.144C97.045,22.06 97.125,22.058 97.433,22.013C97.783,21.992 97.782,21.992 98.134,22ZM31.376,62.212L53.291,67.691L53.621,67.788C53.946,67.914 54.254,68.048 54.548,68.239C55.223,68.679 55.761,69.315 56.083,70.054C56.206,70.335 56.219,70.412 56.305,70.705L61.784,92.62L89.151,34.845C69.893,43.967 50.634,53.09 31.376,62.212Z"
      style="fill: currentColor"
    />
  </g>
</svg>
