<?xml version="1.0" encoding="UTF-8" standalone="no"?>
<!DOCTYPE svg PUBLIC "-//W3C//DTD SVG 1.1//EN" "http://www.w3.org/Graphics/SVG/1.1/DTD/svg11.dtd">
<svg
  width="100%"
  height="100%"
  viewBox="0 0 128 128"
  version="1.1"
  xmlns="http://www.w3.org/2000/svg"
  xmlns:xlink="http://www.w3.org/1999/xlink"
  xml:space="preserve"
  xmlns:serif="http://www.serif.com/"
  style="
    fill-rule: evenodd;
    clip-rule: evenodd;
    stroke-linejoin: round;
    stroke-miterlimit: 2;
  "
>
  <g id="Template" transform="matrix(1.2,0,0,1.2,-12.8,-12.8)">
    <g id="Thrusters">
      <path
        style="fill: currentColor"
        d="M102.721,28.814C103.132,28.923 103.555,29 104,29C106.762,29 109,26.762 109,24C109,21.238 106.762,19 104,19C101.238,19 99,21.238 99,24C99,24.445 99.077,24.868 99.186,25.279L93.998,30.466C86.037,23.339 75.526,19 64,19C39.147,19 19,39.147 19,64C19,75.526 23.339,86.037 30.466,93.998L25.279,99.186C24.868,99.077 24.445,99 24,99C21.239,99 19,101.238 19,104C19,106.762 21.239,109 24,109C26.761,109 29,106.762 29,104C29,103.555 28.923,103.132 28.814,102.721L34.001,97.533C41.963,104.661 52.473,109 64,109C88.853,109 109,88.853 109,64C109,52.473 104.661,41.963 97.533,34.001L102.721,28.814ZM64,104C41.944,104 24,86.056 24,64C24,41.944 41.944,24 64,24C86.056,24 104,41.944 104,64C104,86.056 86.056,104 64,104ZM64.967,35.661C65.816,36.474 66.666,37.403 67.511,38.444C75.277,35.907 82.54,36.58 86.981,41.019C94.656,48.693 91.086,64.809 79.098,77.362C78.816,77.658 78.535,77.953 78.244,78.244C77.701,78.787 77.148,79.308 76.592,79.818C72.951,83.158 69.039,85.799 65.136,87.677C64.248,88.104 63.361,88.486 62.477,88.833C62.478,88.834 62.479,88.836 62.481,88.837C53.981,92.18 45.836,91.798 41.02,86.981C33.343,79.302 36.917,63.181 48.911,50.624C48.947,51.656 49.007,52.711 49.107,53.8C49.502,58.093 50.4,62.791 51.835,67.616C54.188,75.533 57.56,82.382 61.17,87.189C62.024,86.869 62.879,86.501 63.736,86.104C60.112,81.936 56.549,75.069 54.131,66.934C52.567,61.67 51.697,56.592 51.481,52.179C51.411,50.748 51.411,49.389 51.478,48.116C51.48,48.114 51.482,48.112 51.484,48.11C51.575,46.38 51.792,44.812 52.131,43.443C52.128,43.446 52.124,43.449 52.12,43.452C52.876,40.383 54.246,38.323 56.199,37.743C57.313,37.412 58.532,37.592 59.803,38.206C58.237,39.088 56.677,40.062 55.139,41.154C54.477,42.249 53.948,43.941 53.666,46.221C56.623,43.808 59.713,41.85 62.799,40.361C63.562,41.081 64.329,41.928 65.09,42.891C68.426,47.114 71.64,53.545 73.875,61.065C75.591,66.838 76.472,72.388 76.569,77.081C76.656,76.995 76.747,76.914 76.833,76.828C77.562,76.099 78.262,75.355 78.934,74.598C78.559,70.198 77.651,65.358 76.171,60.383C73.912,52.785 70.716,46.174 67.271,41.404C63.142,35.688 58.657,32.619 54.999,33.706C51.45,34.761 49.386,39.52 48.961,46.238C48.494,46.675 48.024,47.104 47.566,47.562C32.941,62.184 28.419,81.453 37.483,90.517C43.566,96.6 54.244,96.556 65.029,91.456C67.822,93.92 70.594,95.013 73.006,94.296C76.549,93.242 78.61,88.493 79.039,81.793C79.51,81.352 79.977,80.9 80.438,80.439C95.06,65.817 99.581,46.547 90.517,37.483C84.811,31.776 75.058,31.465 64.967,35.661ZM71.805,90.256C70.7,90.585 69.49,90.397 68.231,89.795C70.822,88.328 73.392,86.576 75.881,84.55C75.124,87.617 73.756,89.676 71.805,90.256ZM64,56.5C68.139,56.5 71.5,59.861 71.5,64C71.5,68.139 68.139,71.5 64,71.5C59.861,71.5 56.5,68.139 56.5,64C56.5,59.861 59.861,56.5 64,56.5Z"
      />
    </g>
  </g>
</svg>
