<?xml version="1.0" encoding="UTF-8" standalone="no"?>
<!DOCTYPE svg PUBLIC "-//W3C//DTD SVG 1.1//EN" "http://www.w3.org/Graphics/SVG/1.1/DTD/svg11.dtd">
<svg width="100%" height="100%" viewBox="0 0 251 43" version="1.1" xmlns="http://www.w3.org/2000/svg" xmlns:xlink="http://www.w3.org/1999/xlink" xml:space="preserve" xmlns:serif="http://www.serif.com/" style="fill-rule:evenodd;clip-rule:evenodd;stroke-linejoin:round;stroke-miterlimit:2;">
    <rect id="Artboard3" x="0" y="0" width="250.7" height="43" style="fill:none;"/>
    <clipPath id="_clip1">
        <rect x="0" y="0" width="250.7" height="43"/>
    </clipPath>
    <g clip-path="url(#_clip1)">
        <g id="Layer2">
            <path d="M230.494,0.664L104.33,0.645L70.861,0.642L47.973,7.8L26.253,7.768L0.728,34.006L35.596,34.244L43.815,42.463L234.175,42.549L242.955,33.764L249.966,26.996L250.207,14.183L248.625,14.183L239.672,0.642L230.494,0.664Z"/>
            <path d="M235.043,0L95.471,0.026L70.794,0.026L70.794,0.031L70.789,0.026L47.686,7.342L25.955,7.342L25.955,7.343L25.954,7.342L19.944,13.635L19.936,13.627L-0,33.564L0.007,33.572L0.007,34.613L35.369,34.613L43.758,43.003L43.759,43.002L43.759,43.004L234.517,43.004L234.517,42.997L242.901,34.613L243.31,34.613L243.31,34.607L250.646,27.271L250.691,27.271L250.691,13.635L249.381,13.635L239.763,0.015L239.763,0L235.043,0ZM217.127,36.711L219.225,36.711L219.225,41.955L217.127,41.955L217.127,36.711ZM94.423,33.564L236.092,33.564L236.092,34.613L241.417,34.613L234.075,41.955L226.567,41.955L226.567,35.662L222.371,35.662L222.371,41.955L220.273,41.955L220.273,35.662L216.078,35.662L216.078,41.955L213.98,41.955L213.98,35.662L209.784,35.662L209.784,39.858L53.634,39.858L51.65,37.873L51.65,37.865L44.606,37.865L44.606,38.914L44.914,38.914L47.955,41.955L44.194,41.955L36.852,34.613L94.423,34.613L94.423,33.564ZM210.833,36.711L212.931,36.711L212.931,41.955L210.833,41.955L210.833,36.711ZM54.683,40.906L209.784,40.906L209.784,41.955L55.732,41.955L54.683,40.906ZM46.397,38.914L51.207,38.914L54.249,41.955L49.439,41.955L46.397,38.914ZM223.42,36.711L225.518,36.711L225.518,41.955L223.42,41.955L223.42,36.711ZM2.533,32.515L93.374,32.515L93.374,33.564L1.484,33.564L2.533,32.515ZM237.141,32.515L243.918,32.515L242.87,33.564L237.141,33.564L237.141,32.515ZM235.043,15.733L236.092,15.733L236.092,32.515L94.423,32.515L94.423,15.733L95.471,15.733L95.471,31.466L235.043,31.466L235.043,15.733ZM237.141,28.32L248.114,28.32L244.922,31.512L244.922,31.466L237.141,31.466L237.141,28.32ZM6.728,28.32L93.374,28.32L93.374,31.466L3.583,31.466L6.728,28.32ZM96.518,1.147L233.992,1.147L233.994,30.417L96.52,30.417L96.518,1.147ZM14.069,20.978L93.374,20.978L93.374,27.271L7.777,27.271L14.069,20.978ZM237.141,20.978L249.642,20.978L249.642,26.792L249.163,27.271L237.141,27.271L237.141,20.978ZM237.141,16.782L249.642,16.782L249.642,19.929L237.141,19.929L237.141,16.782ZM18.264,16.782L93.374,16.782L93.374,19.929L15.118,19.929L18.264,16.782ZM20.362,14.684L93.374,14.684L93.374,15.733L19.313,15.733L20.362,14.684ZM237.141,14.684L249.642,14.684L249.642,15.733L237.141,15.733L237.141,14.684ZM94.423,13.635L95.471,13.635L95.471,14.684L94.423,14.684L94.423,13.635ZM235.043,13.635L236.092,13.635L236.092,14.684L235.043,14.684L235.043,13.635ZM88.129,1.075L93.374,1.075L93.374,13.635L21.144,13.635L26.388,8.391L29.127,8.391L27.029,10.489L26.722,10.489L26.722,11.538L33.015,11.538L33.015,11.23L35.855,8.391L37.518,8.391L35.42,10.489L35.113,10.489L35.113,11.538L41.406,11.538L41.406,11.23L42.148,10.489L71.347,10.489L71.347,12.586L91.276,12.586L91.276,7.342L88.129,7.342L88.129,1.075ZM237.141,1.049L239.238,1.049L239.238,10.489L245.752,10.489L247.898,13.635L237.141,13.635L237.141,1.049ZM94.423,11.538L95.471,11.538L95.471,12.586L94.423,12.586L94.423,11.538ZM235.043,11.538L236.092,11.538L236.092,12.586L235.043,12.586L235.043,11.538ZM75.543,7.342L87.08,7.342L87.08,8.391L90.227,8.391L90.227,11.538L89.178,11.538L89.178,10.489L88.129,10.489L88.129,11.538L87.08,11.538L87.08,9.44L86.032,9.44L86.032,11.538L84.983,11.538L84.983,9.44L83.934,9.44L83.934,11.538L82.885,11.538L82.885,9.44L81.836,9.44L81.836,11.538L80.787,11.538L80.787,10.489L79.738,10.489L79.738,11.538L78.689,11.538L78.689,9.44L77.64,9.44L77.64,11.538L74.494,11.538L74.494,9.44L73.445,9.44L73.445,11.538L72.396,11.538L72.396,8.391L75.543,8.391L75.543,7.342ZM235.043,9.44L236.092,9.44L236.092,10.489L235.043,10.489L235.043,9.44ZM94.423,9.44L95.471,9.44L95.471,10.489L94.423,10.489L94.423,9.44ZM75.543,10.489L76.591,10.489L76.591,9.44L75.543,9.44L75.543,10.489ZM30.61,8.391L34.371,8.391L32.273,10.489L28.512,10.489L30.61,8.391ZM39.001,8.391L42.762,8.391L40.664,10.489L36.903,10.489L39.001,8.391ZM71.223,1.075L74.494,1.075L74.494,7.342L71.347,7.342L71.347,9.44L43.197,9.44L44.246,8.391L47.701,8.391L47.962,8.386L71.223,1.075ZM240.287,2.098L240.362,2.098L245.215,9.44L240.287,9.44L240.287,2.098ZM235.043,7.342L236.092,7.342L236.092,8.391L235.043,8.391L235.043,7.342ZM94.423,7.342L95.471,7.342L95.471,8.391L94.423,8.391L94.423,7.342ZM75.543,5.244L87.08,5.244L87.08,6.293L75.543,6.293L75.543,5.244ZM235.043,5.244L236.092,5.244L236.092,6.293L235.043,6.293L235.043,5.244ZM94.423,5.244L95.471,5.244L95.471,6.293L94.423,6.293L94.423,5.244ZM75.543,3.147L87.08,3.147L87.08,4.195L75.543,4.195L75.543,3.147ZM235.043,3.147L236.092,3.147L236.092,4.195L235.043,4.195L235.043,3.147ZM94.423,3.147L95.471,3.147L95.471,4.195L94.423,4.195L94.423,3.147ZM75.543,1.075L87.08,1.075L87.08,2.098L75.543,2.098L75.543,1.075ZM235.043,1.049L236.092,1.049L236.092,2.098L235.043,2.098L235.043,1.049ZM94.423,1.075L95.471,1.075L95.471,2.098L94.423,2.098L94.423,1.075Z" style="fill:white;"/>
        </g>
    </g>
</svg>
