<svg xmlns="http://www.w3.org/2000/svg" width="0" height="0">
  <defs>
    <symbol id="casing" fill="none" viewBox="0 0 136 26">
      <path fill="black" d="M104.532,25.8L29.506,25.8C29.492,25.8 29.478,25.8 29.464,25.798C8.186,22.397 8.537,21.621 4.923,19.823C4.896,19.809 4.87,19.793 4.847,19.774C4.388,19.617 3.382,19.232 2.47,18.617C1.604,18.033 0.837,17.239 0.612,16.26C0.557,16.139 0.562,15.998 0.628,15.881C0.628,15.881 1.383,14.524 2.309,13.594C2.751,13.151 3.277,12.916 3.697,12.696C5.804,11.595 4.177,10.62 7.769,10.576C8.713,10.565 9.563,10.964 10.158,11.357C10.494,11.579 10.748,11.797 10.891,11.93L58.99,12.356L64.033,8.296L64.033,0.839C64.033,0.605 64.222,0.415 64.456,0.415L65.632,0.415C65.731,0.415 65.827,0.45 65.903,0.513C65.903,0.513 66.145,0.715 66.145,0.715C67.213,-0.102 68.374,-0.004 69.528,-0.014C69.641,-0.015 69.75,0.029 69.83,0.109C69.91,0.188 69.955,0.297 69.955,0.41L69.955,1.268L70.37,1.268L70.37,0.839C70.37,0.605 70.56,0.415 70.794,0.415L70.794,0.41L104.837,0.41L104.837,0.461C104.858,0.472 104.879,0.485 104.898,0.499L108.085,2.882C108.192,2.962 108.255,3.088 108.255,3.221L108.255,15.324L109.083,15.311L109.083,16.95L109.987,16.955C109.988,16.721 110.177,16.532 110.411,16.532L133.336,16.532C133.473,16.532 133.602,16.599 133.682,16.711C133.853,16.953 134.072,17.022 134.323,17.094C134.565,17.164 134.832,17.228 135.124,17.347C135.255,17.401 135.351,17.516 135.379,17.655C135.407,17.794 135.364,17.938 135.264,18.038C131.348,21.964 125.836,24.478 118.091,24.999C118.082,24.999 118.072,25 118.063,25L116.193,25L116.193,25.037L108.211,25.037L108.211,24.149L106.437,24.149L104.955,25.39C104.952,25.496 104.909,25.596 104.835,25.672C104.755,25.754 104.646,25.8 104.532,25.8Z" />
      <path d="M104.572,25.8L70.393,25.8C70.159,25.8 69.969,25.61 69.969,25.377L69.969,25.122L68.693,25.122L68.693,25.377C68.693,25.61 68.503,25.8 68.27,25.8L29.506,25.8C29.492,25.8 29.478,25.799 29.464,25.798C7.604,23.631 2.807,19.232 1.895,18.617C1.03,18.033 0.262,17.239 0.037,16.26C-0.017,16.139 -0.012,15.998 0.053,15.881C0.053,15.881 0.602,14.78 1.735,13.594C4.221,10.992 5.626,10.664 7.769,10.576C8.455,10.548 10.748,11.797 10.891,11.93L58.99,12.356L64.033,8.296L64.033,0.839C64.033,0.605 64.222,0.415 64.456,0.415L65.632,0.415C65.731,0.415 65.827,0.45 65.903,0.513C65.903,0.513 66.145,0.715 66.145,0.715C67.213,-0.102 68.374,-0.004 69.528,-0.014C69.641,-0.015 69.75,0.029 69.83,0.109C69.91,0.188 69.955,0.297 69.955,0.41L69.955,1.268L70.37,1.268L70.37,0.839C70.37,0.605 70.56,0.415 70.794,0.415L70.794,0.41L104.877,0.41L104.877,0.461C104.899,0.472 104.919,0.485 104.939,0.499L108.126,2.882C108.233,2.962 108.296,3.088 108.296,3.221L108.296,15.324L109.123,15.311L109.123,16.95L110.028,16.955C110.028,16.721 110.218,16.532 110.451,16.532L133.376,16.532C133.514,16.532 133.643,16.599 133.722,16.711C133.893,16.953 134.113,17.022 134.363,17.094C134.606,17.164 134.873,17.228 135.164,17.347C135.296,17.401 135.391,17.516 135.419,17.655C135.448,17.794 135.404,17.938 135.304,18.038C131.388,21.964 125.877,24.478 118.132,24.999C118.122,24.999 118.113,25 118.103,25L116.233,25L116.233,25.037L108.251,25.037L108.251,24.149L106.478,24.149L104.996,25.39C104.992,25.496 104.95,25.596 104.876,25.672C104.796,25.754 104.687,25.8 104.572,25.8ZM81.36,19.873L81.36,19.444C81.36,19.21 81.55,19.02 81.783,19.02L85.745,19.02C85.821,19.02 85.896,19.041 85.962,19.08L87.298,19.878L88.998,19.878L88.998,19.444C88.998,19.21 89.188,19.02 89.422,19.02L93.383,19.02C93.459,19.02 93.534,19.041 93.6,19.08L94.936,19.878L96.184,19.878L96.184,19.873C96.184,19.639 96.374,19.449 96.608,19.449L98.959,19.449C99.042,19.449 99.122,19.473 99.191,19.518C99.641,19.813 100.06,20.359 100.45,20.909C100.778,21.372 101.081,21.838 101.393,22.071C102.62,22.987 103.607,23.494 104.206,23.983C104.42,24.157 104.591,24.333 104.718,24.518L106.621,22.924L106.621,18.205L70.816,18.205C70.816,18.205 70.816,24.953 70.816,24.953L72.535,24.953L72.535,19.444C72.535,19.21 72.724,19.02 72.958,19.02L76.919,19.02C76.996,19.02 77.071,19.041 77.137,19.08L78.464,19.873L81.36,19.873ZM89.845,24.953L96.184,24.953L96.184,20.725L94.82,20.725C94.743,20.725 94.668,20.704 94.602,20.665L93.266,19.867L89.845,19.867L89.845,24.953ZM71.217,1.268L71.217,15.663C71.217,15.663 97.473,15.663 106.621,15.663L106.621,2.815L104.552,1.268L82.389,1.268C82.444,1.292 82.494,1.328 82.535,1.374C82.535,1.374 83.169,2.089 83.169,2.089L104.524,2.089C104.758,2.089 104.948,2.279 104.948,2.513L104.948,14.389C104.948,14.623 104.758,14.813 104.524,14.813L101.363,14.813C101.201,14.813 101.053,14.72 100.982,14.574C100.982,14.574 100.31,13.184 98.787,13.116C92.515,12.833 89.115,12.833 82.793,13.116C81.182,13.188 80.269,14.618 80.269,14.618C80.191,14.739 80.057,14.813 79.913,14.813L72.902,14.813C72.669,14.813 72.479,14.623 72.479,14.389L72.479,2.513C72.479,2.279 72.669,2.089 72.902,2.089L73.615,2.089L74.368,1.352C74.404,1.317 74.446,1.288 74.492,1.268L71.217,1.268ZM60.333,15.663L60.333,15.054C60.333,14.19 59.769,13.457 58.99,13.203L48.231,13.108L44.271,13.108C43.196,13.108 42.325,13.979 42.325,15.054L42.325,15.663L60.333,15.663ZM60.963,13.992L66.537,13.992L66.537,1.487C66.503,1.515 66.47,1.545 66.438,1.576C66.282,1.723 66.041,1.73 65.876,1.593L65.479,1.262L64.879,1.262L64.879,8.499C64.879,8.627 64.821,8.749 64.722,8.829L59.811,12.782C60.336,13.018 60.752,13.454 60.963,13.992ZM70.794,16.51L70.794,17.358L106.621,17.358L106.621,16.51L70.794,16.51ZM41.543,19.02L41.543,16.51L1.019,16.51C1.295,17.08 1.818,17.543 2.369,17.915C3.328,18.562 4.4,18.928 4.689,19.02L41.543,19.02ZM68.27,16.51L61.114,16.51L61.114,19.02L68.27,19.02L68.27,16.51ZM80.514,20.731L80.514,24.953L81.36,24.953L81.36,20.731L80.514,20.731ZM97.484,24.953C108.465,24.953 102.879,24.953 103.997,24.953C103.861,24.767 103.64,24.603 103.367,24.412C102.763,23.991 101.908,23.513 100.886,22.749C100.519,22.476 100.145,21.943 99.759,21.399C99.463,20.981 99.16,20.555 98.824,20.296L97.484,20.296C97.484,20.298 97.484,20.3 97.484,20.302L97.484,24.953ZM82.207,20.731L82.207,24.953L88.998,24.953L88.998,20.725L87.181,20.725C87.105,20.725 87.03,20.704 86.964,20.665L85.628,19.867L82.207,19.867L82.207,19.873L82.212,19.873L82.212,20.731L82.207,20.731ZM112.455,24.149L112.455,23.894C112.455,23.894 112.049,23.353 112.049,23.353L110.855,23.353L110.852,24.149L112.455,24.149ZM67.429,24.953L67.846,24.953L67.846,19.867L61.013,19.867C60.732,20.762 59.896,21.411 58.909,21.411L43.748,21.411C42.761,21.411 41.925,20.762 41.644,19.867L5.491,19.867C5.491,20.279 11.053,23.122 29.527,24.953L30.433,24.953C31.429,24.028 32.119,23.88 32.765,23.703C33.317,23.55 33.825,23.364 34.536,22.403C34.615,22.296 34.742,22.232 34.876,22.232L67.006,22.232C67.24,22.232 67.429,22.422 67.429,22.655L67.429,24.953ZM73.326,2.936C73.326,2.936 73.326,13.966 73.326,13.966C73.326,13.966 79.699,13.966 79.699,13.966C80.066,13.498 81.132,12.342 82.755,12.27C89.091,11.987 92.539,11.987 98.825,12.27C100.394,12.341 101.285,13.464 101.606,13.966L104.101,13.966C104.101,13.966 104.101,2.936 104.101,2.936L82.979,2.936C82.857,2.936 82.742,2.884 82.662,2.794C82.662,2.794 82.027,2.078 82.027,2.078L74.837,2.078L74.084,2.815C74.005,2.893 73.898,2.936 73.788,2.936L73.326,2.936ZM60.331,19.02C60.332,18.996 60.333,18.971 60.333,18.947L60.333,16.51L42.325,16.51L42.325,18.947C42.325,18.971 42.325,18.996 42.326,19.02L60.331,19.02ZM42.556,19.867C42.884,20.478 43.529,20.893 44.271,20.893L58.386,20.893C59.128,20.893 59.774,20.478 60.102,19.867L42.556,19.867ZM69.108,1.268L69.108,0.83C68.541,0.821 67.973,0.808 67.425,0.985L67.425,14.799L61.114,14.799L61.114,15.663L68.27,15.663L68.27,1.268L69.108,1.268ZM42.393,13.056L10.715,12.775C10.6,12.774 10.491,12.727 10.412,12.644C10.412,12.644 8.472,11.4 7.779,11.423C4.203,11.543 2.384,14.141 1.988,14.57C1.644,14.944 1.389,15.343 1.179,15.663L41.543,15.663L41.543,14.795C41.543,14.089 41.876,13.459 42.393,13.056ZM116.233,24.152C117.297,24.152 118.093,24.152 118.095,24.152C125.255,23.668 130.45,21.442 134.201,17.928C134.112,17.903 134.026,17.879 133.944,17.851C133.653,17.753 133.398,17.622 133.175,17.379L110.873,17.379L110.858,22.506L112.26,22.506C112.394,22.506 112.519,22.569 112.599,22.675L113.217,23.498C113.272,23.572 113.302,23.661 113.302,23.753L113.302,24.149L116.233,24.149L116.233,24.152ZM31.833,24.953L66.582,24.953L66.582,23.079L35.086,23.079C34.262,24.131 33.647,24.338 32.989,24.519C32.639,24.616 32.272,24.7 31.833,24.953ZM77.529,20.301L76.803,19.867L73.382,19.867L73.382,24.953L79.667,24.953C79.667,24.953 79.667,20.902 79.667,20.731L77.529,20.731L77.529,20.301Z" style="fill:currentColor;" />
    </symbol>
    <symbol id="warhead-emp" viewBox="0 0 56 14">
      <path d="M0.236,10.536C10.292,5.585 27.963,0.894 54.978,0.003C55.093,-0 55.204,0.042 55.287,0.122C55.369,0.202 55.416,0.312 55.416,0.427L55.416,9.861C55.416,9.992 55.355,10.116 55.251,10.197L50.706,13.698C50.631,13.756 50.538,13.787 50.443,13.786L3.07,13.294C2.981,13.293 2.895,13.264 2.823,13.211L0.172,11.257C0.053,11.169 -0.011,11.026 0.002,10.879C0.015,10.732 0.104,10.602 0.236,10.536Z" />
      <path d="M0.236,10.536C10.292,5.585 27.963,0.894 54.978,0.003C55.093,-0 55.204,0.042 55.287,0.122C55.369,0.202 55.416,0.312 55.416,0.427L55.416,9.861C55.416,9.992 55.355,10.116 55.251,10.197L50.706,13.698C50.631,13.756 50.538,13.787 50.443,13.786L3.07,13.294C2.981,13.293 2.895,13.264 2.823,13.211L0.172,11.257C0.053,11.169 -0.011,11.026 0.002,10.879C0.015,10.732 0.104,10.602 0.236,10.536ZM1.239,10.992L3.215,12.449L50.306,12.938L54.569,9.653L54.569,0.865C28.525,1.766 11.275,6.213 1.239,10.992Z" style="fill:currentColor;" />
      <path d="M21.357,11.556C21.362,11.579 21.349,11.607 21.323,11.626C21.298,11.644 21.265,11.651 21.241,11.643L15.264,9.566C15.252,9.562 15.244,9.555 15.238,9.546C15.23,9.531 15.23,9.512 15.241,9.493C15.257,9.461 15.297,9.44 15.333,9.442L19.449,10.035L18.784,7.406C18.781,7.382 18.795,7.356 18.821,7.338C18.846,7.319 18.878,7.313 18.902,7.322L24.764,9.455C24.794,9.466 24.804,9.498 24.786,9.529C24.768,9.56 24.73,9.582 24.694,9.58L20.605,9.075L21.357,11.556ZM36.41,12.648L35.15,9.456L31.901,9.456C31.659,10.088 31.046,10.537 30.329,10.537C29.399,10.537 28.645,9.782 28.645,8.853C28.645,7.923 29.399,7.169 30.329,7.169C31.046,7.169 31.659,7.618 31.901,8.25L35.971,8.25L37.713,12.661L36.41,12.648ZM38.141,12.666L41.992,2.648C42.043,2.643 42.095,2.638 42.147,2.634L44.093,8.25L54.427,8.25L54.427,9.456L43.234,9.456L42.017,5.944L39.428,12.679L38.141,12.666Z" style="fill:currentColor;" />
    </symbol>
    <symbol id="warhead-explosive" viewBox="0 0 56 14">
      <path d="M0.259,10.561C10.341,5.597 28.057,0.893 55.143,0C55.258,-0.004 55.369,0.039 55.452,0.119C55.535,0.199 55.581,0.31 55.581,0.425L55.581,9.884C55.581,10.015 55.52,10.14 55.416,10.22L50.86,13.73C50.784,13.789 50.691,13.82 50.596,13.819L3.1,13.325C3.011,13.324 2.924,13.295 2.852,13.243L0.195,11.283C0.075,11.195 0.011,11.052 0.024,10.904C0.037,10.756 0.126,10.626 0.259,10.561Z" />
      <path d="M0.259,10.561C10.341,5.597 28.057,0.893 55.143,0C55.258,-0.004 55.369,0.039 55.452,0.119C55.535,0.199 55.581,0.31 55.581,0.425L55.581,9.884C55.581,10.015 55.52,10.14 55.416,10.22L50.86,13.73C50.784,13.789 50.691,13.82 50.596,13.819L3.1,13.325C3.011,13.324 2.924,13.295 2.852,13.243L0.195,11.283C0.075,11.195 0.011,11.052 0.024,10.904C0.037,10.756 0.126,10.626 0.259,10.561ZM1.264,11.017L3.246,12.478L50.458,12.968L54.732,9.675L54.732,0.864C28.621,1.767 11.326,6.226 1.264,11.017Z" style="fill:currentColor;" />
      <path d="M18.081,12.066C14.365,10.989 14.08,7.606 18.164,6.225C18.36,6.225 18.85,5.86 19.046,5.906C19.32,6.134 19.928,7.024 19.673,7.275C19.477,7.435 19.066,7.515 19.144,7.754C19.556,8.062 20.163,7.663 20.692,7.903C20.81,7.994 22.397,8.245 22.672,8.245C23.671,7.526 24.729,6.773 25.748,6.02C25.388,5.766 24.775,5.065 24.613,4.54C25.97,4.285 31.209,3.443 32.331,3.287C31.452,3.769 30.577,4.25 29.707,4.73C29.57,4.844 29.374,4.856 29.433,5.004C29.746,5.004 30.256,5.153 30.53,5.004C32.128,4.302 33.73,3.6 35.334,2.897C36.637,2.738 37.971,2.59 39.337,2.452C37.037,3.242 34.742,4.032 32.47,4.833C32.254,5.004 32.215,5.586 32.627,5.7L51.677,1.554C52.498,1.516 53.327,1.481 54.166,1.45L54.166,3.319C46.188,4.467 38.189,5.845 30.06,6.613C29.668,6.465 29.785,6.065 29.864,5.792C29.942,5.632 28.707,5.689 28.433,5.483C27.355,5.974 26.434,6.602 25.494,7.161C25.768,7.241 26.101,7.195 26.297,7.309C26.846,7.583 26.846,8.017 26.787,8.37C26.787,8.564 26.532,8.724 26.395,8.918C26.062,9.089 25.592,8.964 25.258,9.044C24.984,9.169 24.71,9.375 24.376,9.329C23.828,9.295 23.22,9.101 22.75,9.306C22.554,9.42 22.358,9.614 22.417,9.82C23.122,10.048 23.495,10.094 23.985,10.47C24.396,10.47 25.004,10.584 25.278,10.345C25.415,10.345 25.552,10.425 25.748,10.47C27.924,10.847 30.06,11.258 32.313,11.725C32.431,11.486 32.842,11.52 33.117,11.372C33.979,11.2 33.861,11.828 34.273,12.068L35.119,12.243L30.872,12.199L25.552,10.698C24.808,10.71 24.396,11.143 24.612,11.497C24.69,11.566 24.886,11.531 24.964,11.486C25.278,11.349 26.807,11.497 27.159,11.543C27.375,11.703 27.669,11.794 27.943,11.874C28.025,11.981 27.973,12.076 27.93,12.168L24.706,12.135C24.622,12.014 24.574,11.877 24.357,11.817C23.978,11.913 23.608,12.023 23.232,12.119L18.081,12.066ZM22.528,4.947L22.476,5.175C22.28,5.255 22.064,5.335 22.005,5.449C22.005,5.563 22.221,5.723 22.025,5.757C21.672,5.837 21.417,6.043 21.065,5.974C20.597,5.815 19.936,5.859 19.582,5.58C20.538,5.363 21.52,5.152 22.528,4.947ZM40.603,8.998C40.893,9.098 41.305,8.814 41.602,8.907C42.119,9.069 42.837,9.261 43.503,9.249C43.777,9.329 43.777,9.534 43.856,9.683C43.915,9.797 44.189,9.922 43.993,10.082C43.993,10.162 43.797,10.242 43.66,10.31C43.386,10.322 43.131,10.276 42.856,10.242C42.033,10.253 41.367,10.527 40.544,10.413C40.074,10.265 39.643,10.219 39.035,10.151C38.545,10.071 38.761,9.797 38.682,9.603C38.31,9.318 37.859,9.181 37.859,8.781C38.055,8.61 38.388,8.69 38.741,8.736C39.349,8.884 40.025,8.965 40.603,8.998ZM23.24,6.385C23.558,6.378 23.853,6.434 23.847,6.613C23.926,6.693 23.73,6.819 23.651,6.898C23.671,7.252 22.985,7.332 22.593,7.537C22.123,7.652 21.77,7.458 21.437,7.298C21.025,7.229 20.281,7.503 20.085,7.15C20.144,6.841 20.614,6.716 20.731,6.442C21.084,6.202 21.672,6.237 22.221,6.157C22.632,6.157 22.907,6.351 23.24,6.385ZM39.436,12.287C39.281,12.16 39.191,12.023 39.29,11.862C39.564,11.782 39.76,11.588 40.034,11.543L40.034,11.463C38.388,11.2 36.84,11.064 35.214,10.801L34.743,10.801L30.471,10.242C29.805,10.162 29.295,10.173 28.688,10.059C28.413,9.979 27.982,9.945 27.767,9.854C30.275,10.037 32.98,10.139 35.488,10.322C35.743,10.208 35.547,10.014 35.606,9.854C35.743,9.694 36.135,9.569 36.331,9.455C37.075,9.455 37.702,9.797 38.055,10.116L38.388,10.504L51.528,11.429L50.268,12.4L39.436,12.287ZM54.166,9.043L33.058,8.177L32.98,8.211C33.195,8.37 33.332,8.633 33.117,8.827C32.98,8.987 32.627,9.146 32.352,9.181C32.156,9.146 31.921,9.089 31.863,9.01C31.725,8.85 31.902,8.69 31.627,8.61C31.157,8.656 30.981,8.861 30.648,8.941C30.099,8.941 29.511,8.724 29.295,8.405C29.295,8.291 29.668,8.142 29.374,8.028C29.119,8.04 28.825,8.005 28.609,7.971L28.688,7.925C37.161,7.736 45.69,7.404 54.166,7.336L54.166,9.043ZM54.166,6.716L34.175,7.093L54.166,5.308L54.166,6.716ZM44.491,1.995C44.553,2.066 44.614,2.151 44.659,2.243C44.488,2.331 44.13,2.323 44.071,2.482C44.209,2.87 43.523,3.041 43.19,3.27C42.719,3.429 42.19,3.361 41.779,3.441C41.093,3.361 40.564,3.806 39.897,3.532C39.819,3.258 39.074,3.178 39.211,2.859C39.366,2.667 39.626,2.512 39.933,2.393C41.415,2.247 42.934,2.114 44.491,1.995Z" style="fill:currentColor;" />
    </symbol>
    <symbol id="warhead-radiation" viewBox="0 0 56 14">
      <path d="M0.259,10.561C10.341,5.597 28.057,0.893 55.143,0C55.258,-0.004 55.369,0.039 55.452,0.119C55.535,0.199 55.581,0.31 55.581,0.425L55.581,9.884C55.581,10.015 55.52,10.14 55.416,10.22L50.86,13.73C50.784,13.789 50.691,13.82 50.596,13.819L3.1,13.325C3.011,13.324 2.924,13.295 2.852,13.243L0.195,11.283C0.075,11.195 0.011,11.052 0.024,10.904C0.037,10.756 0.126,10.626 0.259,10.561Z" />
      <path d="M43.6,2.065L41.809,5.166C40.967,4.68 39.929,4.68 39.087,5.166L37.624,2.632C39.551,2.421 41.542,2.231 43.6,2.065ZM32.57,12.216C31.739,10.82 31.279,9.205 31.279,7.524L37.726,7.524C37.726,8.496 38.245,9.395 39.087,9.881L37.708,12.27L32.57,12.216ZM43.221,12.327L41.809,9.881C42.652,9.395 43.171,8.496 43.171,7.524L49.618,7.524C49.618,9.27 49.121,10.946 48.227,12.379L43.221,12.327ZM40.448,5.748C41.361,5.748 42.103,6.489 42.103,7.402C42.103,8.315 41.361,9.056 40.448,9.056C39.535,9.056 38.794,8.315 38.794,7.402C38.794,6.489 39.535,5.748 40.448,5.748Z" style="fill:currentColor;" />
      <path d="M0.259,10.561C10.341,5.597 28.057,0.893 55.143,0C55.258,-0.004 55.369,0.039 55.452,0.119C55.535,0.199 55.581,0.31 55.581,0.425L55.581,9.884C55.581,10.015 55.52,10.14 55.416,10.22L50.86,13.73C50.784,13.789 50.691,13.82 50.596,13.819L3.1,13.325C3.011,13.324 2.924,13.295 2.852,13.243L0.195,11.283C0.075,11.195 0.011,11.052 0.024,10.904C0.037,10.756 0.126,10.626 0.259,10.561ZM1.264,11.017L3.246,12.478L50.458,12.968L54.732,9.675L54.732,0.864C28.621,1.767 11.326,6.226 1.264,11.017Z" style="fill:currentColor;" />
    </symbol>
    <symbol id="guidance-visual" viewBox="0 0 28 14">
      <path d="M0,2.048C-0,1.457 0.255,0.894 0.701,0.506C1.146,0.117 1.738,-0.061 2.321,0.019C14.395,1.585 20.919,5.383 26.89,10.876C27.691,11.613 27.668,12.044 27.751,12.953C27.762,13.071 27.723,13.189 27.643,13.277C27.562,13.365 27.449,13.415 27.33,13.415L2.816,13.415C2.069,13.415 1.353,13.118 0.825,12.59C0.297,12.062 0,11.346 0,10.599L0,2.048Z" />
      <path d="M0,2.048L0,10.599C0,11.346 0.297,12.062 0.825,12.59C1.353,13.118 2.069,13.415 2.816,13.415L27.33,13.415C27.449,13.415 27.562,13.365 27.643,13.277C27.723,13.189 27.762,13.071 27.751,12.953C27.668,12.044 27.691,11.613 26.89,10.876C20.919,5.383 14.395,1.585 2.324,0.019C1.738,-0.061 1.146,0.117 0.701,0.506C0.255,0.894 -0,1.457 0,2.048ZM0.847,2.048C0.847,1.701 0.997,1.371 1.258,1.143C1.519,0.915 1.866,0.811 2.209,0.858L2.212,0.858C14.056,2.395 20.459,6.111 26.317,11.499C26.748,11.896 26.832,12.18 26.87,12.568L2.816,12.568C2.294,12.568 1.793,12.361 1.424,11.991C1.054,11.622 0.847,11.121 0.847,10.599L0.847,2.048Z" style="fill:currentColor;" />
      <path d="M15.303,4.731C15.426,5.48 15.497,6.334 15.497,7.241C15.497,9.307 15.129,11.1 14.615,12.003C13.611,12.003 12.609,12.003 11.637,12.003L2.21,7.651C2.053,7.578 1.948,7.42 1.948,7.241C1.948,7.062 2.053,6.903 2.21,6.831L10.457,3.023C10.903,3.148 11.34,3.278 11.766,3.413L4.455,6.789L8.964,6.789L8.314,6.074C8.146,5.89 8.16,5.604 8.344,5.436C8.529,5.269 8.815,5.282 8.982,5.467L10.319,6.937C10.396,7.021 10.437,7.129 10.437,7.241C10.437,7.352 10.396,7.461 10.319,7.545L8.926,9.077C8.758,9.261 8.472,9.275 8.288,9.107C8.103,8.94 8.09,8.654 8.257,8.469L8.964,7.692L4.455,7.692L12.053,11.201C11.727,10.217 11.515,8.807 11.515,7.241C11.515,5.779 11.699,4.454 11.989,3.485C12.278,3.578 12.562,3.673 12.842,3.771C12.578,4.66 12.418,5.887 12.418,7.241C12.418,8.868 12.649,10.313 13.015,11.208C13.118,11.459 13.228,11.661 13.351,11.8L13.564,11.898C13.595,11.877 13.624,11.842 13.657,11.805C13.782,11.667 13.893,11.462 13.997,11.208C14.363,10.313 14.594,8.868 14.594,7.241C14.594,6.147 14.49,5.136 14.31,4.318C14.648,4.452 14.978,4.59 15.303,4.731Z" style="fill:currentColor;" />
    </symbol>
    <symbol id="guidance-gravimetric" viewBox="0 0 28 14">
      <path d="M0.078,2.046C0.078,1.455 0.333,0.893 0.778,0.505C1.222,0.117 1.813,-0.061 2.396,0.019C14.457,1.583 20.973,5.377 26.938,10.864C27.738,11.6 27.715,12.03 27.798,12.938C27.809,13.057 27.77,13.174 27.689,13.262C27.609,13.35 27.496,13.4 27.377,13.4L2.891,13.4C2.145,13.4 1.429,13.104 0.902,12.576C0.374,12.049 0.078,11.333 0.078,10.587L0.078,2.046Z" />
      <path d="M0.078,2.046C0.078,1.455 0.333,0.893 0.778,0.505C1.222,0.117 1.813,-0.061 2.396,0.019C14.457,1.583 20.973,5.377 26.938,10.864C27.738,11.6 27.715,12.03 27.798,12.938C27.809,13.057 27.77,13.174 27.689,13.262C27.609,13.35 27.496,13.4 27.377,13.4L2.891,13.4C2.145,13.4 1.429,13.104 0.902,12.576C0.374,12.049 0.078,11.333 0.078,10.587L0.078,2.046ZM0.924,2.046L0.924,10.587C0.924,11.109 1.131,11.609 1.5,11.978C1.869,12.347 2.369,12.554 2.891,12.554C2.891,12.554 26.918,12.554 26.918,12.554C26.88,12.166 26.796,11.883 26.365,11.487C20.514,6.104 14.118,2.392 2.287,0.857L2.285,0.857C1.942,0.81 1.595,0.914 1.334,1.142C1.073,1.37 0.924,1.699 0.924,2.046Z" style="fill:currentColor;" />
      <path d="M3.732,1.617C2.754,2.31 1.985,3.241 1.488,4.305L1.488,2.972C1.861,2.423 2.308,1.923 2.818,1.487C3.126,1.529 3.431,1.572 3.732,1.617ZM6.148,11.99C3.46,11.132 1.952,8.159 2.985,5.426L3.454,6.623C3.189,8.555 4.267,10.422 6.073,11.159L6.736,11.99C6.534,11.99 6.338,11.99 6.148,11.99ZM8.64,11.99L9.303,11.159C11.109,10.422 12.187,8.555 11.922,6.623L12.391,5.426C13.424,8.159 11.916,11.132 9.228,11.99C9.029,11.99 8.833,11.99 8.64,11.99ZM14.686,4.487C15.33,6.139 15.398,8.033 14.709,9.855L14.468,8.131C14.661,6.726 14.41,5.342 13.808,4.14C14.105,4.253 14.398,4.369 14.686,4.487ZM10.538,3.058C10.918,3.32 11.269,3.64 11.578,4.018L10.307,3.826C8.766,2.63 6.61,2.63 5.068,3.826L3.797,4.018C4.661,2.962 5.848,2.36 7.08,2.211C8.298,2.464 9.448,2.747 10.538,3.058ZM5.696,8.833L6.479,8.761C7.19,9.313 8.185,9.313 8.897,8.761L9.679,8.833C8.65,10.091 6.726,10.091 5.696,8.833ZM10.095,8.112L9.642,7.47C9.764,6.578 9.266,5.717 8.433,5.377L8.104,4.663C9.708,4.925 10.67,6.591 10.095,8.112ZM7.272,4.663L6.943,5.377C6.109,5.717 5.612,6.578 5.734,7.47L5.28,8.112C4.706,6.591 5.667,4.925 7.272,4.663Z" style="fill:currentColor;" />
    </symbol>
    <symbol id="guidance-infrared" viewBox="0 0 28 14">
      <path d="M0.078,2.046C0.078,1.455 0.333,0.893 0.778,0.505C1.222,0.117 1.813,-0.061 2.396,0.019C14.457,1.583 20.973,5.377 26.938,10.864C27.738,11.6 27.715,12.03 27.798,12.938C27.809,13.057 27.77,13.174 27.689,13.262C27.609,13.35 27.496,13.4 27.377,13.4L2.891,13.4C2.145,13.4 1.429,13.104 0.902,12.576C0.374,12.049 0.078,11.333 0.078,10.587L0.078,2.046Z" />
      <path d="M0.078,2.046C0.078,1.455 0.333,0.893 0.778,0.505C1.222,0.117 1.813,-0.061 2.396,0.019C14.457,1.583 20.973,5.377 26.938,10.864C27.738,11.6 27.715,12.03 27.798,12.938C27.809,13.057 27.77,13.174 27.689,13.262C27.609,13.35 27.496,13.4 27.377,13.4L2.891,13.4C2.145,13.4 1.429,13.104 0.902,12.576C0.374,12.049 0.078,11.333 0.078,10.587L0.078,2.046ZM0.924,2.046L0.924,10.587C0.924,11.109 1.131,11.609 1.5,11.978C1.869,12.347 2.369,12.554 2.891,12.554C2.891,12.554 26.918,12.554 26.918,12.554C26.88,12.166 26.796,11.883 26.365,11.487C20.514,6.104 14.277,2.394 2.446,0.859L2.285,0.857C1.942,0.81 1.595,0.914 1.334,1.142C1.073,1.37 0.924,1.699 0.924,2.046Z" style="fill:currentColor;" />
      <path d="M7.645,8.24L1.525,8.24L1.525,7.011L7.645,7.011C7.882,6.469 8.423,6.091 9.051,6.091C9.898,6.091 10.586,6.778 10.586,7.625C10.586,8.472 9.898,9.16 9.051,9.16C8.423,9.16 7.882,8.781 7.645,8.24Z" style="fill:currentColor;" />
      <path d="M12.681,11.99C12.684,11.961 12.698,11.933 12.723,11.913C14.016,10.887 14.845,9.303 14.845,7.526C14.845,6.167 14.36,4.921 13.554,3.951C14.253,4.206 14.927,4.475 15.578,4.758C15.949,5.606 16.155,6.542 16.155,7.526C16.155,9.227 15.539,10.786 14.518,11.99C13.901,11.99 13.287,11.99 12.681,11.99ZM11.636,4.387C11.654,4.363 11.68,4.348 11.71,4.345C11.739,4.341 11.768,4.349 11.791,4.368C12.713,5.112 13.302,6.25 13.302,7.526C13.302,8.801 12.713,9.94 11.791,10.684C11.768,10.702 11.739,10.71 11.71,10.706C11.681,10.703 11.654,10.688 11.636,10.664C11.505,10.492 11.215,10.111 11.086,9.941C11.05,9.894 11.058,9.827 11.104,9.79C11.758,9.253 12.176,8.438 12.176,7.526C12.176,6.614 11.758,5.798 11.104,5.261C11.058,5.224 11.05,5.157 11.086,5.11C11.215,4.94 11.505,4.559 11.636,4.387Z" style="fill:currentColor;" />
    </symbol>
  </defs>
</svg>