<svg xmlns="http://www.w3.org/2000/svg" xml:space="preserve" style="fill-rule:evenodd;clip-rule:evenodd;stroke-linejoin:round;stroke-miterlimit:2" viewBox="0 0 24 24"><path d="M18.586 15H13c-.55 0-1-.45-1-1s.45-1 1-1h5.586l-2.293-2.293a1 1 0 0 1 1.414-1.414l4 4a.997.997 0 0 1 0 1.414l-4 4a1 1 0 0 1-1.414-1.414L18.586 15ZM14 16v4c0 1.646-1.354 3-3 3H5c-1.646 0-3-1.354-3-3V8c0-1.646 1.354-3 3-3h6c1.646 0 3 1.354 3 3v4h-1a2.056 2.056 0 0 0-.4 0l-.4.2H12V8c0-.6-.4-1-1-1H5c-.549 0-1 .451-1 1v12c0 .6.4 1 1 1h6c.6 0 1-.4 1-1v-4.3c.3.2.6.3 1 .3h1ZM7 3a1 1 0 0 1 0-2h2a1 1 0 0 1 0 2H7Zm0 16a1 1 0 0 1 0-2h2a1 1 0 0 1 0 2H7Zm0-4a1 1 0 0 1 0-2h2a1 1 0 0 1 0 2H7Zm0-4a1 1 0 0 1 0-2h2a1 1 0 0 1 0 2H7Z" fill="currentColor"/></svg>