<svg xmlns="http://www.w3.org/2000/svg" xml:space="preserve" style="fill-rule:evenodd;clip-rule:evenodd;stroke-linejoin:round;stroke-miterlimit:2" viewBox="0 0 24 24"><path d="M10 10.2V8c0-1.646 1.354-3 3-3h6c1.646 0 3 1.354 3 3v12c0 1.646-1.354 3-3 3h-6c-1.646 0-3-1.354-3-3v-2.2l2-2V20c0 .6.4 1 1 1h6c.6 0 1-.4 1-1V8c0-.6-.4-1-1-1h-6c-.549 0-1 .451-1 1v4.2l-2-2ZM8.586 13l-2.293-2.293a1 1 0 0 1 1.414-1.414l4 4a.997.997 0 0 1 0 1.414l-4 4a1 1 0 0 1-1.414-1.414L8.586 15H3a1 1 0 0 1 0-2h5.586ZM15 3a1 1 0 0 1 0-2h2a1 1 0 0 1 0 2h-2Zm0 16a1 1 0 0 1 0-2h2a1 1 0 0 1 0 2h-2Zm0-4a1 1 0 0 1 0-2h2a1 1 0 0 1 0 2h-2Zm0-4a1 1 0 0 1 0-2h2a1 1 0 0 1 0 2h-2Z" fill="currentColor"/></svg>