<?xml version="1.0" encoding="UTF-8"?>
<svg
  xmlns="http://www.w3.org/2000/svg"
  xmlns:xlink="http://www.w3.org/1999/xlink"
  width="0"
  height="0"
>
  <defs>
    <symbol
      viewBox="0 0 24 24"
      fill="none"
      stroke="currentColor"
      stroke-width="2"
      stroke-linecap="round"
      stroke-linejoin="round"
      id="zap"
    >
      <polygon points="13 2 3 14 12 14 11 22 21 10 12 10 13 2"></polygon>
    </symbol>
    <symbol
      viewBox="0 0 24 24"
      fill="none"
      stroke="currentColor"
      stroke-width="2"
      stroke-linecap="round"
      stroke-linejoin="round"
      id="x"
    >
      <path d="M18 6 6 18"></path>
      <path d="m6 6 12 12"></path>
    </symbol>
    <symbol
      viewBox="0 0 24 24"
      fill="none"
      stroke="currentColor"
      stroke-width="2"
      stroke-linecap="round"
      stroke-linejoin="round"
      id="text-cursor-input"
    >
      <path d="M5 4h1a3 3 0 0 1 3 3 3 3 0 0 1 3-3h1"></path>
      <path d="M13 20h-1a3 3 0 0 1-3-3 3 3 0 0 1-3 3H5"></path>
      <path d="M5 16H4a2 2 0 0 1-2-2v-4a2 2 0 0 1 2-2h1"></path>
      <path d="M13 8h7a2 2 0 0 1 2 2v4a2 2 0 0 1-2 2h-7"></path>
      <path d="M9 7v10"></path>
    </symbol>
    <symbol
      viewBox="0 0 24 24"
      fill="none"
      stroke="currentColor"
      stroke-width="2"
      stroke-linecap="round"
      stroke-linejoin="round"
      id="sword"
    >
      <polyline points="14.5 17.5 3 6 3 3 6 3 17.5 14.5"></polyline>
      <line x1="13" x2="19" y1="19" y2="13"></line>
      <line x1="16" x2="20" y1="16" y2="20"></line>
      <line x1="19" x2="21" y1="21" y2="19"></line>
    </symbol>
    <symbol
      viewBox="0 0 24 24"
      fill="none"
      stroke="currentColor"
      stroke-width="2"
      stroke-linecap="round"
      stroke-linejoin="round"
      id="star"
    >
      <polygon
        points="12 2 15.09 8.26 22 9.27 17 14.14 18.18 21.02 12 17.77 5.82 21.02 7 14.14 2 9.27 8.91 8.26 12 2"
      ></polygon>
    </symbol>
    <symbol
      viewBox="0 0 24 24"
      fill="none"
      stroke="currentColor"
      stroke-width="2"
      stroke-linecap="round"
      stroke-linejoin="round"
      id="sparkles"
    >
      <path
        d="m12 3-1.912 5.813a2 2 0 0 1-1.275 1.275L3 12l5.813 1.912a2 2 0 0 1 1.275 1.275L12 21l1.912-5.813a2 2 0 0 1 1.275-1.275L21 12l-5.813-1.912a2 2 0 0 1-1.275-1.275L12 3Z"
      ></path>
      <path d="M5 3v4"></path>
      <path d="M19 17v4"></path>
      <path d="M3 5h4"></path>
      <path d="M17 19h4"></path>
    </symbol>
    <symbol
      viewBox="0 0 24 24"
      fill="none"
      stroke="currentColor"
      stroke-width="2"
      stroke-linecap="round"
      stroke-linejoin="round"
      id="siren"
    >
      <path d="M7 12a5 5 0 0 1 5-5v0a5 5 0 0 1 5 5v6H7v-6Z"></path>
      <path d="M5 20a2 2 0 0 1 2-2h10a2 2 0 0 1 2 2v2H5v-2Z"></path>
      <path d="M21 12h1"></path>
      <path d="M18.5 4.5 18 5"></path>
      <path d="M2 12h1"></path>
      <path d="M12 2v1"></path>
      <path d="m4.929 4.929.707.707"></path>
      <path d="M12 12v6"></path>
    </symbol>
    <symbol
      viewBox="0 0 24 24"
      fill="none"
      stroke="currentColor"
      stroke-width="2"
      stroke-linecap="round"
      stroke-linejoin="round"
      id="shield-half"
    >
      <path d="M12 22s8-4 8-10V5l-8-3-8 3v7c0 6 8 10 8 10"></path>
      <path d="M12 22V2"></path>
    </symbol>
    <symbol
      viewBox="0 0 24 24"
      fill="none"
      stroke="currentColor"
      stroke-width="2"
      stroke-linecap="round"
      stroke-linejoin="round"
      id="route"
    >
      <circle cx="6" cy="19" r="3"></circle>
      <path d="M9 19h8.5a3.5 3.5 0 0 0 0-7h-11a3.5 3.5 0 0 1 0-7H15"></path>
      <circle cx="18" cy="5" r="3"></circle>
    </symbol>
    <symbol
      viewBox="0 0 24 24"
      fill="none"
      stroke="currentColor"
      stroke-width="2"
      stroke-linecap="round"
      stroke-linejoin="round"
      id="rocket"
    >
      <path
        d="M4.5 16.5c-1.5 1.26-2 5-2 5s3.74-.5 5-2c.71-.84.7-2.13-.09-2.91a2.18 2.18 0 0 0-2.91-.09z"
      ></path>
      <path
        d="m12 15-3-3a22 22 0 0 1 2-3.95A12.88 12.88 0 0 1 22 2c0 2.72-.78 7.5-6 11a22.35 22.35 0 0 1-4 2z"
      ></path>
      <path d="M9 12H4s.55-3.03 2-4c1.62-1.08 5 0 5 0"></path>
      <path d="M12 15v5s3.03-.55 4-2c1.08-1.62 0-5 0-5"></path>
    </symbol>
    <symbol
      viewBox="0 0 24 24"
      fill="none"
      stroke="currentColor"
      stroke-width="2"
      stroke-linecap="round"
      stroke-linejoin="round"
      id="repeat-2"
    >
      <path d="m2 9 3-3 3 3"></path>
      <path d="M13 18H7a2 2 0 0 1-2-2V6"></path>
      <path d="m22 15-3 3-3-3"></path>
      <path d="M11 6h6a2 2 0 0 1 2 2v10"></path>
    </symbol>
    <symbol
      stroke="currentColor"
      fill="none"
      stroke-width="2"
      viewBox="0 0 24 24"
      stroke-linecap="round"
      stroke-linejoin="round"
      class="text-5xl"
      id="reactor"
    >
      <desc></desc>
      <path stroke="none" d="M0 0h24v24H0z" fill="none"></path>
      <circle cx="12" cy="12" r="3"></circle>
      <line x1="12" y1="21" x2="12" y2="21.01"></line>
      <line x1="3" y1="9" x2="3" y2="9.01"></line>
      <line x1="21" y1="9" x2="21" y2="9.01"></line>
      <path d="M8 20.1a9 9 0 0 1 -5 -7.1"></path>
      <path d="M16 20.1a9 9 0 0 0 5 -7.1"></path>
      <path d="M6.2 5a9 9 0 0 1 11.4 0"></path>
    </symbol>
    <symbol
      stroke="currentColor"
      fill="currentColor"
      stroke-width="0"
      viewBox="0 0 16 16"
      id="power-node"
    >
      <path
        d="M11 13a5 5 0 1 0-4.975-5.5H4A1.5 1.5 0 0 0 2.5 6h-1A1.5 1.5 0 0 0 0 7.5v1A1.5 1.5 0 0 0 1.5 10h1A1.5 1.5 0 0 0 4 8.5h2.025A5 5 0 0 0 11 13zm.5-7.5v2h2a.5.5 0 0 1 0 1h-2v2a.5.5 0 0 1-1 0v-2h-2a.5.5 0 0 1 0-1h2v-2a.5.5 0 0 1 1 0z"
      ></path>
    </symbol>
    <symbol
      viewBox="0 0 24 24"
      fill="none"
      stroke="currentColor"
      stroke-width="2"
      stroke-linecap="round"
      stroke-linejoin="round"
      id="plus"
    >
      <path d="M5 12h14"></path>
      <path d="M12 5v14"></path>
    </symbol>
    <symbol
      viewBox="0 0 24 24"
      fill="none"
      stroke="currentColor"
      stroke-width="2"
      stroke-linecap="round"
      stroke-linejoin="round"
      id="plug"
    >
      <path d="M12 22v-5"></path>
      <path d="M9 8V2"></path>
      <path d="M15 8V2"></path>
      <path d="M18 8v5a4 4 0 0 1-4 4h-4a4 4 0 0 1-4-4V8Z"></path>
    </symbol>
    <symbol
      viewBox="0 0 24 24"
      fill="none"
      stroke="currentColor"
      stroke-width="2"
      stroke-linecap="round"
      stroke-linejoin="round"
      id="plug-zap"
    >
      <path
        d="M6.3 20.3a2.4 2.4 0 0 0 3.4 0L12 18l-6-6-2.3 2.3a2.4 2.4 0 0 0 0 3.4Z"
      ></path>
      <path d="m2 22 3-3"></path>
      <path d="M7.5 13.5 10 11"></path>
      <path d="M10.5 16.5 13 14"></path>
      <path d="m18 3-4 4h6l-4 4"></path>
    </symbol>
    <symbol
      viewBox="0 0 24 24"
      fill="none"
      stroke="currentColor"
      stroke-width="2"
      stroke-linecap="round"
      stroke-linejoin="round"
      id="picture-in-picture"
    >
      <path
        d="M8 4.5v5H3m-1-6 6 6m13 0v-3c0-1.16-.84-2-2-2h-7m-9 9v2c0 1.05.95 2 2 2h3"
      ></path>
      <rect width="10" height="7" x="12" y="13.5" ry="2"></rect>
    </symbol>
    <symbol
      viewBox="0 0 24 24"
      fill="none"
      stroke="currentColor"
      stroke-width="2"
      stroke-linecap="round"
      stroke-linejoin="round"
      id="pencil"
    >
      <path d="M17 3a2.85 2.83 0 1 1 4 4L7.5 20.5 2 22l1.5-5.5Z"></path>
      <path d="m15 5 4 4"></path>
    </symbol>
    <symbol
      viewBox="0 0 24 24"
      fill="none"
      stroke="currentColor"
      stroke-width="2"
      stroke-linecap="round"
      stroke-linejoin="round"
      id="package-open"
    >
      <path
        d="M20.91 8.84 8.56 2.23a1.93 1.93 0 0 0-1.81 0L3.1 4.13a2.12 2.12 0 0 0-.05 3.69l12.22 6.93a2 2 0 0 0 1.94 0L21 12.51a2.12 2.12 0 0 0-.09-3.67Z"
      ></path>
      <path
        d="m3.09 8.84 12.35-6.61a1.93 1.93 0 0 1 1.81 0l3.65 1.9a2.12 2.12 0 0 1 .1 3.69L8.73 14.75a2 2 0 0 1-1.94 0L3 12.51a2.12 2.12 0 0 1 .09-3.67Z"
      ></path>
      <line x1="12" x2="12" y1="22" y2="13"></line>
      <path
        d="M20 13.5v3.37a2.06 2.06 0 0 1-1.11 1.83l-6 3.08a1.93 1.93 0 0 1-1.78 0l-6-3.08A2.06 2.06 0 0 1 4 16.87V13.5"
      ></path>
    </symbol>
    <symbol
      viewBox="0 0 24 24"
      fill="none"
      stroke="currentColor"
      stroke-width="2"
      stroke-linecap="round"
      stroke-linejoin="round"
      id="orbit"
    >
      <circle cx="12" cy="12" r="3"></circle>
      <circle cx="19" cy="5" r="2"></circle>
      <circle cx="5" cy="19" r="2"></circle>
      <path d="M10.4 21.9a10 10 0 0 0 9.941-15.416"></path>
      <path d="M13.5 2.1a10 10 0 0 0-9.841 15.416"></path>
    </symbol>
    <symbol
      viewBox="0 0 24 24"
      fill="none"
      stroke="currentColor"
      stroke-width="2"
      stroke-linecap="round"
      stroke-linejoin="round"
      id="minus"
    >
      <path d="M5 12h14"></path>
    </symbol>
    <symbol
      viewBox="0 0 24 24"
      fill="none"
      stroke="currentColor"
      stroke-width="2"
      stroke-linecap="round"
      stroke-linejoin="round"
      id="log-out"
    >
      <path d="M9 21H5a2 2 0 0 1-2-2V5a2 2 0 0 1 2-2h4"></path>
      <polyline points="16 17 21 12 16 7"></polyline>
      <line x1="21" x2="9" y1="12" y2="12"></line>
    </symbol>
    <symbol
      viewBox="0 0 24 24"
      fill="none"
      stroke="currentColor"
      stroke-width="2"
      stroke-linecap="round"
      stroke-linejoin="round"
      id="loader"
    >
      <line x1="12" x2="12" y1="2" y2="6"></line>
      <line x1="12" x2="12" y1="18" y2="22"></line>
      <line x1="4.93" x2="7.76" y1="4.93" y2="7.76"></line>
      <line x1="16.24" x2="19.07" y1="16.24" y2="19.07"></line>
      <line x1="2" x2="6" y1="12" y2="12"></line>
      <line x1="18" x2="22" y1="12" y2="12"></line>
      <line x1="4.93" x2="7.76" y1="19.07" y2="16.24"></line>
      <line x1="16.24" x2="19.07" y1="7.76" y2="4.93"></line>
    </symbol>
    <symbol
      viewBox="0 0 24 24"
      fill="none"
      stroke="currentColor"
      stroke-width="2"
      stroke-linecap="round"
      stroke-linejoin="round"
      id="joystick"
    >
      <path
        d="M21 17a2 2 0 0 0-2-2H5a2 2 0 0 0-2 2v2a2 2 0 0 0 2 2h14a2 2 0 0 0 2-2v-2Z"
      ></path>
      <path d="M6 15v-2"></path>
      <path d="M12 15V9"></path>
      <circle cx="12" cy="6" r="3"></circle>
    </symbol>
    <symbol
      viewBox="0 0 24 24"
      fill="none"
      stroke="currentColor"
      stroke-width="2"
      stroke-linecap="round"
      stroke-linejoin="round"
      id="info"
    >
      <circle cx="12" cy="12" r="10"></circle>
      <path d="M12 16v-4"></path>
      <path d="M12 8h.01"></path>
    </symbol>
    <symbol
      viewBox="0 0 24 24"
      fill="none"
      stroke="currentColor"
      stroke-width="2"
      stroke-linecap="round"
      stroke-linejoin="round"
      id="home"
    >
      <path d="m3 9 9-7 9 7v11a2 2 0 0 1-2 2H5a2 2 0 0 1-2-2z"></path>
      <polyline points="9 22 9 12 15 12 15 22"></polyline>
    </symbol>
    <symbol
      viewBox="0 0 24 24"
      fill="none"
      stroke="currentColor"
      stroke-width="2"
      stroke-linecap="round"
      stroke-linejoin="round"
      id="hand"
    >
      <path d="M18 11V6a2 2 0 0 0-2-2v0a2 2 0 0 0-2 2v0"></path>
      <path d="M14 10V4a2 2 0 0 0-2-2v0a2 2 0 0 0-2 2v2"></path>
      <path d="M10 10.5V6a2 2 0 0 0-2-2v0a2 2 0 0 0-2 2v8"></path>
      <path
        d="M18 8a2 2 0 1 1 4 0v6a8 8 0 0 1-8 8h-2c-2.8 0-4.5-.86-5.99-2.34l-3.6-3.6a2 2 0 0 1 2.83-2.82L7 15"
      ></path>
    </symbol>
    <symbol
      viewBox="0 0 24 24"
      fill="none"
      stroke="currentColor"
      stroke-width="2"
      stroke-linecap="round"
      stroke-linejoin="round"
      id="git-pull-request-create"
    >
      <circle cx="6" cy="6" r="3"></circle>
      <path d="M6 9v12"></path>
      <path d="M13 6h3a2 2 0 0 1 2 2v3"></path>
      <path d="M18 15v6"></path>
      <path d="M21 18h-6"></path>
    </symbol>
    <symbol
      viewBox="0 0 24 24"
      fill="none"
      stroke="currentColor"
      stroke-width="2"
      stroke-linecap="round"
      stroke-linejoin="round"
      id="git-branch"
    >
      <line x1="6" x2="6" y1="3" y2="15"></line>
      <circle cx="18" cy="6" r="3"></circle>
      <circle cx="6" cy="18" r="3"></circle>
      <path d="M18 9a9 9 0 0 1-9 9"></path>
    </symbol>
    <symbol
      viewBox="0 0 24 24"
      fill="none"
      stroke="currentColor"
      stroke-width="2"
      stroke-linecap="round"
      stroke-linejoin="round"
      id="flame"
    >
      <path
        d="M8.5 14.5A2.5 2.5 0 0 0 11 12c0-1.38-.5-2-1-3-1.072-2.143-.224-4.054 2-6 .5 2.5 2 4.9 4 6.5 2 1.6 3 3.5 3 5.5a7 7 0 1 1-14 0c0-1.153.433-2.294 1-3a2.5 2.5 0 0 0 2.5 2.5z"
      ></path>
    </symbol>
    <symbol
      viewBox="0 0 24 24"
      fill="none"
      stroke="currentColor"
      stroke-width="2"
      stroke-linecap="round"
      stroke-linejoin="round"
      id="file-video"
    >
      <path
        d="M15 2H6a2 2 0 0 0-2 2v16a2 2 0 0 0 2 2h12a2 2 0 0 0 2-2V7Z"
      ></path>
      <path d="M14 2v4a2 2 0 0 0 2 2h4"></path>
      <path d="m10 11 5 3-5 3v-6Z"></path>
    </symbol>
    <symbol
      viewBox="0 0 24 24"
      fill="none"
      stroke="currentColor"
      stroke-width="2"
      stroke-linecap="round"
      stroke-linejoin="round"
      id="file-up"
    >
      <path
        d="M15 2H6a2 2 0 0 0-2 2v16a2 2 0 0 0 2 2h12a2 2 0 0 0 2-2V7Z"
      ></path>
      <path d="M14 2v4a2 2 0 0 0 2 2h4"></path>
      <path d="M12 12v6"></path>
      <path d="m15 15-3-3-3 3"></path>
    </symbol>
    <symbol
      viewBox="0 0 24 24"
      fill="none"
      stroke="currentColor"
      stroke-width="2"
      stroke-linecap="round"
      stroke-linejoin="round"
      id="file-type"
    >
      <path
        d="M15 2H6a2 2 0 0 0-2 2v16a2 2 0 0 0 2 2h12a2 2 0 0 0 2-2V7Z"
      ></path>
      <path d="M14 2v4a2 2 0 0 0 2 2h4"></path>
      <path d="M9 13v-1h6v1"></path>
      <path d="M12 12v6"></path>
      <path d="M11 18h2"></path>
    </symbol>
    <symbol
      viewBox="0 0 24 24"
      fill="none"
      stroke="currentColor"
      stroke-width="2"
      stroke-linecap="round"
      stroke-linejoin="round"
      id="file-text"
    >
      <path
        d="M15 2H6a2 2 0 0 0-2 2v16a2 2 0 0 0 2 2h12a2 2 0 0 0 2-2V7Z"
      ></path>
      <path d="M14 2v4a2 2 0 0 0 2 2h4"></path>
      <path d="M10 9H8"></path>
      <path d="M16 13H8"></path>
      <path d="M16 17H8"></path>
    </symbol>
    <symbol
      viewBox="0 0 24 24"
      fill="none"
      stroke="currentColor"
      stroke-width="2"
      stroke-linecap="round"
      stroke-linejoin="round"
      id="file-audio"
    >
      <path d="M17.5 22h.5a2 2 0 0 0 2-2V7l-5-5H6a2 2 0 0 0-2 2v3"></path>
      <path d="M14 2v4a2 2 0 0 0 2 2h4"></path>
      <path
        d="M2 19a2 2 0 1 1 4 0v1a2 2 0 1 1-4 0v-4a6 6 0 0 1 12 0v4a2 2 0 1 1-4 0v-1a2 2 0 1 1 4 0"
      ></path>
    </symbol>
    <symbol
      viewBox="0 0 24 24"
      fill="none"
      stroke="currentColor"
      stroke-width="2"
      stroke-linecap="round"
      stroke-linejoin="round"
      id="external-link"
    >
      <path d="M15 3h6v6"></path>
      <path d="M10 14 21 3"></path>
      <path d="M18 13v6a2 2 0 0 1-2 2H5a2 2 0 0 1-2-2V8a2 2 0 0 1 2-2h6"></path>
    </symbol>
    <symbol
      viewBox="0 0 24 24"
      fill="none"
      stroke="currentColor"
      stroke-width="2"
      stroke-linecap="round"
      stroke-linejoin="round"
      id="drafting-compass"
    >
      <circle cx="12" cy="5" r="2"></circle>
      <path d="m3 21 8.02-14.26"></path>
      <path d="m12.99 6.74 1.93 3.44"></path>
      <path d="M19 12c-3.87 4-10.13 4-14 0"></path>
      <path d="m21 21-2.16-3.84"></path>
    </symbol>
    <symbol
      viewBox="0 0 24 24"
      fill="none"
      stroke="currentColor"
      stroke-width="2"
      stroke-linecap="round"
      stroke-linejoin="round"
      id="database-zap"
    >
      <ellipse cx="12" cy="5" rx="9" ry="3"></ellipse>
      <path d="M3 5V19A9 3 0 0 0 15 21.84"></path>
      <path d="M21 5V8"></path>
      <path d="M21 12L18 17H22L19 22"></path>
      <path d="M3 12A9 3 0 0 0 14.59 14.87"></path>
    </symbol>
    <symbol
      viewBox="0 0 24 24"
      fill="none"
      stroke="currentColor"
      stroke-width="2"
      stroke-linecap="round"
      stroke-linejoin="round"
      id="crosshair"
    >
      <circle cx="12" cy="12" r="10"></circle>
      <line x1="22" x2="18" y1="12" y2="12"></line>
      <line x1="6" x2="2" y1="12" y2="12"></line>
      <line x1="12" x2="12" y1="6" y2="2"></line>
      <line x1="12" x2="12" y1="22" y2="18"></line>
    </symbol>
    <symbol
      viewBox="0 0 24 24"
      fill="none"
      stroke="currentColor"
      stroke-width="2"
      stroke-linecap="round"
      stroke-linejoin="round"
      id="circle-off"
    >
      <path d="m2 2 20 20"></path>
      <path d="M8.35 2.69A10 10 0 0 1 21.3 15.65"></path>
      <path d="M19.08 19.08A10 10 0 1 1 4.92 4.92"></path>
    </symbol>
    <symbol
      viewBox="0 0 24 24"
      fill="none"
      stroke="currentColor"
      stroke-width="2"
      stroke-linecap="round"
      stroke-linejoin="round"
      id="circle-dot"
    >
      <circle cx="12" cy="12" r="10"></circle>
      <circle cx="12" cy="12" r="1"></circle>
    </symbol>
    <symbol
      viewBox="0 0 24 24"
      fill="none"
      stroke="currentColor"
      stroke-width="2"
      stroke-linecap="round"
      stroke-linejoin="round"
      id="chevrons-up-down"
    >
      <path d="m7 15 5 5 5-5"></path>
      <path d="m7 9 5-5 5 5"></path>
    </symbol>
    <symbol
      viewBox="0 0 24 24"
      fill="none"
      stroke="currentColor"
      stroke-width="2"
      stroke-linecap="round"
      stroke-linejoin="round"
      id="chevron-up"
    >
      <path d="m18 15-6-6-6 6"></path>
    </symbol>
    <symbol
      viewBox="0 0 24 24"
      fill="none"
      stroke="currentColor"
      stroke-width="2"
      stroke-linecap="round"
      stroke-linejoin="round"
      id="chevron-right"
    >
      <path d="m9 18 6-6-6-6"></path>
    </symbol>
    <symbol
      viewBox="0 0 24 24"
      fill="none"
      stroke="currentColor"
      stroke-width="2"
      stroke-linecap="round"
      stroke-linejoin="round"
      id="chevron-left"
    >
      <path d="m15 18-6-6 6-6"></path>
    </symbol>
    <symbol
      viewBox="0 0 24 24"
      fill="none"
      stroke="currentColor"
      stroke-width="2"
      stroke-linecap="round"
      stroke-linejoin="round"
      id="chevron-down"
    >
      <path d="m6 9 6 6 6-6"></path>
    </symbol>
    <symbol
      viewBox="0 0 24 24"
      fill="none"
      stroke="currentColor"
      stroke-width="2"
      stroke-linecap="round"
      stroke-linejoin="round"
      id="check"
    >
      <path d="M20 6 9 17l-5-5"></path>
    </symbol>
    <symbol
      viewBox="0 0 24 24"
      fill="none"
      stroke="currentColor"
      stroke-width="2"
      stroke-linecap="round"
      stroke-linejoin="round"
      id="camera"
    >
      <path
        d="M14.5 4h-5L7 7H4a2 2 0 0 0-2 2v9a2 2 0 0 0 2 2h16a2 2 0 0 0 2-2V9a2 2 0 0 0-2-2h-3l-2.5-3z"
      ></path>
      <circle cx="12" cy="13" r="3"></circle>
    </symbol>
    <symbol
      viewBox="0 0 24 24"
      fill="none"
      stroke="currentColor"
      stroke-width="2"
      stroke-linecap="round"
      stroke-linejoin="round"
      id="brush"
    >
      <path
        d="m9.06 11.9 8.07-8.06a2.85 2.85 0 1 1 4.03 4.03l-8.06 8.08"
      ></path>
      <path
        d="M7.07 14.94c-1.66 0-3 1.35-3 3.02 0 1.33-2.5 1.52-2 2.02 1.08 1.1 2.49 2.02 4 2.02 2.2 0 4-1.8 4-4.04a3.01 3.01 0 0 0-3-3.02z"
      ></path>
    </symbol>
    <symbol
      viewBox="0 0 512 512"
      style="height: 512px; width: 512px"
      id="battery-pack-alt"
    >
      <g class="" transform="translate(0,0)" style="">
        <path
          d="M226 16c-24.93 0-45 13.38-45 30v15h-45c-29.547 0-60 30.453-60 60v315c0 29.547 30.453 60 60 60h240c29.547 0 60-30.453 60-60V121c0-29.547-30.453-60-60-60h-45V46c0-16.62-20.07-30-45-30h-60zm-90 105h240v315H136V121zm120 30v105h-75l75 150V301h75l-75-150z"
          fill="currentColor"
          fill-opacity="1"
        ></path>
      </g>
    </symbol>
    <symbol
      xml:space="preserve"
      style="
        fill-rule: evenodd;
        clip-rule: evenodd;
        stroke-linejoin: round;
        stroke-miterlimit: 2;
      "
      viewBox="0 0 24 24"
      id="battery-output"
    >
      <path
        d="M18.586 15H13c-.55 0-1-.45-1-1s.45-1 1-1h5.586l-2.293-2.293a1 1 0 0 1 1.414-1.414l4 4a.997.997 0 0 1 0 1.414l-4 4a1 1 0 0 1-1.414-1.414L18.586 15ZM14 16v4c0 1.646-1.354 3-3 3H5c-1.646 0-3-1.354-3-3V8c0-1.646 1.354-3 3-3h6c1.646 0 3 1.354 3 3v4h-1a2.056 2.056 0 0 0-.4 0l-.4.2H12V8c0-.6-.4-1-1-1H5c-.549 0-1 .451-1 1v12c0 .6.4 1 1 1h6c.6 0 1-.4 1-1v-4.3c.3.2.6.3 1 .3h1ZM7 3a1 1 0 0 1 0-2h2a1 1 0 0 1 0 2H7Zm0 16a1 1 0 0 1 0-2h2a1 1 0 0 1 0 2H7Zm0-4a1 1 0 0 1 0-2h2a1 1 0 0 1 0 2H7Zm0-4a1 1 0 0 1 0-2h2a1 1 0 0 1 0 2H7Z"
        fill="currentColor"
      ></path>
    </symbol>
    <symbol
      xml:space="preserve"
      style="
        fill-rule: evenodd;
        clip-rule: evenodd;
        stroke-linejoin: round;
        stroke-miterlimit: 2;
      "
      viewBox="0 0 24 24"
      id="battery-input"
    >
      <path
        d="M10 10.2V8c0-1.646 1.354-3 3-3h6c1.646 0 3 1.354 3 3v12c0 1.646-1.354 3-3 3h-6c-1.646 0-3-1.354-3-3v-2.2l2-2V20c0 .6.4 1 1 1h6c.6 0 1-.4 1-1V8c0-.6-.4-1-1-1h-6c-.549 0-1 .451-1 1v4.2l-2-2ZM8.586 13l-2.293-2.293a1 1 0 0 1 1.414-1.414l4 4a.997.997 0 0 1 0 1.414l-4 4a1 1 0 0 1-1.414-1.414L8.586 15H3a1 1 0 0 1 0-2h5.586ZM15 3a1 1 0 0 1 0-2h2a1 1 0 0 1 0 2h-2Zm0 16a1 1 0 0 1 0-2h2a1 1 0 0 1 0 2h-2Zm0-4a1 1 0 0 1 0-2h2a1 1 0 0 1 0 2h-2Zm0-4a1 1 0 0 1 0-2h2a1 1 0 0 1 0 2h-2Z"
        fill="currentColor"
      ></path>
    </symbol>
    <symbol
      viewBox="0 0 512 512"
      style="height: 512px; width: 512px"
      id="battery-75"
    >
      <g class="" transform="translate(0,0)" style="">
        <path
          d="M201 16c-15 0-20 3.38-20 20v15h-45c-29.547 0-35 5.453-35 35v375c0 29.547 5.453 35 35 35h240c29.547 0 35-5.453 35-35V86c0-29.547-5.453-35-35-35h-45V36c0-16.62-5-20-20-20H201zm-48.094 69.813c4.666.02 10.594.187 18.094.187h170c40 0 35-5 35 35v305c0 40 5 35-35 35H171c-40 0-35 5-35-35V121c0-32.5-3.31-35.283 16.906-35.188zM161 191c-5.54 0-10 4.46-10 10v55c0 5.54 4.46 10 10 10h190c5.54 0 10-4.46 10-10v-55c0-5.54-4.46-10-10-10H161zm0 90c-5.54 0-10 4.46-10 10v55c0 5.54 4.46 10 10 10h190c5.54 0 10-4.46 10-10v-55c0-5.54-4.46-10-10-10H161zm0 90c-5.54 0-10 4.46-10 10v55c0 5.54 4.46 10 10 10h190c5.54 0 10-4.46 10-10v-55c0-5.54-4.46-10-10-10H161z"
          fill="currentColor"
          fill-opacity="1"
        ></path>
      </g>
    </symbol>
    <symbol
      viewBox="0 0 512 512"
      style="height: 512px; width: 512px"
      id="battery-50"
    >
      <g class="" transform="translate(0,0)" style="">
        <path
          d="M201 16c-15 0-20 3.38-20 20v15h-45c-29.547 0-35 5.453-35 35v375c0 29.547 5.453 35 35 35h240c29.547 0 35-5.453 35-35V86c0-29.547-5.453-35-35-35h-45V36c0-16.62-5-20-20-20H201zm-48.094 69.813c4.666.02 10.594.187 18.094.187h170c40 0 35-5 35 35v305c0 40 5 35-35 35H171c-40 0-35 5-35-35V121c0-32.5-3.31-35.283 16.906-35.188zM161 281c-5.54 0-10 4.46-10 10v55c0 5.54 4.46 10 10 10h190c5.54 0 10-4.46 10-10v-55c0-5.54-4.46-10-10-10H161zm0 90c-5.54 0-10 4.46-10 10v55c0 5.54 4.46 10 10 10h190c5.54 0 10-4.46 10-10v-55c0-5.54-4.46-10-10-10H161z"
          fill="currentColor"
          fill-opacity="1"
        ></path>
      </g>
    </symbol>
    <symbol
      viewBox="0 0 512 512"
      style="height: 512px; width: 512px"
      id="battery-25"
    >
      <g class="" transform="translate(0,0)" style="">
        <path
          d="M201 16c-15 0-20 3.38-20 20v15h-45c-29.547 0-35 5.453-35 35v375c0 29.547 5.453 35 35 35h240c29.547 0 35-5.453 35-35V86c0-29.547-5.453-35-35-35h-45V36c0-16.62-5-20-20-20H201zm-48.094 69.813c4.666.02 10.594.187 18.094.187h170c40 0 35-5 35 35v305c0 40 5 35-35 35H171c-40 0-35 5-35-35V121c0-32.5-3.31-35.283 16.906-35.188zM161 371c-5.54 0-10 4.46-10 10v55c0 5.54 4.46 10 10 10h190c5.54 0 10-4.46 10-10v-55c0-5.54-4.46-10-10-10H161z"
          fill="currentColor"
          fill-opacity="1"
        ></path>
      </g>
    </symbol>
    <symbol
      viewBox="0 0 512 512"
      style="height: 512px; width: 512px"
      id="battery-100"
    >
      <g class="" transform="translate(0,0)" style="">
        <path
          d="M201 16c-15 0-20 3.38-20 20v15h-45c-29.547 0-35 5.453-35 35v375c0 29.547 5.453 35 35 35h240c29.547 0 35-5.453 35-35V86c0-29.547-5.453-35-35-35h-45V36c0-16.62-5-20-20-20H201zm-48.094 69.813c4.666.02 10.594.187 18.094.187h170c40 0 35-5 35 35v305c0 40 5 35-35 35H171c-40 0-35 5-35-35V121c0-32.5-3.31-35.283 16.906-35.188zM161 101c-5.54 0-10 4.46-10 10v55c0 5.54 4.46 10 10 10h190c5.54 0 10-4.46 10-10v-55c0-5.54-4.46-10-10-10H161zm0 90c-5.54 0-10 4.46-10 10v55c0 5.54 4.46 10 10 10h190c5.54 0 10-4.46 10-10v-55c0-5.54-4.46-10-10-10H161zm0 90c-5.54 0-10 4.46-10 10v55c0 5.54 4.46 10 10 10h190c5.54 0 10-4.46 10-10v-55c0-5.54-4.46-10-10-10H161zm0 90c-5.54 0-10 4.46-10 10v55c0 5.54 4.46 10 10 10h190c5.54 0 10-4.46 10-10v-55c0-5.54-4.46-10-10-10H161z"
          fill="currentColor"
          fill-opacity="1"
        ></path>
      </g>
    </symbol>
    <symbol
      viewBox="0 0 512 512"
      style="height: 512px; width: 512px"
      id="battery-0"
    >
      <g class="" transform="translate(0,0)" style="">
        <path
          d="M201 16c-15 0-20 3.38-20 20v15h-45c-29.547 0-35 5.453-35 35v375c0 29.547 5.453 35 35 35h240c29.547 0 35-5.453 35-35V86c0-29.547-5.453-35-35-35h-45V36c0-16.62-5-20-20-20zm-65 105c0-40-5-35 35-35h170c40 0 35-5 35 35v305c0 40 5 35-35 35H171c-40 0-35 5-35-35V121z"
          fill="currentColor"
          fill-opacity="1"
        ></path>
      </g>
    </symbol>
    <symbol
      viewBox="0 0 24 24"
      fill="none"
      stroke="currentColor"
      stroke-width="2"
      stroke-linecap="round"
      stroke-linejoin="round"
      id="ban"
    >
      <circle cx="12" cy="12" r="10"></circle>
      <path d="m4.9 4.9 14.2 14.2"></path>
    </symbol>
    <symbol
      viewBox="0 0 512 512"
      style="height: 512px; width: 512px"
      id="atomic-slashes"
    >
      <g class="" transform="translate(0,0)" style="">
        <path
          d="M222.25 51.813c-59.778.797-102.472 36.19-97.47 91.593-175.105 173.99-42.24 388.292 82.72 301.281 234.398 24.897 320.07-138.203 253.688-215.875-68.157-127.71-166.197-177.97-238.938-177zm35.28 54c59.782-.537 138.234 35.254 194.314 113.593-32.668-28.783-91.096-41.137-175.594-17.906 233.673-4.713 159.012 242.056-65.813 241.094 23.605-17.352 46.84-45.562 67.563-86.97-141.047 157.87-264.124-48.664-152.094-203.78 6.14 35.83 31.486 79.165 83.5 126.5-75.762-109.73-29.625-171.834 48.125-172.53zm20.314 112.03c-28.427-.322-54.126 19.32-60.375 48.188-7.143 32.992 13.82 65.547 46.81 72.69 32.992 7.14 65.516-13.823 72.658-46.814 7.14-32.99-13.822-65.545-46.813-72.687-4.124-.894-8.22-1.33-12.28-1.376z"
          fill="currentColor"
          fill-opacity="1"
        ></path>
      </g>
    </symbol>
    <symbol
      viewBox="0 0 24 24"
      fill="none"
      stroke="currentColor"
      stroke-width="2"
      stroke-linecap="round"
      stroke-linejoin="round"
      id="atom"
    >
      <circle cx="12" cy="12" r="1"></circle>
      <path
        d="M20.2 20.2c2.04-2.03.02-7.36-4.5-11.9-4.54-4.52-9.87-6.54-11.9-4.5-2.04 2.03-.02 7.36 4.5 11.9 4.54 4.52 9.87 6.54 11.9 4.5Z"
      ></path>
      <path
        d="M15.7 15.7c4.52-4.54 6.54-9.87 4.5-11.9-2.03-2.04-7.36-.02-11.9 4.5-4.52 4.54-6.54 9.87-4.5 11.9 2.03 2.04 7.36.02 11.9-4.5Z"
      ></path>
    </symbol>
    <symbol
      viewBox="0 0 24 24"
      fill="none"
      stroke="currentColor"
      stroke-width="2"
      stroke-linecap="round"
      stroke-linejoin="round"
      id="arrow-up"
    >
      <path d="m5 12 7-7 7 7"></path>
      <path d="M12 19V5"></path>
    </symbol>
    <symbol
      viewBox="0 0 24 24"
      fill="none"
      stroke="currentColor"
      stroke-width="2"
      stroke-linecap="round"
      stroke-linejoin="round"
      id="arrow-left"
    >
      <path d="m12 19-7-7 7-7"></path>
      <path d="M19 12H5"></path>
    </symbol>
    <symbol
      viewBox="0 0 24 24"
      fill="none"
      stroke="currentColor"
      stroke-width="2"
      stroke-linecap="round"
      stroke-linejoin="round"
      id="arrow-down"
    >
      <path d="M12 5v14"></path>
      <path d="m19 12-7 7-7-7"></path>
    </symbol>
  </defs>
</svg>
