<svg xmlns="http://www.w3.org/2000/svg" width="0" height="0"><defs><symbol id="arrow-down" fill="none" stroke="currentColor" stroke-linecap="round" stroke-linejoin="round" stroke-width="2" viewBox="0 0 24 24"><path d="M12 5v14M19 12l-7 7-7-7"/></symbol><symbol id="arrow-left" fill="none" stroke="currentColor" stroke-linecap="round" stroke-linejoin="round" stroke-width="2" viewBox="0 0 24 24"><path d="m12 19-7-7 7-7M19 12H5"/></symbol><symbol id="arrow-up" fill="none" stroke="currentColor" stroke-linecap="round" stroke-linejoin="round" stroke-width="2" viewBox="0 0 24 24"><path d="m5 12 7-7 7 7M12 19V5"/></symbol><symbol id="atom" fill="none" stroke="currentColor" stroke-linecap="round" stroke-linejoin="round" stroke-width="2" viewBox="0 0 24 24"><circle cx="12" cy="12" r="1"/><path d="M20.2 20.2c2.04-2.03.02-7.36-4.5-11.9-4.54-4.52-9.87-6.54-11.9-4.5-2.04 2.03-.02 7.36 4.5 11.9 4.54 4.52 9.87 6.54 11.9 4.5"/><path d="M15.7 15.7c4.52-4.54 6.54-9.87 4.5-11.9-2.03-2.04-7.36-.02-11.9 4.5-4.52 4.54-6.54 9.87-4.5 11.9 2.03 2.04 7.36.02 11.9-4.5"/></symbol><symbol id="atomic-slashes" style="height:512px;width:512px" viewBox="0 0 512 512"><path fill="currentColor" d="M222.25 51.813c-59.778.797-102.472 36.19-97.47 91.593-175.105 173.99-42.24 388.292 82.72 301.281 234.398 24.897 320.07-138.203 253.688-215.875-68.157-127.71-166.197-177.97-238.938-177zm35.28 54c59.782-.537 138.234 35.254 194.314 113.593-32.668-28.783-91.096-41.137-175.594-17.906 233.673-4.713 159.012 242.056-65.813 241.094 23.605-17.352 46.84-45.562 67.563-86.97-141.047 157.87-264.124-48.664-152.094-203.78 6.14 35.83 31.486 79.165 83.5 126.5-75.762-109.73-29.625-171.834 48.125-172.53zm20.314 112.03c-28.427-.322-54.126 19.32-60.375 48.188-7.143 32.992 13.82 65.547 46.81 72.69 32.992 7.14 65.516-13.823 72.658-46.814 7.14-32.99-13.822-65.545-46.813-72.687-4.124-.894-8.22-1.33-12.28-1.376z"/></symbol><symbol id="ban" fill="none" stroke="currentColor" stroke-linecap="round" stroke-linejoin="round" stroke-width="2" viewBox="0 0 24 24"><circle cx="12" cy="12" r="10"/><path d="m4.9 4.9 14.2 14.2"/></symbol><symbol id="battery-0" style="height:512px;width:512px" viewBox="0 0 512 512"><path fill="currentColor" d="M201 16c-15 0-20 3.38-20 20v15h-45c-29.547 0-35 5.453-35 35v375c0 29.547 5.453 35 35 35h240c29.547 0 35-5.453 35-35V86c0-29.547-5.453-35-35-35h-45V36c0-16.62-5-20-20-20zm-65 105c0-40-5-35 35-35h170c40 0 35-5 35 35v305c0 40 5 35-35 35H171c-40 0-35 5-35-35z"/></symbol><symbol id="battery-100" style="height:512px;width:512px" viewBox="0 0 512 512"><path fill="currentColor" d="M201 16c-15 0-20 3.38-20 20v15h-45c-29.547 0-35 5.453-35 35v375c0 29.547 5.453 35 35 35h240c29.547 0 35-5.453 35-35V86c0-29.547-5.453-35-35-35h-45V36c0-16.62-5-20-20-20zm-48.094 69.813c4.666.02 10.594.187 18.094.187h170c40 0 35-5 35 35v305c0 40 5 35-35 35H171c-40 0-35 5-35-35V121c0-32.5-3.31-35.283 16.906-35.188zM161 101c-5.54 0-10 4.46-10 10v55c0 5.54 4.46 10 10 10h190c5.54 0 10-4.46 10-10v-55c0-5.54-4.46-10-10-10zm0 90c-5.54 0-10 4.46-10 10v55c0 5.54 4.46 10 10 10h190c5.54 0 10-4.46 10-10v-55c0-5.54-4.46-10-10-10zm0 90c-5.54 0-10 4.46-10 10v55c0 5.54 4.46 10 10 10h190c5.54 0 10-4.46 10-10v-55c0-5.54-4.46-10-10-10zm0 90c-5.54 0-10 4.46-10 10v55c0 5.54 4.46 10 10 10h190c5.54 0 10-4.46 10-10v-55c0-5.54-4.46-10-10-10z"/></symbol><symbol id="battery-25" style="height:512px;width:512px" viewBox="0 0 512 512"><path fill="currentColor" d="M201 16c-15 0-20 3.38-20 20v15h-45c-29.547 0-35 5.453-35 35v375c0 29.547 5.453 35 35 35h240c29.547 0 35-5.453 35-35V86c0-29.547-5.453-35-35-35h-45V36c0-16.62-5-20-20-20zm-48.094 69.813c4.666.02 10.594.187 18.094.187h170c40 0 35-5 35 35v305c0 40 5 35-35 35H171c-40 0-35 5-35-35V121c0-32.5-3.31-35.283 16.906-35.188zM161 371c-5.54 0-10 4.46-10 10v55c0 5.54 4.46 10 10 10h190c5.54 0 10-4.46 10-10v-55c0-5.54-4.46-10-10-10z"/></symbol><symbol id="battery-50" style="height:512px;width:512px" viewBox="0 0 512 512"><path fill="currentColor" d="M201 16c-15 0-20 3.38-20 20v15h-45c-29.547 0-35 5.453-35 35v375c0 29.547 5.453 35 35 35h240c29.547 0 35-5.453 35-35V86c0-29.547-5.453-35-35-35h-45V36c0-16.62-5-20-20-20zm-48.094 69.813c4.666.02 10.594.187 18.094.187h170c40 0 35-5 35 35v305c0 40 5 35-35 35H171c-40 0-35 5-35-35V121c0-32.5-3.31-35.283 16.906-35.188zM161 281c-5.54 0-10 4.46-10 10v55c0 5.54 4.46 10 10 10h190c5.54 0 10-4.46 10-10v-55c0-5.54-4.46-10-10-10zm0 90c-5.54 0-10 4.46-10 10v55c0 5.54 4.46 10 10 10h190c5.54 0 10-4.46 10-10v-55c0-5.54-4.46-10-10-10z"/></symbol><symbol id="battery-75" style="height:512px;width:512px" viewBox="0 0 512 512"><path fill="currentColor" d="M201 16c-15 0-20 3.38-20 20v15h-45c-29.547 0-35 5.453-35 35v375c0 29.547 5.453 35 35 35h240c29.547 0 35-5.453 35-35V86c0-29.547-5.453-35-35-35h-45V36c0-16.62-5-20-20-20zm-48.094 69.813c4.666.02 10.594.187 18.094.187h170c40 0 35-5 35 35v305c0 40 5 35-35 35H171c-40 0-35 5-35-35V121c0-32.5-3.31-35.283 16.906-35.188zM161 191c-5.54 0-10 4.46-10 10v55c0 5.54 4.46 10 10 10h190c5.54 0 10-4.46 10-10v-55c0-5.54-4.46-10-10-10zm0 90c-5.54 0-10 4.46-10 10v55c0 5.54 4.46 10 10 10h190c5.54 0 10-4.46 10-10v-55c0-5.54-4.46-10-10-10zm0 90c-5.54 0-10 4.46-10 10v55c0 5.54 4.46 10 10 10h190c5.54 0 10-4.46 10-10v-55c0-5.54-4.46-10-10-10z"/></symbol><symbol id="battery-pack-alt" style="height:512px;width:512px" viewBox="0 0 512 512"><path fill="currentColor" d="M226 16c-24.93 0-45 13.38-45 30v15h-45c-29.547 0-60 30.453-60 60v315c0 29.547 30.453 60 60 60h240c29.547 0 60-30.453 60-60V121c0-29.547-30.453-60-60-60h-45V46c0-16.62-20.07-30-45-30zm-90 105h240v315H136zm120 30v105h-75l75 150V301h75z"/></symbol><symbol id="brush" fill="none" stroke="currentColor" stroke-linecap="round" stroke-linejoin="round" stroke-width="2" viewBox="0 0 24 24"><path d="m9.06 11.9 8.07-8.06a2.85 2.85 0 1 1 4.03 4.03l-8.06 8.08M7.07 14.94c-1.66 0-3 1.35-3 3.02 0 1.33-2.5 1.52-2 2.02 1.08 1.1 2.49 2.02 4 2.02 2.2 0 4-1.8 4-4.04a3.01 3.01 0 0 0-3-3.02"/></symbol><symbol id="camera" fill="none" stroke="currentColor" stroke-linecap="round" stroke-linejoin="round" stroke-width="2" viewBox="0 0 24 24"><path d="M14.5 4h-5L7 7H4a2 2 0 0 0-2 2v9a2 2 0 0 0 2 2h16a2 2 0 0 0 2-2V9a2 2 0 0 0-2-2h-3z"/><circle cx="12" cy="13" r="3"/></symbol><symbol id="check" fill="none" stroke="currentColor" stroke-linecap="round" stroke-linejoin="round" stroke-width="2" viewBox="0 0 24 24"><path d="M20 6 9 17l-5-5"/></symbol><symbol id="chevron-down" fill="none" stroke="currentColor" stroke-linecap="round" stroke-linejoin="round" stroke-width="2" viewBox="0 0 24 24"><path d="m6 9 6 6 6-6"/></symbol><symbol id="chevron-left" fill="none" stroke="currentColor" stroke-linecap="round" stroke-linejoin="round" stroke-width="2" viewBox="0 0 24 24"><path d="m15 18-6-6 6-6"/></symbol><symbol id="chevron-right" fill="none" stroke="currentColor" stroke-linecap="round" stroke-linejoin="round" stroke-width="2" viewBox="0 0 24 24"><path d="m9 18 6-6-6-6"/></symbol><symbol id="chevron-up" fill="none" stroke="currentColor" stroke-linecap="round" stroke-linejoin="round" stroke-width="2" viewBox="0 0 24 24"><path d="m18 15-6-6-6 6"/></symbol><symbol id="chevrons-up-down" fill="none" stroke="currentColor" stroke-linecap="round" stroke-linejoin="round" stroke-width="2" viewBox="0 0 24 24"><path d="m7 15 5 5 5-5M7 9l5-5 5 5"/></symbol><symbol id="circle-dot" fill="none" stroke="currentColor" stroke-linecap="round" stroke-linejoin="round" stroke-width="2" viewBox="0 0 24 24"><circle cx="12" cy="12" r="10"/><circle cx="12" cy="12" r="1"/></symbol><symbol id="circle-off" fill="none" stroke="currentColor" stroke-linecap="round" stroke-linejoin="round" stroke-width="2" viewBox="0 0 24 24"><path d="m2 2 20 20M8.35 2.69A10 10 0 0 1 21.3 15.65M19.08 19.08A10 10 0 1 1 4.92 4.92"/></symbol><symbol id="crosshair" fill="none" stroke="currentColor" stroke-linecap="round" stroke-linejoin="round" stroke-width="2" viewBox="0 0 24 24"><circle cx="12" cy="12" r="10"/><path d="M22 12h-4M6 12H2M12 6V2M12 22v-4"/></symbol><symbol id="database-zap" fill="none" stroke="currentColor" stroke-linecap="round" stroke-linejoin="round" stroke-width="2" viewBox="0 0 24 24"><ellipse cx="12" cy="5" rx="9" ry="3"/><path d="M3 5v14a9 3 0 0 0 12 2.84M21 5v3M21 12l-3 5h4l-3 5"/><path d="M3 12a9 3 0 0 0 11.59 2.87"/></symbol><symbol id="drafting-compass" fill="none" stroke="currentColor" stroke-linecap="round" stroke-linejoin="round" stroke-width="2" viewBox="0 0 24 24"><circle cx="12" cy="5" r="2"/><path d="m3 21 8.02-14.26M12.99 6.74l1.93 3.44M19 12c-3.87 4-10.13 4-14 0M21 21l-2.16-3.84"/></symbol><symbol id="external-link" fill="none" stroke="currentColor" stroke-linecap="round" stroke-linejoin="round" stroke-width="2" viewBox="0 0 24 24"><path d="M15 3h6v6M10 14 21 3M18 13v6a2 2 0 0 1-2 2H5a2 2 0 0 1-2-2V8a2 2 0 0 1 2-2h6"/></symbol><symbol id="file-audio" fill="none" stroke="currentColor" stroke-linecap="round" stroke-linejoin="round" stroke-width="2" viewBox="0 0 24 24"><path d="M17.5 22h.5a2 2 0 0 0 2-2V7l-5-5H6a2 2 0 0 0-2 2v3"/><path d="M14 2v4a2 2 0 0 0 2 2h4M2 19a2 2 0 1 1 4 0v1a2 2 0 1 1-4 0v-4a6 6 0 0 1 12 0v4a2 2 0 1 1-4 0v-1a2 2 0 1 1 4 0"/></symbol><symbol id="file-text" fill="none" stroke="currentColor" stroke-linecap="round" stroke-linejoin="round" stroke-width="2" viewBox="0 0 24 24"><path d="M15 2H6a2 2 0 0 0-2 2v16a2 2 0 0 0 2 2h12a2 2 0 0 0 2-2V7Z"/><path d="M14 2v4a2 2 0 0 0 2 2h4M10 9H8M16 13H8M16 17H8"/></symbol><symbol id="file-type" fill="none" stroke="currentColor" stroke-linecap="round" stroke-linejoin="round" stroke-width="2" viewBox="0 0 24 24"><path d="M15 2H6a2 2 0 0 0-2 2v16a2 2 0 0 0 2 2h12a2 2 0 0 0 2-2V7Z"/><path d="M14 2v4a2 2 0 0 0 2 2h4M9 13v-1h6v1M12 12v6M11 18h2"/></symbol><symbol id="file-up" fill="none" stroke="currentColor" stroke-linecap="round" stroke-linejoin="round" stroke-width="2" viewBox="0 0 24 24"><path d="M15 2H6a2 2 0 0 0-2 2v16a2 2 0 0 0 2 2h12a2 2 0 0 0 2-2V7Z"/><path d="M14 2v4a2 2 0 0 0 2 2h4M12 12v6M15 15l-3-3-3 3"/></symbol><symbol id="file-video" fill="none" stroke="currentColor" stroke-linecap="round" stroke-linejoin="round" stroke-width="2" viewBox="0 0 24 24"><path d="M15 2H6a2 2 0 0 0-2 2v16a2 2 0 0 0 2 2h12a2 2 0 0 0 2-2V7Z"/><path d="M14 2v4a2 2 0 0 0 2 2h4M10 11l5 3-5 3z"/></symbol><symbol id="flame" fill="none" stroke="currentColor" stroke-linecap="round" stroke-linejoin="round" stroke-width="2" viewBox="0 0 24 24"><path d="M8.5 14.5A2.5 2.5 0 0 0 11 12c0-1.38-.5-2-1-3-1.072-2.143-.224-4.054 2-6 .5 2.5 2 4.9 4 6.5s3 3.5 3 5.5a7 7 0 1 1-14 0c0-1.153.433-2.294 1-3a2.5 2.5 0 0 0 2.5 2.5"/></symbol><symbol id="git-branch" fill="none" stroke="currentColor" stroke-linecap="round" stroke-linejoin="round" stroke-width="2" viewBox="0 0 24 24"><path d="M6 3v12"/><circle cx="18" cy="6" r="3"/><circle cx="6" cy="18" r="3"/><path d="M18 9a9 9 0 0 1-9 9"/></symbol><symbol id="git-pull-request-create" fill="none" stroke="currentColor" stroke-linecap="round" stroke-linejoin="round" stroke-width="2" viewBox="0 0 24 24"><circle cx="6" cy="6" r="3"/><path d="M6 9v12M13 6h3a2 2 0 0 1 2 2v3M18 15v6M21 18h-6"/></symbol><symbol id="hand" fill="none" stroke="currentColor" stroke-linecap="round" stroke-linejoin="round" stroke-width="2" viewBox="0 0 24 24"><path d="M18 11V6a2 2 0 0 0-2-2v0a2 2 0 0 0-2 2v0M14 10V4a2 2 0 0 0-2-2v0a2 2 0 0 0-2 2v2M10 10.5V6a2 2 0 0 0-2-2v0a2 2 0 0 0-2 2v8"/><path d="M18 8a2 2 0 1 1 4 0v6a8 8 0 0 1-8 8h-2c-2.8 0-4.5-.86-5.99-2.34l-3.6-3.6a2 2 0 0 1 2.83-2.82L7 15"/></symbol><symbol id="home" fill="none" stroke="currentColor" stroke-linecap="round" stroke-linejoin="round" stroke-width="2" viewBox="0 0 24 24"><path d="m3 9 9-7 9 7v11a2 2 0 0 1-2 2H5a2 2 0 0 1-2-2z"/><path d="M9 22V12h6v10"/></symbol><symbol id="info" fill="none" stroke="currentColor" stroke-linecap="round" stroke-linejoin="round" stroke-width="2" viewBox="0 0 24 24"><circle cx="12" cy="12" r="10"/><path d="M12 16v-4M12 8h.01"/></symbol><symbol id="joystick" fill="none" stroke="currentColor" stroke-linecap="round" stroke-linejoin="round" stroke-width="2" viewBox="0 0 24 24"><path d="M21 17a2 2 0 0 0-2-2H5a2 2 0 0 0-2 2v2a2 2 0 0 0 2 2h14a2 2 0 0 0 2-2zM6 15v-2M12 15V9"/><circle cx="12" cy="6" r="3"/></symbol><symbol id="loader" fill="none" stroke="currentColor" stroke-linecap="round" stroke-linejoin="round" stroke-width="2" viewBox="0 0 24 24"><path d="M12 2v4M12 18v4M4.93 4.93l2.83 2.83M16.24 16.24l2.83 2.83M2 12h4M18 12h4M4.93 19.07l2.83-2.83M16.24 7.76l2.83-2.83"/></symbol><symbol id="log-out" fill="none" stroke="currentColor" stroke-linecap="round" stroke-linejoin="round" stroke-width="2" viewBox="0 0 24 24"><path d="M9 21H5a2 2 0 0 1-2-2V5a2 2 0 0 1 2-2h4M16 17l5-5-5-5M21 12H9"/></symbol><symbol id="minus" fill="none" stroke="currentColor" stroke-linecap="round" stroke-linejoin="round" stroke-width="2" viewBox="0 0 24 24"><path d="M5 12h14"/></symbol><symbol id="orbit" fill="none" stroke="currentColor" stroke-linecap="round" stroke-linejoin="round" stroke-width="2" viewBox="0 0 24 24"><circle cx="12" cy="12" r="3"/><circle cx="19" cy="5" r="2"/><circle cx="5" cy="19" r="2"/><path d="M10.4 21.9a10 10 0 0 0 9.941-15.416M13.5 2.1a10 10 0 0 0-9.841 15.416"/></symbol><symbol id="package-open" fill="none" stroke="currentColor" stroke-linecap="round" stroke-linejoin="round" stroke-width="2" viewBox="0 0 24 24"><path d="M20.91 8.84 8.56 2.23a1.93 1.93 0 0 0-1.81 0L3.1 4.13a2.12 2.12 0 0 0-.05 3.69l12.22 6.93a2 2 0 0 0 1.94 0L21 12.51a2.12 2.12 0 0 0-.09-3.67"/><path d="m3.09 8.84 12.35-6.61a1.93 1.93 0 0 1 1.81 0l3.65 1.9a2.12 2.12 0 0 1 .1 3.69L8.73 14.75a2 2 0 0 1-1.94 0L3 12.51a2.12 2.12 0 0 1 .09-3.67M12 22v-9"/><path d="M20 13.5v3.37a2.06 2.06 0 0 1-1.11 1.83l-6 3.08a1.93 1.93 0 0 1-1.78 0l-6-3.08A2.06 2.06 0 0 1 4 16.87V13.5"/></symbol><symbol id="pencil" fill="none" stroke="currentColor" stroke-linecap="round" stroke-linejoin="round" stroke-width="2" viewBox="0 0 24 24"><path d="M17 3a2.85 2.83 0 1 1 4 4L7.5 20.5 2 22l1.5-5.5ZM15 5l4 4"/></symbol><symbol id="picture-in-picture" fill="none" stroke="currentColor" stroke-linecap="round" stroke-linejoin="round" stroke-width="2" viewBox="0 0 24 24"><path d="M8 4.5v5H3m-1-6 6 6m13 0v-3c0-1.16-.84-2-2-2h-7m-9 9v2c0 1.05.95 2 2 2h3"/><rect width="10" height="7" x="12" y="13.5" ry="2"/></symbol><symbol id="plug-zap" fill="none" stroke="currentColor" stroke-linecap="round" stroke-linejoin="round" stroke-width="2" viewBox="0 0 24 24"><path d="M6.3 20.3a2.4 2.4 0 0 0 3.4 0L12 18l-6-6-2.3 2.3a2.4 2.4 0 0 0 0 3.4ZM2 22l3-3M7.5 13.5 10 11M10.5 16.5 13 14M18 3l-4 4h6l-4 4"/></symbol><symbol id="plug" fill="none" stroke="currentColor" stroke-linecap="round" stroke-linejoin="round" stroke-width="2" viewBox="0 0 24 24"><path d="M12 22v-5M9 8V2M15 8V2M18 8v5a4 4 0 0 1-4 4h-4a4 4 0 0 1-4-4V8Z"/></symbol><symbol id="plus" fill="none" stroke="currentColor" stroke-linecap="round" stroke-linejoin="round" stroke-width="2" viewBox="0 0 24 24"><path d="M5 12h14M12 5v14"/></symbol><symbol id="power-node" fill="currentColor" stroke="currentColor" stroke-width="0" viewBox="0 0 16 16"><path d="M11 13a5 5 0 1 0-4.975-5.5H4A1.5 1.5 0 0 0 2.5 6h-1A1.5 1.5 0 0 0 0 7.5v1A1.5 1.5 0 0 0 1.5 10h1A1.5 1.5 0 0 0 4 8.5h2.025A5 5 0 0 0 11 13zm.5-7.5v2h2a.5.5 0 0 1 0 1h-2v2a.5.5 0 0 1-1 0v-2h-2a.5.5 0 0 1 0-1h2v-2a.5.5 0 0 1 1 0z"/></symbol><symbol id="reactor" fill="none" stroke="currentColor" stroke-linecap="round" stroke-linejoin="round" stroke-width="2" class="text-5xl" viewBox="0 0 24 24"><path stroke="none" d="M0 0h24v24H0z"/><circle cx="12" cy="12" r="3"/><path d="M12 21v.01M3 9v.01M21 9v.01M8 20.1A9 9 0 0 1 3 13M16 20.1a9 9 0 0 0 5-7.1M6.2 5a9 9 0 0 1 11.4 0"/></symbol><symbol id="repeat-2" fill="none" stroke="currentColor" stroke-linecap="round" stroke-linejoin="round" stroke-width="2" viewBox="0 0 24 24"><path d="m2 9 3-3 3 3"/><path d="M13 18H7a2 2 0 0 1-2-2V6M22 15l-3 3-3-3"/><path d="M11 6h6a2 2 0 0 1 2 2v10"/></symbol><symbol id="rocket" fill="none" stroke="currentColor" stroke-linecap="round" stroke-linejoin="round" stroke-width="2" viewBox="0 0 24 24"><path d="M4.5 16.5c-1.5 1.26-2 5-2 5s3.74-.5 5-2c.71-.84.7-2.13-.09-2.91a2.18 2.18 0 0 0-2.91-.09M12 15l-3-3a22 22 0 0 1 2-3.95A12.88 12.88 0 0 1 22 2c0 2.72-.78 7.5-6 11a22.35 22.35 0 0 1-4 2"/><path d="M9 12H4s.55-3.03 2-4c1.62-1.08 5 0 5 0M12 15v5s3.03-.55 4-2c1.08-1.62 0-5 0-5"/></symbol><symbol id="route" fill="none" stroke="currentColor" stroke-linecap="round" stroke-linejoin="round" stroke-width="2" viewBox="0 0 24 24"><circle cx="6" cy="19" r="3"/><path d="M9 19h8.5a3.5 3.5 0 0 0 0-7h-11a3.5 3.5 0 0 1 0-7H15"/><circle cx="18" cy="5" r="3"/></symbol><symbol id="shield-half" fill="none" stroke="currentColor" stroke-linecap="round" stroke-linejoin="round" stroke-width="2" viewBox="0 0 24 24"><path d="M12 22s8-4 8-10V5l-8-3-8 3v7c0 6 8 10 8 10M12 22V2"/></symbol><symbol id="siren" fill="none" stroke="currentColor" stroke-linecap="round" stroke-linejoin="round" stroke-width="2" viewBox="0 0 24 24"><path d="M7 12a5 5 0 0 1 5-5v0a5 5 0 0 1 5 5v6H7zM5 20a2 2 0 0 1 2-2h10a2 2 0 0 1 2 2v2H5zM21 12h1M18.5 4.5 18 5M2 12h1M12 2v1M4.929 4.929l.707.707M12 12v6"/></symbol><symbol id="sparkles" fill="none" stroke="currentColor" stroke-linecap="round" stroke-linejoin="round" stroke-width="2" viewBox="0 0 24 24"><path d="m12 3-1.912 5.813a2 2 0 0 1-1.275 1.275L3 12l5.813 1.912a2 2 0 0 1 1.275 1.275L12 21l1.912-5.813a2 2 0 0 1 1.275-1.275L21 12l-5.813-1.912a2 2 0 0 1-1.275-1.275zM5 3v4M19 17v4M3 5h4M17 19h4"/></symbol><symbol id="star" fill="none" stroke="currentColor" stroke-linecap="round" stroke-linejoin="round" stroke-width="2" viewBox="0 0 24 24"><path d="m12 2 3.09 6.26L22 9.27l-5 4.87 1.18 6.88L12 17.77l-6.18 3.25L7 14.14 2 9.27l6.91-1.01z"/></symbol><symbol id="sword" fill="none" stroke="currentColor" stroke-linecap="round" stroke-linejoin="round" stroke-width="2" viewBox="0 0 24 24"><path d="M14.5 17.5 3 6V3h3l11.5 11.5M13 19l6-6M16 16l4 4M19 21l2-2"/></symbol><symbol id="text-cursor-input" fill="none" stroke="currentColor" stroke-linecap="round" stroke-linejoin="round" stroke-width="2" viewBox="0 0 24 24"><path d="M5 4h1a3 3 0 0 1 3 3 3 3 0 0 1 3-3h1M13 20h-1a3 3 0 0 1-3-3 3 3 0 0 1-3 3H5M5 16H4a2 2 0 0 1-2-2v-4a2 2 0 0 1 2-2h1M13 8h7a2 2 0 0 1 2 2v4a2 2 0 0 1-2 2h-7M9 7v10"/></symbol><symbol id="x" fill="none" stroke="currentColor" stroke-linecap="round" stroke-linejoin="round" stroke-width="2" viewBox="0 0 24 24"><path d="M18 6 6 18M6 6l12 12"/></symbol><symbol id="zap" fill="none" stroke="currentColor" stroke-linecap="round" stroke-linejoin="round" stroke-width="2" viewBox="0 0 24 24"><path d="M13 2 3 14h9l-1 8 10-12h-9z"/></symbol></defs></svg>